<svg width="18" height="18" viewBox="0 0 18 18" fill="none" xmlns="http://www.w3.org/2000/svg">
<path d="M11.9275 8.33288C11.6572 8.33606 11.3967 8.43489 11.1923 8.61186C10.9879 8.78883 10.8529 9.03249 10.811 9.29959H12.9078C12.9097 9.17096 12.8856 9.04329 12.8368 8.92425C12.788 8.80521 12.7157 8.69724 12.6241 8.60692C12.5325 8.51659 12.4235 8.44576 12.3038 8.39866C12.1841 8.35156 12.0561 8.32919 11.9275 8.33288Z" fill="#3F3F3F"/>
<path d="M7.20269 9.29956H5.32373V11.0287H7.13463C7.24523 11.0371 7.35633 11.0213 7.46018 10.9823C7.56404 10.9434 7.65814 10.8822 7.73592 10.8032C7.81371 10.7241 7.8733 10.629 7.91055 10.5245C7.94779 10.42 7.96178 10.3087 7.95156 10.1982C7.96685 10.0891 7.95914 9.97801 7.92893 9.87206C7.89873 9.76611 7.8467 9.66762 7.77617 9.58299C7.70564 9.49835 7.61818 9.42944 7.51942 9.38063C7.42065 9.33181 7.31276 9.30419 7.20269 9.29956Z" fill="#3F3F3F"/>
<path d="M7.13472 8.33288C7.43427 8.33288 7.65211 8.18308 7.65211 7.58399C7.65211 6.9849 7.20278 6.98489 7.20278 6.98489H5.40552V8.34647L7.13472 8.33288Z" fill="#3F3F3F"/>
<path d="M9 0C6.61636 0.0107453 4.33342 0.962434 2.64792 2.64794C0.962413 4.33344 0.0107453 6.61638 0 9.00002C0.007183 11.3848 0.957697 13.6698 2.64397 15.3561C4.33024 17.0423 6.61526 17.9928 9 18C11.3858 17.9964 13.6729 17.047 15.36 15.36C17.047 13.673 17.9964 11.3859 18 9.00002C17.9928 6.61528 17.0423 4.33026 15.356 2.64399C13.6698 0.957717 11.3847 0.007183 9 0ZM10.5794 6.15434H13.3026V6.90319H10.5794V6.15434ZM9.21786 10.2391C9.21854 10.4977 9.1658 10.7537 9.06297 10.991C8.96015 11.2283 8.80944 11.4419 8.62028 11.6182C8.43111 11.7946 8.20758 11.9301 7.96365 12.0161C7.71973 12.1021 7.46067 12.1368 7.20271 12.118H3.8941V5.66415H7.2708C7.50365 5.64079 7.73879 5.66949 7.95921 5.74813C8.17962 5.82677 8.3798 5.95341 8.54528 6.11889C8.71076 6.28437 8.8374 6.48453 8.91604 6.70494C8.99468 6.92536 9.02336 7.16052 9 7.39337C9.01908 7.54093 9.00884 7.69078 8.96985 7.83436C8.93087 7.97795 8.8639 8.11246 8.77281 8.23011C8.68173 8.34775 8.56832 8.44626 8.43907 8.51997C8.30982 8.59368 8.1673 8.64114 8.01967 8.65963C9.29954 8.70047 9.23147 10.3616 9.14977 10.2799L9.21786 10.2391ZM14.174 10.0893H10.879C10.8669 10.2396 10.8873 10.3907 10.939 10.5324C10.9906 10.6741 11.0722 10.803 11.1782 10.9102C11.2842 11.0175 11.412 11.1007 11.5531 11.154C11.6941 11.2074 11.845 11.2297 11.9955 11.2194C12.9758 11.2194 12.9758 10.4705 12.9758 10.4705H14.0923C14.0923 12.2678 11.9955 12.1861 11.9955 12.1861C11.6745 12.2106 11.3521 12.1654 11.0502 12.0536C10.7484 11.9419 10.4742 11.7662 10.2466 11.5386C10.019 11.3109 9.84333 11.0368 9.73156 10.735C9.61979 10.4331 9.57461 10.1107 9.5991 9.78971C9.59164 9.47298 9.64853 9.15805 9.76632 8.86394C9.88411 8.56983 10.0603 8.30268 10.2844 8.07865C10.5084 7.85462 10.7755 7.67837 11.0697 7.56058C11.3638 7.44279 11.6787 7.38592 11.9955 7.39337C12.3295 7.39266 12.6593 7.46877 12.9592 7.61584C13.2592 7.76292 13.5213 7.97699 13.7253 8.24153C13.9293 8.50607 14.0697 8.81398 14.1357 9.14146C14.2017 9.46894 14.1915 9.8072 14.1059 10.1301L14.174 10.0893Z" fill="#3F3F3F"/>
</svg>
