<svg width="145" height="27" viewBox="0 0 145 27" fill="none" xmlns="http://www.w3.org/2000/svg">
<path d="M12.4616 0C13.696 0 14.8364 0.0940498 15.8827 0.376199C16.929 0.564299 17.7872 0.952255 18.5513 1.4225C19.3155 1.89275 19.8798 2.56286 20.2677 3.42106C20.6439 4.27927 20.8438 5.32557 20.8438 6.46593C20.8438 7.79438 20.5616 8.93474 19.8915 9.79294C19.3155 10.6511 18.375 11.4153 17.2229 11.9796C18.8452 12.4498 20.0796 13.3081 20.832 14.4484C21.5844 15.5888 22.0664 17.0113 22.0664 18.6336C22.0664 19.9621 21.7843 21.1024 21.3023 22.0547C20.832 23.0069 20.0679 23.8652 19.2097 24.4294C18.3515 25.0055 17.3052 25.4758 16.1648 25.7579C15.0245 26.0401 13.8841 26.2282 12.7438 26.2282L0 26.2517V0H12.4616ZM11.6974 10.6511C12.7438 10.6511 13.602 10.369 14.2603 9.88699C14.9187 9.40499 15.2126 8.55854 15.2126 7.51223C15.2126 6.93618 15.1185 6.37188 14.9304 5.99568C14.7423 5.61948 14.4602 5.32557 14.0722 5.04342C13.696 4.85532 13.3081 4.66722 12.8378 4.57317C12.3676 4.47912 11.8855 4.47912 11.3213 4.47912H5.80758V10.6629C5.80758 10.6511 11.6974 10.6511 11.6974 10.6511ZM11.9796 21.8783C12.5557 21.8783 13.12 21.7843 13.602 21.6902C14.0722 21.5962 14.5542 21.4081 14.9304 21.1142C15.3066 20.8203 15.6005 20.5381 15.8827 20.0679C16.0708 19.5976 16.2589 19.0216 16.2589 18.3515C16.2589 17.023 15.8827 16.0708 15.1185 15.4007C14.3544 14.8246 13.3081 14.5425 12.0736 14.5425H5.80758V21.8666H11.9796V21.8783Z" fill="black"/>
<path d="M30.343 21.7843C31.1071 22.5484 32.2475 22.9246 33.764 22.9246C34.8104 22.9246 35.7626 22.6425 36.5268 22.1605C37.2909 21.5844 37.7612 21.0201 37.9493 20.4441H42.6047C41.8406 22.7248 40.7002 24.3471 39.1837 25.3934C37.6671 26.3457 35.8567 26.91 33.67 26.91C32.1534 26.91 30.8132 26.6278 29.5788 26.1458C28.3444 25.6756 27.3922 25.0055 26.534 24.0532C25.6758 23.195 25.0174 22.1487 24.6295 20.9143C24.1592 19.6799 23.9594 18.3514 23.9594 16.8231C23.9594 15.4006 24.1474 14.0604 24.6295 12.826C25.1115 11.5916 25.7698 10.5453 26.628 9.59305C27.4862 8.73484 28.5325 7.97069 29.6729 7.50044C30.9073 7.03019 32.1417 6.73629 33.67 6.73629C35.2924 6.73629 36.7149 7.01844 37.9493 7.68854C39.1837 8.35865 40.1359 9.11104 40.9001 10.2514C41.6642 11.2977 42.2285 12.5321 42.6165 13.8606C42.8046 15.189 42.8986 16.5292 42.8046 18.0458H29.0145C29.0145 19.5976 29.5788 21.0201 30.343 21.7843ZM36.3387 11.7915C35.6686 11.1214 34.6223 10.7452 33.3878 10.7452C32.5296 10.7452 31.8713 10.9333 31.2952 11.2154C30.7192 11.4976 30.343 11.8855 29.9668 12.2617C29.5906 12.6379 29.3907 13.1199 29.2967 13.5902C29.2026 14.0604 29.1086 14.4484 29.1086 14.8246H37.6671C37.479 13.4138 36.997 12.4616 36.3387 11.7915ZM27.9682 1.81042H38.6194V4.37328H27.9682V1.81042Z" fill="black"/>
<path d="M50.2226 0V9.88699H50.3167C50.9868 8.74664 51.8332 7.98248 52.8795 7.51223C53.9258 7.04198 54.8781 6.74808 55.9244 6.74808C57.3469 6.74808 58.4872 6.93618 59.3454 7.32413C60.2036 7.70033 60.9678 8.27639 61.4381 8.94649C61.9083 9.6166 62.2963 10.463 62.4844 11.4153C62.6725 12.3676 62.7665 13.4139 62.7665 14.6483V26.3457H57.535V15.6005C57.535 13.9782 57.2528 12.8378 56.7708 12.0854C56.2888 11.333 55.4541 10.9333 54.2197 10.9333C52.7972 10.9333 51.7509 11.4035 51.1749 12.1677C50.5048 13.0259 50.2226 14.4484 50.2226 16.3529V26.3457H44.9911V0H50.2226Z" fill="black"/>
<path d="M66.5873 10.0868C67.1634 9.22857 67.8217 8.66428 68.6799 8.08822C69.5381 7.61797 70.4904 7.23002 71.5367 7.04192C72.583 6.85382 73.6293 6.75977 74.6756 6.75977C75.6279 6.75977 76.5801 6.85382 77.6264 6.94787C78.5787 7.04191 79.5309 7.32406 80.2951 7.71202C81.1533 8.08822 81.7176 8.66428 82.2936 9.33438C82.7639 10.0045 83.0578 10.9567 83.0578 12.0971V22.0899C83.0578 22.9481 83.1518 23.8063 83.2459 24.5587C83.3399 25.3229 83.6221 25.9812 83.916 26.3692H78.5904C78.4023 26.1811 78.3083 25.7931 78.2142 25.511C78.1202 25.2288 78.1202 24.8408 78.1202 24.5587C77.262 25.4169 76.3097 25.9812 75.1694 26.3692C74.029 26.7454 72.8886 26.8394 71.7483 26.8394C70.796 26.8394 70.0319 26.7454 69.1854 26.4632C68.4213 26.2751 67.7629 25.8872 67.0928 25.4169C66.5168 24.9467 66.0465 24.3706 65.6703 23.6064C65.3882 22.8423 65.2001 22.0899 65.2001 21.0436C65.2001 19.9973 65.3882 19.045 65.7761 18.3749C66.1523 17.7048 66.6343 17.1405 67.1986 16.6585C67.7747 16.2823 68.5271 15.8944 69.2912 15.7063C70.0554 15.5182 70.8078 15.3301 71.666 15.236C72.4302 15.142 73.1826 15.0479 73.9467 14.9539C74.7109 14.8598 75.3692 14.7658 75.9453 14.6717C76.5213 14.4836 76.9916 14.2955 77.3678 14.0016C77.744 13.7195 77.838 13.3315 77.838 12.7672C77.838 12.1911 77.744 11.7209 77.5559 11.4387C77.3678 11.1566 77.0856 10.8627 76.7917 10.6746C76.5096 10.4865 76.1216 10.3924 75.7454 10.2984C75.3692 10.2043 74.8872 10.2043 74.417 10.2043C73.3707 10.2043 72.6065 10.3924 72.0422 10.8744C71.4661 11.3447 71.09 12.1089 70.9959 13.0611H65.7644C65.7291 11.8855 66.1053 10.8392 66.5873 10.0868ZM76.9563 17.505C76.6742 17.599 76.2862 17.6931 75.91 17.7871C75.5338 17.8812 75.1458 17.8812 74.6756 17.9752C74.2994 18.0693 73.8174 18.0693 73.4412 18.1633C73.065 18.2574 72.677 18.3514 72.3008 18.4455C71.9246 18.5395 71.5367 18.7276 71.3486 18.9157C71.0664 19.1038 70.8783 19.386 70.6785 19.6799C70.3963 20.0561 70.3963 20.444 70.3963 20.9143C70.3963 21.3845 70.4904 21.7725 70.6785 22.0546C70.8666 22.3368 71.0547 22.6307 71.3486 22.8188C71.6307 23.0069 72.0187 23.1009 72.3949 23.195C72.7711 23.289 73.159 23.289 73.6293 23.289C74.6756 23.289 75.4398 23.1009 76.0041 22.8188C76.5801 22.4426 76.9563 22.0546 77.2385 21.5844C77.5206 21.1141 77.7087 20.6321 77.7087 20.1619C77.8028 19.6916 77.8028 19.3037 77.8028 19.0215V17.023C77.5206 17.2111 77.2385 17.4109 76.9563 17.505Z" fill="black"/>
<path d="M90.9344 7.23001V9.89868H91.0285C91.6986 8.75832 92.545 7.99417 93.5913 7.52392C94.6376 7.05367 95.778 6.75977 96.8243 6.75977C98.2468 6.75977 99.3872 6.94787 100.245 7.33582C101.198 7.71202 101.868 8.28808 102.338 8.95818C102.808 9.62829 103.196 10.4747 103.478 11.427C103.666 12.3792 103.76 13.4255 103.76 14.66V26.3574H98.5289V15.6122C98.5289 13.9898 98.2468 12.8495 97.7648 12.0971C97.2945 11.3329 96.4363 10.8627 95.0961 10.8627C93.6736 10.8627 92.6273 11.4387 91.9572 12.2852C91.2871 13.1434 91.005 14.5659 91.005 16.4704V26.4632H85.7734V7.23001C85.7969 7.23001 90.9344 7.23001 90.9344 7.23001Z" fill="black"/>
<path d="M115.481 10.6511C114.623 10.6511 113.965 10.8392 113.389 11.2272C112.813 11.6034 112.342 12.0854 111.966 12.7437C111.59 13.3198 111.39 13.9781 111.202 14.7423C111.014 15.5064 111.014 16.1648 111.014 16.9289C111.014 17.599 111.108 18.3514 111.202 19.0216C111.39 19.7857 111.578 20.35 111.966 20.9261C112.342 21.5021 112.73 21.9724 113.295 22.3486C113.871 22.7248 114.529 22.9246 115.387 22.9246C116.622 22.9246 117.574 22.5484 118.338 21.8783C119.008 21.2082 119.479 20.256 119.573 19.0216H124.616C124.24 21.5844 123.288 23.4889 121.665 24.8291C120.043 26.1576 117.95 26.8277 115.387 26.8277C113.965 26.8277 112.625 26.5455 111.484 26.0635C110.25 25.5933 109.298 24.9232 108.439 24.065C107.581 23.2068 106.923 22.1605 106.441 21.0201C105.971 19.7857 105.771 18.5513 105.771 17.117C105.771 15.6005 105.959 14.2603 106.441 13.0259C106.911 11.7915 107.487 10.6511 108.345 9.69886C109.204 8.74661 110.25 8.0765 111.39 7.5122C112.625 7.04195 113.953 6.74805 115.481 6.74805C116.622 6.74805 117.668 6.93615 118.714 7.2183C119.761 7.50045 120.713 7.98245 121.477 8.54675C122.335 9.1228 122.994 9.8752 123.476 10.8275C123.946 11.6857 124.24 12.826 124.334 14.0604H119.196C118.997 11.7915 117.762 10.6511 115.481 10.6511Z" fill="black"/>
<path d="M132.505 21.7843C133.269 22.5485 134.503 22.9247 135.926 22.9247C136.972 22.9247 137.924 22.6425 138.688 22.1605C139.452 21.5844 139.923 21.0201 140.111 20.4441H144.672C143.908 22.7248 142.768 24.3472 141.251 25.3935C139.735 26.3457 137.924 26.91 135.737 26.91C134.221 26.91 132.881 26.6279 131.646 26.1459C130.412 25.6756 129.46 25.0055 128.601 24.0533C127.743 23.1951 127.085 22.1487 126.697 20.9143C126.227 19.6799 126.027 18.3515 126.027 16.8232C126.027 15.4007 126.215 14.0605 126.697 12.8261C127.167 11.5917 127.837 10.5453 128.696 9.59309C129.554 8.73489 130.6 7.97073 131.74 7.50048C132.975 7.03023 134.303 6.73633 135.737 6.73633C137.36 6.73633 138.782 7.01848 139.923 7.68858C141.157 8.35869 142.109 9.11109 142.874 10.2514C143.638 11.2977 144.202 12.5322 144.59 13.8606C144.966 15.1891 145.06 16.6233 144.966 18.1399H131.176C131.176 19.5976 131.74 21.0201 132.505 21.7843ZM138.594 11.7915C137.924 11.1214 136.878 10.7452 135.643 10.7452C134.785 10.7452 134.127 10.9333 133.551 11.2155C132.975 11.4976 132.505 11.8856 132.222 12.2618C131.94 12.638 131.646 13.12 131.552 13.5902C131.458 14.0605 131.364 14.4484 131.364 14.8246H139.923C139.641 13.4139 139.159 12.4616 138.594 11.7915Z" fill="black"/>
</svg>
