<svg width="15" height="15" viewBox="0 0 15 15" fill="none" xmlns="http://www.w3.org/2000/svg">
<circle cx="7.73837" cy="7.07902" r="7.07902" transform="rotate(90 7.73837 7.07902)" fill="#F24822"/>
<path d="M6.49556 9.2921H10.3571V10.4916H4.90674L4.9383 9.93394C4.96636 9.35874 5.08561 8.84316 5.29605 8.38721C5.55559 7.81902 6.09221 7.34904 6.90591 6.97726L7.64245 6.59847C8.07736 6.38803 8.38601 6.17409 8.56839 5.95663C8.75077 5.73918 8.84196 5.46911 8.84196 5.14644C8.84196 4.80272 8.73323 4.53266 8.51578 4.33625C8.29832 4.13282 7.99669 4.03111 7.61089 4.03111C6.74808 4.03111 6.31668 4.48706 6.31668 5.39897H4.94883C4.94181 4.59228 5.16979 3.96447 5.63275 3.51553C6.10274 3.05958 6.77614 2.8316 7.65297 2.8316C8.45966 2.8316 9.09799 3.03503 9.56797 3.44188C10.038 3.84873 10.2729 4.38184 10.2729 5.04122C10.2729 5.60941 10.1151 6.09342 9.79946 6.49325C9.4838 6.88607 8.98225 7.25434 8.29482 7.59806L7.60036 7.96633C7.20754 8.17677 6.93047 8.37669 6.76913 8.56608C6.61481 8.74846 6.52362 8.99047 6.49556 9.2921Z" fill="white"/>
</svg>
