<svg width="11" height="9" viewBox="0 0 11 9" fill="none" xmlns="http://www.w3.org/2000/svg">
<path d="M5.38306 5.625C5.78088 5.625 6.16241 5.46696 6.44372 5.18566C6.72502 4.90436 6.88306 4.52282 6.88306 4.125C6.88306 3.72718 6.72502 3.34564 6.44372 3.06434C6.16241 2.78304 5.78088 2.625 5.38306 2.625C4.98523 2.625 4.6037 2.78304 4.3224 3.06434C4.04109 3.34564 3.88306 3.72718 3.88306 4.125C3.88306 4.52282 4.04109 4.90436 4.3224 5.18566C4.6037 5.46696 4.98523 5.625 5.38306 5.625Z" fill="#7F7F7F"/>
<path fill-rule="evenodd" clip-rule="evenodd" d="M0.0445945 3.8485C0.788595 1.613 2.89709 0 5.38359 0C7.86859 0 9.9761 1.6115 10.7211 3.845C10.7811 4.026 10.7811 4.221 10.7211 4.4015C9.9776 6.637 7.86859 8.25 5.38259 8.25C2.89759 8.25 0.789595 6.6385 0.0450945 4.405C-0.0150315 4.22437 -0.0150315 4.02913 0.0450945 3.8485H0.0445945ZM8.00809 4.125C8.00809 4.82119 7.73153 5.48887 7.23925 5.98116C6.74697 6.47344 6.07929 6.75 5.38309 6.75C4.6869 6.75 4.01922 6.47344 3.52694 5.98116C3.03466 5.48887 2.75809 4.82119 2.75809 4.125C2.75809 3.42881 3.03466 2.76113 3.52694 2.26884C4.01922 1.77656 4.6869 1.5 5.38309 1.5C6.07929 1.5 6.74697 1.77656 7.23925 2.26884C7.73153 2.76113 8.00809 3.42881 8.00809 4.125Z" fill="#7F7F7F"/>
</svg>
