<svg width="18" height="18" viewBox="0 0 18 18" fill="none" xmlns="http://www.w3.org/2000/svg">
<circle cx="9" cy="9" r="9" fill="#3F3F3F"/>
<path fill-rule="evenodd" clip-rule="evenodd" d="M7.90415 6.73922C6.93945 6.73922 6.15015 5.94992 6.15015 4.98522C6.15015 4.02076 6.93945 3.23154 7.90415 3.23154H11.398C12.3625 3.23154 13.1518 4.02076 13.1518 4.98522C13.1518 5.94992 12.3625 6.73922 11.398 6.73922H7.90415Z" fill="#070707"/>
<path fill-rule="evenodd" clip-rule="evenodd" d="M7.85785 10.7543H9.64351V7.24567H7.85785C7.37643 7.24567 6.93768 7.44285 6.61968 7.76086C6.30175 8.07887 6.10449 8.51793 6.10449 9.0009C6.10449 9.96503 6.89346 10.7543 7.85785 10.7543Z" fill="#070707"/>
<path fill-rule="evenodd" clip-rule="evenodd" d="M11.568 7.28162C10.5995 7.28162 9.81396 8.06676 9.81396 9.03562C9.81396 10.0042 10.5995 10.7893 11.568 10.7893C12.5365 10.7893 13.322 10.0042 13.322 9.03562C13.322 8.06674 12.5365 7.28162 11.568 7.28162Z" fill="#070707"/>
<path fill-rule="evenodd" clip-rule="evenodd" d="M9.64049 11.2545H7.82359V11.2581C6.88604 11.2931 6.13623 12.0622 6.13623 13.0085C6.13623 13.9771 6.92146 14.7623 7.88992 14.7623C8.82844 14.7623 9.59277 14.0245 9.63951 13.0977H9.64049V13.0778C9.64139 13.0547 9.64392 13.032 9.64392 13.0086C9.64392 12.9852 9.64139 12.9625 9.64049 12.939L9.64049 11.2545Z" fill="#070707"/>
</svg>
