<svg width="18" height="18" viewBox="0 0 18 18" fill="none" xmlns="http://www.w3.org/2000/svg">
<path d="M8.97928 0C6.59895 0.00364802 4.31715 0.949412 2.634 2.62998C0.95085 4.31055 0.00365362 6.58883 0 8.9655C0.00117049 11.0109 0.67894 12.9987 1.92798 14.62C3.17703 16.2413 4.9274 17.4052 6.90714 17.931V14.9655C6.52942 15.0481 6.13827 15.0481 5.76055 14.9655C5.20911 14.7939 4.74756 14.4124 4.47583 13.9035C4.39415 13.7186 4.266 13.558 4.10383 13.4371C3.94167 13.3163 3.75099 13.2394 3.55028 13.2138L3.39832 12.1517C3.80766 12.1608 4.2073 12.2779 4.55667 12.4911C4.90604 12.7043 5.19271 13.006 5.38758 13.3655C5.4492 13.5114 5.54154 13.6423 5.65834 13.7494C5.77514 13.8565 5.91364 13.9373 6.06447 13.9862C6.36897 14.0629 6.69056 14.0337 6.97621 13.9035C7.06103 13.4254 7.2707 12.9781 7.58405 12.6069C6.79507 12.5617 6.0347 12.2959 5.38981 11.8398C4.74493 11.3837 4.24153 10.7558 3.93708 10.0276C3.70943 9.37029 3.64581 8.66744 3.75173 7.98002C3.85765 7.2926 4.12991 6.64135 4.54491 6.08276C4.54491 6.08276 4.62779 6 4.54491 6C4.34264 5.22243 4.37144 4.4029 4.62779 3.64139C5.33862 3.7376 6.016 4.00246 6.60322 4.4138L6.90714 4.56551C6.90714 4.63447 6.90714 4.56551 7.0591 4.56551C7.6822 4.40786 8.32268 4.32911 8.96547 4.33105C9.60903 4.32383 10.2491 4.42646 10.858 4.6345H11.01C12.8335 3.48967 12.7644 3.87587 13.3032 3.72415C13.6011 4.44947 13.6256 5.258 13.3722 6C13.8149 6.56043 14.11 7.22256 14.2306 7.92606C14.3513 8.62955 14.2936 9.35205 14.0629 10.0276C13.7575 10.7578 13.2519 11.3871 12.6044 11.8434C11.9568 12.2996 11.1935 12.5643 10.4021 12.6069C10.625 12.8264 10.801 13.0886 10.9197 13.3778C11.0384 13.667 11.0973 13.9772 11.0929 14.2897V18C13.0692 17.4727 14.8165 16.3102 16.065 14.6922C17.3134 13.0742 17.9935 11.0907 18 9.04826C17.9856 6.66008 17.0319 4.37321 15.3445 2.68062C13.6571 0.988025 11.371 0.0252866 8.97928 0Z" fill="#3F3F3F"/>
</svg>
