<svg width="638" height="59" viewBox="0 0 638 59" fill="none" xmlns="http://www.w3.org/2000/svg">
<path d="M531.433 7.71737L535.436 20.8282H535.585L539.588 7.71737H544.43L538.39 25.618H532.63L526.591 7.71737H531.433ZM546.357 25.618V12.1925H550.631V25.618H546.357ZM548.499 10.628C547.899 10.628 547.383 10.4299 546.952 10.0336C546.52 9.63155 546.305 9.14791 546.305 8.58269C546.305 8.02329 546.52 7.54547 546.952 7.14923C547.383 6.74717 547.899 6.54613 548.499 6.54613C549.105 6.54613 549.62 6.74717 550.046 7.14923C550.477 7.54547 550.693 8.02329 550.693 8.58269C550.693 9.14791 550.477 9.63155 550.046 10.0336C549.62 10.4299 549.105 10.628 548.499 10.628ZM565.073 16.2919L561.149 16.3967C561.108 16.1171 560.997 15.8694 560.816 15.6538C560.636 15.4324 560.4 15.2605 560.108 15.1381C559.823 15.0099 559.491 14.9458 559.112 14.9458C558.617 14.9458 558.194 15.0449 557.845 15.243C557.501 15.4411 557.332 15.7092 557.338 16.0471C557.332 16.3093 557.437 16.5366 557.652 16.7289C557.874 16.9212 558.267 17.0756 558.832 17.1921L561.42 17.6816C562.76 17.938 563.756 18.3634 564.409 18.9577C565.067 19.5521 565.399 20.3387 565.405 21.3177C565.399 22.2384 565.126 23.0396 564.584 23.7213C564.047 24.4031 563.313 24.9334 562.381 25.3121C561.449 25.6851 560.382 25.8715 559.182 25.8715C557.265 25.8715 555.753 25.4782 554.646 24.6915C553.544 23.8991 552.915 22.8385 552.758 21.51L556.979 21.4051C557.073 21.8946 557.314 22.2675 557.705 22.5239C558.095 22.7803 558.593 22.9085 559.199 22.9085C559.747 22.9085 560.193 22.8065 560.537 22.6025C560.881 22.3986 561.055 22.1276 561.061 21.7897C561.055 21.4867 560.921 21.2448 560.659 21.0642C560.397 20.8777 559.986 20.7321 559.427 20.6272L557.084 20.1814C555.738 19.9367 554.736 19.4851 554.077 18.8266C553.419 18.1623 553.093 17.3174 553.098 16.2919C553.093 15.3945 553.332 14.6282 553.815 13.9931C554.299 13.3521 554.986 12.8626 555.878 12.5247C556.77 12.1867 557.821 12.0177 559.033 12.0177C560.851 12.0177 562.285 12.3994 563.334 13.1627C564.383 13.9203 564.962 14.9633 565.073 16.2919ZM576.171 19.823V12.1925H580.437V25.618H576.364V23.1182H576.224C575.927 23.9399 575.42 24.5925 574.703 25.0761C573.992 25.5539 573.133 25.7929 572.125 25.7929C571.21 25.7929 570.406 25.5831 569.712 25.1635C569.019 24.744 568.48 24.1584 568.095 23.4067C567.711 22.6492 567.515 21.7635 567.509 20.7495V12.1925H571.784V19.9105C571.789 20.6388 571.982 21.2128 572.361 21.6323C572.739 22.0519 573.255 22.2617 573.908 22.2617C574.333 22.2617 574.715 22.1684 575.053 21.982C575.396 21.7897 575.667 21.5129 575.865 21.1516C576.069 20.7845 576.171 20.3417 576.171 19.823ZM586.942 25.8453C586.085 25.8453 585.325 25.7025 584.661 25.417C584.002 25.1257 583.481 24.6886 583.096 24.1059C582.717 23.5174 582.528 22.7803 582.528 21.8946C582.528 21.1487 582.659 20.5194 582.921 20.0066C583.184 19.4938 583.545 19.0772 584.005 18.7567C584.465 18.4362 584.996 18.1944 585.596 18.0312C586.196 17.8622 586.837 17.7486 587.519 17.6904C588.282 17.6204 588.897 17.5476 589.363 17.4718C589.829 17.3903 590.167 17.2766 590.377 17.131C590.593 16.9795 590.7 16.7668 590.7 16.4929V16.4492C590.7 16.0005 590.546 15.6538 590.237 15.4091C589.928 15.1643 589.512 15.042 588.987 15.042C588.422 15.042 587.968 15.1643 587.624 15.4091C587.28 15.6538 587.061 15.9918 586.968 16.423L583.026 16.2831C583.143 15.4673 583.443 14.739 583.926 14.098C584.416 13.4512 585.086 12.9442 585.937 12.5771C586.793 12.2042 587.822 12.0177 589.022 12.0177C589.879 12.0177 590.668 12.1197 591.391 12.3236C592.113 12.5218 592.743 12.8131 593.279 13.1977C593.815 13.5765 594.229 14.0426 594.52 14.5962C594.817 15.1498 594.966 15.782 594.966 16.4929V25.618H590.945V23.7476H590.84C590.601 24.2021 590.295 24.5867 589.922 24.9013C589.555 25.216 589.121 25.452 588.62 25.6093C588.125 25.7666 587.565 25.8453 586.942 25.8453ZM588.262 23.0483C588.722 23.0483 589.136 22.9551 589.503 22.7686C589.876 22.5822 590.173 22.3258 590.394 21.9994C590.616 21.6673 590.727 21.2827 590.727 20.8457V19.5696C590.604 19.6337 590.456 19.6919 590.281 19.7444C590.112 19.7968 589.925 19.8464 589.721 19.893C589.517 19.9396 589.308 19.9804 589.092 20.0153C588.877 20.0503 588.67 20.0824 588.472 20.1115C588.069 20.1756 587.726 20.2746 587.44 20.4087C587.16 20.5427 586.945 20.7175 586.793 20.9331C586.648 21.1429 586.575 21.3934 586.575 21.6848C586.575 22.1276 586.732 22.4656 587.047 22.6987C587.367 22.9318 587.772 23.0483 588.262 23.0483ZM601.853 7.71737V25.618H597.579V7.71737H601.853ZM533.985 50.618H527.368V32.7174H533.976C535.8 32.7174 537.371 33.0757 538.687 33.7925C540.01 34.5034 541.03 35.5289 541.747 36.8691C542.463 38.2035 542.822 39.8001 542.822 41.659C542.822 43.5236 542.463 45.1261 541.747 46.4663C541.036 47.8065 540.019 48.835 538.696 49.5517C537.373 50.2626 535.803 50.618 533.985 50.618ZM531.695 46.9295H533.819C534.821 46.9295 535.669 46.7605 536.362 46.4226C537.062 46.0788 537.589 45.5223 537.945 44.7531C538.306 43.9781 538.486 42.9467 538.486 41.659C538.486 40.3712 538.306 39.3456 537.945 38.5823C537.583 37.8131 537.05 37.2595 536.345 36.9216C535.646 36.5778 534.783 36.4059 533.758 36.4059H531.695V46.9295ZM551.624 50.8715C550.219 50.8715 549.007 50.5947 547.987 50.0412C546.974 49.4818 546.193 48.6864 545.645 47.655C545.103 46.6178 544.832 45.3854 544.832 43.9577C544.832 42.5709 545.106 41.3589 545.654 40.3217C546.201 39.2786 546.974 38.4687 547.97 37.8918C548.966 37.3091 550.141 37.0177 551.492 37.0177C552.448 37.0177 553.322 37.1663 554.115 37.4635C554.907 37.7607 555.592 38.2006 556.169 38.7833C556.745 39.366 557.194 40.0857 557.515 40.9422C557.835 41.793 557.995 42.769 557.995 43.8703V44.9367H546.327V42.4544H554.018C554.013 41.9998 553.905 41.5949 553.695 41.2394C553.485 40.884 553.197 40.6072 552.83 40.4091C552.468 40.2051 552.052 40.1031 551.58 40.1031C551.102 40.1031 550.674 40.2109 550.295 40.4265C549.916 40.6363 549.616 40.9248 549.395 41.2919C549.173 41.6531 549.057 42.0639 549.045 42.5243V45.0503C549.045 45.598 549.153 46.0788 549.368 46.4925C549.584 46.9004 549.89 47.218 550.286 47.4452C550.682 47.6725 551.154 47.7861 551.702 47.7861C552.081 47.7861 552.425 47.7337 552.734 47.6288C553.042 47.5239 553.308 47.3695 553.529 47.1655C553.75 46.9616 553.916 46.711 554.027 46.4138L557.952 46.5275C557.789 47.4073 557.43 48.1736 556.877 48.8262C556.329 49.473 555.609 49.9771 554.718 50.3383C553.826 50.6938 552.795 50.8715 551.624 50.8715ZM571.899 41.2919L567.975 41.3967C567.934 41.1171 567.823 40.8694 567.643 40.6538C567.462 40.4324 567.226 40.2605 566.935 40.1381C566.649 40.0099 566.317 39.9458 565.938 39.9458C565.443 39.9458 565.021 40.0449 564.671 40.243C564.327 40.4411 564.158 40.7092 564.164 41.0471C564.158 41.3093 564.263 41.5366 564.479 41.7289C564.7 41.9212 565.093 42.0756 565.659 42.1921L568.246 42.6816C569.586 42.938 570.583 43.3634 571.235 43.9577C571.894 44.5521 572.226 45.3387 572.232 46.3177C572.226 47.2384 571.952 48.0396 571.41 48.7213C570.874 49.4031 570.14 49.9334 569.207 50.3121C568.275 50.6851 567.209 50.8715 566.008 50.8715C564.091 50.8715 562.579 50.4782 561.472 49.6915C560.371 48.8991 559.741 47.8385 559.584 46.51L563.806 46.4051C563.899 46.8946 564.141 47.2675 564.531 47.5239C564.922 47.7803 565.42 47.9085 566.026 47.9085C566.574 47.9085 567.019 47.8065 567.363 47.6025C567.707 47.3986 567.882 47.1276 567.888 46.7897C567.882 46.4867 567.748 46.2448 567.485 46.0642C567.223 45.8777 566.812 45.7321 566.253 45.6272L563.911 45.1814C562.565 44.9367 561.562 44.4851 560.904 43.8266C560.245 43.1623 559.919 42.3174 559.925 41.2919C559.919 40.3945 560.158 39.6282 560.642 38.9931C561.125 38.3521 561.813 37.8626 562.704 37.5247C563.596 37.1867 564.648 37.0177 565.86 37.0177C567.678 37.0177 569.111 37.3994 570.16 38.1627C571.209 38.9203 571.789 39.9633 571.899 41.2919ZM574.336 50.618V37.1925H578.61V50.618H574.336ZM576.477 35.628C575.877 35.628 575.361 35.4299 574.93 35.0336C574.499 34.6316 574.283 34.1479 574.283 33.5827C574.283 33.0233 574.499 32.5455 574.93 32.1492C575.361 31.7472 575.877 31.5461 576.477 31.5461C577.083 31.5461 577.599 31.7472 578.024 32.1492C578.456 32.5455 578.671 33.0233 578.671 33.5827C578.671 34.1479 578.456 34.6316 578.024 35.0336C577.599 35.4299 577.083 35.628 576.477 35.628ZM587.589 55.9323C586.313 55.9323 585.22 55.7546 584.311 55.3991C583.402 55.0437 582.688 54.5571 582.17 53.9395C581.651 53.3218 581.339 52.6225 581.234 51.8417L585.281 51.6145C585.357 51.8883 585.497 52.1272 585.701 52.3312C585.911 52.5351 586.182 52.6925 586.514 52.8032C586.852 52.9139 587.248 52.9693 587.702 52.9693C588.419 52.9693 589.011 52.7944 589.477 52.4448C589.949 52.101 590.185 51.4979 590.185 50.6355V48.2756H590.036C589.867 48.6893 589.611 49.0593 589.267 49.3856C588.923 49.7119 588.495 49.9683 587.982 50.1548C587.475 50.3413 586.892 50.4345 586.234 50.4345C585.255 50.4345 584.358 50.2072 583.542 49.7527C582.732 49.2924 582.082 48.5815 581.593 47.62C581.109 46.6527 580.867 45.4087 580.867 43.8878C580.867 42.3203 581.118 41.0296 581.619 40.0157C582.12 38.996 582.776 38.2414 583.586 37.7519C584.401 37.2625 585.278 37.0177 586.216 37.0177C586.922 37.0177 587.525 37.1401 588.026 37.3848C588.533 37.6237 588.949 37.9326 589.276 38.3113C589.602 38.6901 589.85 39.0834 590.019 39.4913H590.141V37.1925H594.398V50.6705C594.398 51.8068 594.112 52.7653 593.541 53.5461C592.97 54.327 592.172 54.9184 591.146 55.3205C590.121 55.7284 588.935 55.9323 587.589 55.9323ZM587.72 47.3229C588.238 47.3229 588.681 47.1859 589.048 46.912C589.416 46.6382 589.698 46.2448 589.896 45.7321C590.094 45.2193 590.193 44.6045 590.193 43.8878C590.193 43.1594 590.094 42.533 589.896 42.0086C589.704 41.4783 589.421 41.0704 589.048 40.7849C588.681 40.4994 588.238 40.3566 587.72 40.3566C587.19 40.3566 586.741 40.5023 586.374 40.7936C586.007 41.085 585.727 41.4958 585.535 42.0261C585.348 42.5505 585.255 43.1711 585.255 43.8878C585.255 44.6045 585.351 45.2193 585.543 45.7321C585.736 46.2448 586.013 46.6382 586.374 46.912C586.741 47.1859 587.19 47.3229 587.72 47.3229ZM601.397 42.9613V50.618H597.123V37.1925H601.187V39.6574H601.335C601.633 38.8358 602.14 38.1919 602.856 37.7257C603.573 37.2537 604.427 37.0177 605.417 37.0177C606.361 37.0177 607.18 37.2304 607.873 37.6558C608.573 38.0753 609.115 38.6639 609.499 39.4214C609.89 40.1731 610.082 41.053 610.076 42.061V50.618H605.802V42.9001C605.808 42.1543 605.618 41.5716 605.234 41.152C604.855 40.7325 604.328 40.5227 603.652 40.5227C603.203 40.5227 602.807 40.6218 602.463 40.8199C602.125 41.0122 601.863 41.2889 601.676 41.6502C601.496 42.0115 601.402 42.4485 601.397 42.9613ZM618.998 50.8715C617.594 50.8715 616.382 50.5947 615.362 50.0412C614.348 49.4818 613.567 48.6864 613.019 47.655C612.477 46.6178 612.207 45.3854 612.207 43.9577C612.207 42.5709 612.48 41.3589 613.028 40.3217C613.576 39.2786 614.348 38.4687 615.344 37.8918C616.341 37.3091 617.515 37.0177 618.867 37.0177C619.822 37.0177 620.697 37.1663 621.489 37.4635C622.281 37.7607 622.966 38.2006 623.543 38.7833C624.12 39.366 624.569 40.0857 624.889 40.9422C625.21 41.793 625.37 42.769 625.37 43.8703V44.9367H613.701V42.4544H621.393C621.387 41.9998 621.279 41.5949 621.069 41.2394C620.86 40.884 620.571 40.6072 620.204 40.4091C619.843 40.2051 619.426 40.1031 618.954 40.1031C618.476 40.1031 618.048 40.2109 617.669 40.4265C617.291 40.6363 616.991 40.9248 616.769 41.2919C616.548 41.6531 616.431 42.0639 616.419 42.5243V45.0503C616.419 45.598 616.527 46.0788 616.743 46.4925C616.958 46.9004 617.264 47.218 617.661 47.4452C618.057 47.6725 618.529 47.7861 619.077 47.7861C619.455 47.7861 619.799 47.7337 620.108 47.6288C620.417 47.5239 620.682 47.3695 620.903 47.1655C621.125 46.9616 621.291 46.711 621.402 46.4138L625.326 46.5275C625.163 47.4073 624.805 48.1736 624.251 48.8262C623.703 49.473 622.984 49.9771 622.092 50.3383C621.201 50.6938 620.169 50.8715 618.998 50.8715ZM627.553 50.618V37.1925H631.705V39.6399H631.844C632.089 38.7542 632.488 38.0957 633.042 37.6645C633.595 37.2275 634.239 37.009 634.974 37.009C635.172 37.009 635.376 37.0236 635.585 37.0527C635.795 37.076 635.99 37.1139 636.171 37.1663V40.8811C635.967 40.8111 635.699 40.7558 635.367 40.715C635.041 40.6742 634.749 40.6538 634.493 40.6538C633.986 40.6538 633.528 40.7674 633.121 40.9947C632.718 41.2161 632.401 41.5279 632.168 41.9299C631.941 42.3262 631.827 42.7923 631.827 43.3284V50.618H627.553Z" fill="#A2A2A2"/>
<path fill-rule="evenodd" clip-rule="evenodd" d="M495.122 58.449C504.116 58.449 511.408 51.1575 511.408 42.1629V16.2861C511.408 7.29155 504.116 9.36064e-06 495.122 8.57428e-06L397.043 0C388.049 -7.86327e-07 380.757 7.29154 380.757 16.2861V19.7081L361.297 30.9436L380.757 42.1791C380.766 51.1662 388.054 58.449 397.043 58.449L495.122 58.449Z" fill="url(#paint0_linear_1104_437)"/>
<path d="M408.82 42.7506C405.717 42.7506 403.217 41.9134 401.32 40.2392C399.422 38.6095 398.473 36.2432 398.473 33.1402V18.373H404.132V33.2072C404.132 34.7252 404.534 35.886 405.338 36.6897C406.164 37.471 407.325 37.8617 408.82 37.8617C410.316 37.8617 411.477 37.471 412.303 36.6897C413.129 35.886 413.542 34.7252 413.542 33.2072V18.373H419.201V33.1402C419.201 36.1986 418.275 38.5649 416.422 40.2392C414.591 41.9134 412.057 42.7506 408.82 42.7506ZM441.815 18.373L434.08 29.9926L442.317 42.2148H435.754L433.778 39.2346C432.841 37.8282 431.814 36.2432 430.698 34.4796C430.363 35.0377 429.347 36.6227 427.651 39.2346L425.675 42.2148H419.246L427.517 30.093L419.748 18.373H426.278L428.086 21.1524C428.108 21.2193 429.035 22.6927 430.865 25.5725C431.914 23.8535 432.841 22.3802 433.645 21.1524L435.486 18.373H441.815ZM457.548 35.0154H447.436V30.6288H457.548V35.0154ZM472.809 42.7506C469.706 42.7506 467.206 41.9134 465.309 40.2392C463.411 38.6095 462.462 36.2432 462.462 33.1402V18.373H468.121V33.2072C468.121 34.7252 468.523 35.886 469.327 36.6897C470.153 37.471 471.314 37.8617 472.809 37.8617C474.305 37.8617 475.466 37.471 476.292 36.6897C477.118 35.886 477.531 34.7252 477.531 33.2072V18.373H483.19V33.1402C483.19 36.1986 482.263 38.5649 480.411 40.2392C478.58 41.9134 476.046 42.7506 472.809 42.7506ZM491.127 42.2148H485.468V18.373H491.127V42.2148Z" fill="#0D0D0D"/>
<path d="M112.028 42.132C111.968 41.8428 111.875 41.5708 111.73 41.3157L108.132 35.0214C108.362 34.0861 108.285 33.2183 107.869 32.4868L106.329 29.7991C106.312 29.7737 106.287 29.7564 106.27 29.731C105.929 29.1782 105.411 28.7529 104.739 28.4638C104.662 28.0813 104.602 27.6897 104.602 27.3071C104.594 25.6143 104.849 23.9219 105.377 22.2719C106.797 17.8063 106.142 12.9837 103.573 9.05376C99.4313 2.73412 90.2541 0.284471 83.5177 3.72091C79.6645 5.68588 76.8749 9.03694 75.6502 13.1622C74.4253 17.2875 74.9442 21.6168 77.0963 25.3509C79.3247 29.2124 83.1097 31.9255 87.4735 32.8105C89.0809 33.1334 90.612 33.7289 92.0326 34.5795C92.3388 34.7579 92.6278 34.9878 92.9004 35.2259C92.798 35.9662 92.9004 36.6462 93.2233 37.2247C93.2321 37.2502 93.2321 37.2756 93.2488 37.3011L94.7884 39.9887C95.2052 40.7202 95.9197 41.2303 96.8469 41.5026L100.445 47.7969C100.598 48.0604 100.794 48.2903 101.023 48.4857C103.413 50.7735 106.696 53.1465 111.043 55.7581C111.29 55.9026 111.562 55.9792 111.834 55.9792C112.097 55.9792 112.361 55.911 112.608 55.7665C113.101 55.4858 113.382 54.9757 113.374 54.4059C113.253 49.0385 112.828 45.1344 112.028 42.132H112.028ZM110.803 41.8513C111.16 42.4637 111.05 43.3485 110.514 44.2839C110.454 44.3944 110.369 44.4965 110.292 44.5989L106.473 37.922C106.882 37.4713 107.239 36.9948 107.52 36.5017C107.562 36.4336 107.588 36.3572 107.63 36.2891L110.803 41.8513ZM105.139 48.0435L101.251 41.2476C102.859 40.7287 104.441 39.8273 105.7 38.7044L109.587 45.4918C108.43 46.7083 106.771 47.6609 105.139 48.0435ZM93.9624 36.1946C94.7191 36.824 95.655 37.096 96.6501 37.096C98.1385 37.096 99.7463 36.5263 101.022 35.8117C103.318 34.5105 105.377 32.2226 105.07 29.9173C105.275 30.1132 105.436 30.3425 105.538 30.6061C105.819 31.3376 105.649 32.2902 105.07 33.2937C103.591 35.8711 99.9502 37.972 96.9563 37.972C95.7741 37.972 94.8469 37.6319 94.3453 37.0112C94.1408 36.7731 94.0218 36.5008 93.9624 36.1946ZM87.6853 31.7719C83.6195 30.9468 80.0899 28.4121 78.0145 24.8229C76.0073 21.3442 75.5308 17.3125 76.6707 13.4683C77.8105 9.62379 80.413 6.50221 84.0026 4.67356C85.9335 3.6868 88.0852 3.21923 90.2455 3.21923C95.1022 3.21923 100.018 5.56675 102.681 9.64935C105.071 13.3153 105.683 17.7977 104.365 21.9653C103.812 23.7175 103.531 25.5204 103.548 27.3236C103.557 28.1913 103.761 28.9992 103.965 29.7816C104.45 31.6698 102.511 33.7538 100.503 34.8933C98.462 36.0498 95.808 36.6029 94.4555 35.2335C93.9112 34.6807 93.3157 34.1022 92.6015 33.6769C91.054 32.7591 89.4122 32.1212 87.6857 31.7725L87.6853 31.7719ZM95.7059 39.4526L95.3315 38.7974C95.825 38.9419 96.3526 39.0355 96.9478 39.0355C100.282 39.0355 104.339 36.6968 105.989 33.8217C106.27 33.337 106.465 32.8608 106.584 32.3929L106.942 33.022C107.376 33.7877 107.257 34.834 106.602 35.982C106.321 36.4666 105.964 36.9428 105.547 37.3768C105.471 37.4195 105.411 37.4871 105.368 37.5552C104.059 38.8738 102.239 39.9197 100.427 40.3877C100.342 40.3877 100.257 40.4043 100.18 40.447C99.6018 40.5749 99.0321 40.6512 98.479 40.6512C98.0625 40.6512 97.6881 40.6085 97.3479 40.5234C97.331 40.5149 97.3052 40.5149 97.2883 40.5067C96.5565 40.3371 96.0037 39.9715 95.7059 39.4526ZM98.1897 41.7065C98.2921 41.7065 98.3857 41.7232 98.4875 41.7232C99.0403 41.7232 99.61 41.6553 100.188 41.5363L104.016 48.2216C103.897 48.2301 103.778 48.247 103.667 48.247C102.842 48.247 102.162 48.0429 101.728 47.6773C101.584 47.5582 101.465 47.4137 101.371 47.2605L98.1897 41.7065ZM103.659 49.3102C106.074 49.3102 108.923 47.8727 110.616 45.9335C110.633 45.9168 110.659 45.8908 110.667 45.8741C110.956 45.5337 111.22 45.1765 111.433 44.8109C111.458 44.7682 111.475 44.7346 111.492 44.6919C111.807 46.4608 112.028 48.5278 112.164 50.9435C111.33 51.93 109.893 52.7551 108.626 52.9847C106.669 51.7089 104.985 50.484 103.548 49.3017C103.591 49.3017 103.625 49.3102 103.659 49.3102ZM112.071 54.8388C112.003 54.8815 111.807 54.9663 111.595 54.8388C110.991 54.4729 110.412 54.1158 109.851 53.7671C110.71 53.4609 111.552 52.9759 112.249 52.3804C112.275 53.0356 112.3 53.7156 112.309 54.4217C112.309 54.6773 112.139 54.7964 112.071 54.8388Z" fill="#666666"/>
<path d="M98.045 33.6006C98.1386 33.6006 98.2322 33.5751 98.3173 33.5242C98.5727 33.3797 98.6575 33.048 98.5045 32.7927C98.3258 32.4865 94.4132 25.8693 91.0367 23.5218L91.496 23.2582C91.6832 23.1478 91.7853 22.9352 91.7595 22.7226L91.5811 21.5149L92.5337 21.4723C92.6867 21.4636 92.823 21.3959 92.9163 21.2765C93.0099 21.1574 93.0526 21.0129 93.0353 20.8598L92.8397 19.4478L93.2222 19.7031C93.3752 19.8053 93.5624 19.8136 93.7323 19.7458C93.8344 19.7031 93.9195 19.6268 93.9704 19.5332C95.3653 23.6752 98.8017 29.8421 99.3033 30.7354C99.4478 30.9907 99.7713 31.0843 100.026 30.9395C100.281 30.795 100.375 30.4715 100.23 30.2165C97.8573 25.9977 94.2676 18.7507 94.4466 16.7609L94.472 16.5909C94.5147 16.3102 94.3275 16.038 94.0468 15.9871C93.766 15.9362 93.494 16.1148 93.4258 16.3955C93.417 16.4551 93.4004 16.506 93.4004 16.5741L93.1196 18.3686L92.4474 17.9261C92.269 17.8157 92.0479 17.8071 91.8692 17.9261C91.6908 18.0366 91.5972 18.241 91.6311 18.445L91.9119 20.4353L90.9592 20.478C90.8061 20.4866 90.6698 20.5544 90.5766 20.6738C90.483 20.7928 90.4404 20.9373 90.4576 21.0904L90.6702 22.5279L89.7347 23.0636C89.5648 23.1658 89.4626 23.3444 89.4712 23.5398C89.4798 23.7355 89.5902 23.9141 89.7688 23.9991C93.0008 25.5642 97.5513 33.2613 97.594 33.3382C97.6879 33.5073 97.8584 33.6006 98.045 33.6006Z" fill="#666666"/>
<path d="M332.223 10.4792L332.214 5.65158C332.214 4.516 331.798 3.65762 331.041 3.22377C331.032 3.22377 331.032 3.22377 331.023 3.21442C331.023 3.21442 331.013 3.21442 331.013 3.20506L325.973 0.278772C325.216 -0.155124 324.229 -0.0811784 323.25 0.491253L296.296 16.0453C295.484 16.5162 294.754 17.2454 294.172 18.1408C293.997 18.3992 293.84 18.6763 293.692 18.9993C293.258 19.8853 293.028 20.7995 293.018 21.6579C293.009 21.6856 293 21.7132 293 21.7408L293.083 52.7378C293.092 53.8548 293.507 54.7132 294.255 55.1563L299.295 58.0733C299.305 58.0826 299.314 58.0914 299.323 58.1008C299.646 58.2853 300.015 58.378 300.403 58.378C300.92 58.378 301.474 58.2119 302.046 57.8887L329 42.3262C330.856 41.2551 332.295 38.7537 332.295 36.6306L332.223 10.4792ZM299.25 28.517L299.241 24.6863C299.241 24.6493 299.241 24.6217 299.231 24.5847C299.231 24.5019 299.25 24.4092 299.268 24.2987C299.342 23.4866 299.675 22.5725 300.219 21.7328C300.699 20.9852 301.308 20.3758 301.955 20.0065L328.899 4.44274C329.102 4.32288 329.296 4.24894 329.481 4.19369C329.721 4.11975 329.942 4.09213 330.145 4.11975C330.182 4.12911 330.21 4.14736 330.247 4.15672C330.321 4.175 330.385 4.19369 330.45 4.23066L330.468 4.24002H330.477C330.856 4.46143 331.059 4.96927 331.059 5.66149L331.068 10.1568L326.434 12.8336L325.613 11.3288C325.539 11.1903 325.41 11.0887 325.262 11.0517C325.114 11.0054 324.948 11.0335 324.819 11.107L321.043 13.2853C320.924 13.3593 320.831 13.4697 320.785 13.6083L319.779 16.6821L299.25 28.517ZM294.736 19.5077C294.865 19.2306 294.994 18.9998 295.142 18.7784C295.623 18.0309 296.232 17.4215 296.878 17.0522L323.832 1.4982C324.442 1.13825 325.014 1.0643 325.392 1.28572L328.743 3.23331C328.632 3.27964 328.512 3.34422 328.402 3.40883C328.373 3.41819 328.346 3.42711 328.318 3.4458C328.309 3.4458 328.309 3.45516 328.3 3.45516L301.374 18.9994C300.562 19.4703 299.833 20.1995 299.251 21.1038C298.605 22.1008 298.208 23.1994 298.124 24.1501C298.097 24.3255 298.078 24.5007 298.078 24.6761C298.078 24.7131 298.078 24.7501 298.088 24.7871L298.097 27.5285H298.088V28.5068L294.183 26.2362L294.174 21.7498C294.174 21.058 294.377 20.2642 294.737 19.5073L294.736 19.5077ZM294.247 52.7383L294.182 27.5659L298.096 29.8458L298.17 55.6916C298.17 55.8483 298.198 55.9776 298.217 56.1256L294.856 54.1873C294.468 53.9475 294.256 53.4304 294.247 52.7383ZM328.429 41.3378L301.475 56.9007C300.866 57.2514 300.303 57.3251 299.924 57.1221C299.915 57.1221 299.915 57.1128 299.915 57.1128L299.887 57.0943C299.527 56.8636 299.324 56.3745 299.324 55.6913L299.25 29.8628L320.555 17.5672C320.675 17.4932 320.768 17.3827 320.814 17.2442L321.82 14.1704L324.893 12.3983L325.715 13.9031C325.789 14.0416 325.918 14.1432 326.066 14.1802C326.213 14.2265 326.38 14.1984 326.509 14.1249L331.078 11.485L331.152 36.6487C331.152 38.3375 329.906 40.4882 328.429 41.3373L328.429 41.3378Z" fill="#666666"/>
<path d="M303.968 21.1866C303.534 20.9375 302.971 20.9741 302.426 21.2788C301.503 21.8142 300.783 23.0603 300.783 24.1312C300.783 24.7495 301.032 25.2481 301.475 25.4975C301.669 25.6084 301.891 25.6637 302.121 25.6637C302.407 25.6637 302.721 25.5715 303.017 25.4053C303.94 24.8698 304.66 23.6238 304.66 22.5529C304.651 21.9341 304.401 21.4356 303.968 21.1866ZM302.436 24.3989C302.242 24.5098 302.103 24.5281 302.048 24.4911C301.993 24.4635 301.937 24.3343 301.937 24.1218C301.937 23.4665 302.436 22.608 303.008 22.2757C303.147 22.2018 303.257 22.1648 303.331 22.1648C303.359 22.1648 303.386 22.1741 303.396 22.1831C303.451 22.2107 303.506 22.3399 303.506 22.5524C303.506 23.2081 303.008 24.0759 302.436 24.3989Z" fill="#666666"/>
<path d="M308.362 18.6486C307.918 18.3902 307.355 18.4272 306.811 18.7408C305.888 19.2763 305.168 20.5223 305.168 21.5932C305.168 22.2116 305.417 22.7101 305.86 22.9595C306.054 23.0705 306.275 23.1257 306.506 23.1257C306.792 23.1257 307.106 23.0335 307.402 22.8673C308.334 22.3319 309.054 21.0765 309.054 20.0149C309.045 19.4055 308.796 18.907 308.362 18.6486ZM306.82 21.8698C306.626 21.9807 306.488 21.999 306.432 21.9621C306.377 21.9344 306.321 21.8052 306.321 21.5927C306.321 20.9374 306.82 20.079 307.392 19.7467C307.531 19.6727 307.641 19.6357 307.715 19.6357C307.743 19.6357 307.771 19.6451 307.789 19.654C307.844 19.6816 307.9 19.8108 307.9 20.0233C307.9 20.679 307.392 21.5375 306.82 21.8698Z" fill="#666666"/>
<path d="M312.745 16.1192C312.302 15.8701 311.739 15.8977 311.195 16.2114C310.272 16.7469 309.552 17.9928 309.561 19.0544C309.561 19.6728 309.81 20.1807 310.253 20.4297C310.447 20.5406 310.659 20.5958 310.89 20.5958C311.176 20.5958 311.481 20.513 311.785 20.3375C312.718 19.802 313.438 18.5466 313.438 17.485C313.429 16.8667 313.179 16.3686 312.745 16.1192ZM311.204 19.3408C310.992 19.4607 310.862 19.4607 310.825 19.433C310.788 19.4148 310.714 19.3039 310.714 19.0544C310.714 18.3991 311.204 17.5407 311.776 17.2172C311.97 17.1063 312.118 17.088 312.173 17.125C312.228 17.1526 312.284 17.2818 312.284 17.4943C312.284 18.1407 311.776 19.0085 311.204 19.3408Z" fill="#666666"/>
<path d="M322.476 22.1929C320.408 21.0022 317.703 21.2511 314.86 22.8945C309.239 26.1438 304.679 34.036 304.697 40.507C304.707 43.7468 305.842 46.1929 307.891 47.3654C308.75 47.8638 309.719 48.104 310.762 48.104C312.23 48.104 313.836 47.6237 315.498 46.6638C321.119 43.4146 325.688 35.5224 325.67 29.0613C325.67 25.8116 324.525 23.3747 322.476 22.1933V22.1929ZM314.925 45.657C312.451 47.0785 310.162 47.328 308.473 46.3587C306.793 45.3894 305.86 43.3128 305.851 40.4973C305.833 34.4048 310.134 26.9558 315.433 23.8912C317.906 22.4697 320.196 22.2202 321.894 23.1895C323.575 24.1589 324.507 26.2451 324.516 29.0605C324.534 35.1524 320.233 42.6017 314.925 45.6567V45.657Z" fill="#666666"/>
<path d="M315.487 28.1005C315.81 28.1005 316.069 27.8421 316.069 27.5191V26.2085C316.069 25.8944 315.81 25.636 315.487 25.636C315.173 25.636 314.915 25.8944 314.915 26.2174V27.528C314.915 27.8421 315.174 28.1005 315.487 28.1005Z" fill="#666666"/>
<path d="M315.524 41.0336C315.201 41.0336 314.942 41.2919 314.942 41.6148V42.9254C314.942 43.2396 315.201 43.4978 315.524 43.4978C315.838 43.4978 316.096 43.2396 316.096 42.9167V41.606C316.106 41.2919 315.847 41.0336 315.524 41.0336Z" fill="#666666"/>
<path d="M311.906 30.4081C312.017 30.5649 312.192 30.6479 312.377 30.6479C312.497 30.6479 312.608 30.6111 312.71 30.5371C312.968 30.3528 313.032 29.9925 312.848 29.7339L312.276 28.9308C312.091 28.6724 311.731 28.6078 311.473 28.7922C311.214 28.9767 311.15 29.337 311.334 29.5953L311.906 30.4081Z" fill="#666666"/>
<path d="M319.023 38.4019C318.838 38.1436 318.478 38.079 318.22 38.2632C317.961 38.4478 317.897 38.8081 318.081 39.0667L318.653 39.8698C318.764 40.0266 318.94 40.11 319.124 40.11C319.244 40.11 319.355 40.0728 319.457 39.9988C319.715 39.8146 319.78 39.4542 319.595 39.1957L319.023 38.4019Z" fill="#666666"/>
<path d="M308.665 35.1992L309.653 35.2819H309.699C309.994 35.2819 310.244 35.0512 310.271 34.7557C310.299 34.4419 310.059 34.1559 309.745 34.1281L308.758 34.0453C308.435 34.0082 308.158 34.2576 308.13 34.5715C308.111 34.8944 308.342 35.1714 308.665 35.1992Z" fill="#666666"/>
<path d="M321.386 35.1348L320.398 35.052C320.084 35.0148 319.798 35.2643 319.771 35.5782C319.743 35.892 319.983 36.1781 320.297 36.2058L321.284 36.2886H321.331C321.626 36.2886 321.875 36.0579 321.903 35.7624C321.94 35.4395 321.7 35.1626 321.386 35.1348Z" fill="#666666"/>
<path d="M309.552 38.3748C309.395 38.0975 309.044 38.0054 308.767 38.1622L307.623 38.827C307.346 38.9838 307.253 39.3347 307.41 39.6114C307.521 39.796 307.715 39.8975 307.909 39.8975C308.01 39.8975 308.102 39.8697 308.195 39.8235L309.339 39.159C309.616 39.0025 309.718 38.6518 309.552 38.3748Z" fill="#666666"/>
<path d="M322.17 30.4273L321.026 31.0921C320.749 31.2489 320.657 31.5998 320.814 31.8765C320.924 32.0611 321.118 32.1626 321.312 32.1626C321.414 32.1626 321.506 32.1348 321.598 32.0886L322.743 31.424C323.02 31.267 323.112 30.916 322.955 30.6393C322.807 30.3629 322.457 30.2611 322.17 30.4273Z" fill="#666666"/>
<path d="M309.597 41.2086L308.61 42.4364C308.406 42.6853 308.453 43.046 308.692 43.2487C308.803 43.3314 308.923 43.3777 309.052 43.3777C309.219 43.3777 309.385 43.3037 309.505 43.1653L310.492 41.9375C310.695 41.6886 310.649 41.3282 310.409 41.1255C310.16 40.9228 309.8 40.9597 309.597 41.2086Z" fill="#666666"/>
<path d="M320.648 28.9685C320.814 28.9685 320.98 28.8946 321.1 28.756L322.087 27.5283C322.29 27.2792 322.244 26.9189 322.004 26.7162C321.755 26.5131 321.395 26.55 321.192 26.799L320.205 28.0268C320.001 28.2762 320.038 28.6362 320.287 28.8393C320.389 28.9222 320.518 28.9685 320.648 28.9685Z" fill="#666666"/>
<path d="M312.627 42.1131C312.331 41.9932 311.999 42.1499 311.879 42.4453L311.316 43.913C311.205 44.2084 311.353 44.5407 311.648 44.6606C311.713 44.6881 311.787 44.6975 311.852 44.6975C312.082 44.6975 312.304 44.5591 312.387 44.3284L312.95 42.8604C313.07 42.5562 312.922 42.2239 312.627 42.1131Z" fill="#666666"/>
<path d="M318.312 27.4358C318.376 27.4634 318.45 27.4728 318.515 27.4728C318.745 27.4728 318.967 27.3342 319.05 27.1035L319.613 25.6356C319.724 25.3403 319.576 25.0079 319.281 24.8881C318.986 24.7683 318.653 24.9251 318.533 25.2204L317.97 26.6882C317.859 26.993 318.007 27.3253 318.312 27.4358Z" fill="#666666"/>
<path d="M315.875 34.4799L315.884 31.0921C315.884 30.6952 315.579 30.3997 315.21 30.455C314.831 30.51 314.518 30.8794 314.518 31.2857L314.499 34.6735C313.964 35.0242 313.604 35.6519 313.604 36.3445C313.604 37.2951 314.305 37.9599 315.191 37.8306C316.069 37.7107 316.77 36.8429 316.779 35.8923C316.77 35.2091 316.41 34.6826 315.875 34.4799Z" fill="#666666"/>
<path d="M256.586 37.47L256.503 8.99992L256.493 6.1333C256.493 4.87582 256.031 3.91422 255.199 3.43319C255.181 3.42383 255.162 3.41488 255.144 3.40552L249.836 0.308207C248.995 -0.172825 247.922 -0.0893823 246.812 0.548717L228.698 11.0156C226.618 12.2177 224.991 15.0379 225 17.4329L225.092 52.3663C225.092 53.6237 225.555 54.5854 226.378 55.0665L231.74 58.1917C231.75 58.2014 231.768 58.2014 231.787 58.2014C232.138 58.3953 232.527 58.4971 232.942 58.4971C233.516 58.4971 234.135 58.3122 234.764 57.9513L252.878 47.4935C254.968 46.2914 256.595 43.4622 256.586 41.0673V37.47ZM234.062 15.5462C234.256 15.3891 234.45 15.2503 234.653 15.1302L250.937 5.73573L252.767 4.68173C252.795 4.66298 252.823 4.65406 252.851 4.63531C253.008 4.5523 253.156 4.47824 253.304 4.42247C253.322 4.41311 253.341 4.41311 253.35 4.41311C253.498 4.35777 253.646 4.32074 253.785 4.30199C253.905 4.28371 254.007 4.29263 254.118 4.30199H254.229C254.368 4.3203 254.497 4.36672 254.608 4.43142L254.627 4.44078H254.636C255.089 4.70896 255.339 5.31004 255.339 6.13286L255.348 8.66655L231.538 22.4161L231.528 20.5482C231.528 20.2617 231.565 19.9564 231.63 19.6419C231.917 18.1349 232.879 16.5075 234.062 15.5459L234.062 15.5462ZM231.611 50.886L231.537 23.7477L255.356 9.99815L255.43 37.1366L231.611 50.886ZM226.97 54.0574C226.507 53.7892 226.257 53.1882 226.257 52.3561L226.165 17.4226C226.156 15.4717 227.58 12.9937 229.281 12.0133L247.395 1.55587C247.848 1.29705 248.274 1.16764 248.643 1.16764C248.875 1.16764 249.078 1.21404 249.263 1.31578L252.795 3.37783C252.767 3.38719 252.748 3.4055 252.721 3.41486C252.545 3.48894 252.36 3.57195 252.185 3.67368L249.605 5.16231L234.07 14.1316C233.83 14.2704 233.599 14.4368 233.367 14.6216C231.897 15.7866 230.76 17.71 230.455 19.5686C230.455 19.5962 230.446 19.615 230.437 19.6426C230.427 19.6796 230.437 19.7073 230.427 19.7444C230.39 20.0219 230.362 20.2901 230.362 20.5578L230.455 55.5C230.455 55.7217 230.473 55.9346 230.501 56.1382L226.97 54.0574ZM252.304 46.4844L234.2 56.9425C233.47 57.3678 232.813 57.4512 232.351 57.1829C232.212 57.1089 232.101 56.9887 232.009 56.8595C231.861 56.6465 231.741 56.3783 231.685 56.0548C231.658 55.879 231.639 55.6848 231.639 55.4725L231.629 52.2177L255.448 38.4683L255.458 41.0667C255.448 43.017 254.016 45.5046 252.304 46.4844Z" fill="#666666"/>
<path d="M239.554 15.8513C239.656 15.8513 239.748 15.8236 239.841 15.7772L244.27 13.2159C244.547 13.0588 244.639 12.7071 244.482 12.43C244.325 12.1525 243.974 12.0601 243.697 12.2172L239.268 14.7786C238.99 14.9357 238.898 15.2873 239.055 15.5644C239.166 15.7496 239.36 15.8513 239.554 15.8513Z" fill="#666666"/>
<path d="M245.943 12.1624C246.045 12.1624 246.137 12.1348 246.229 12.0883L247.616 11.2838C247.894 11.1267 247.986 10.7662 247.829 10.498C247.672 10.2204 247.32 10.1281 247.043 10.2851L245.656 11.0897C245.379 11.2468 245.286 11.6073 245.443 11.8755C245.545 12.0607 245.739 12.1624 245.943 12.1624Z" fill="#666666"/>
<path d="M244.777 46.2918C244.343 46.0424 243.779 46.0701 243.233 46.3843C242.309 46.9207 241.588 48.1687 241.588 49.2416C241.588 49.8608 241.837 50.3603 242.281 50.6101C242.475 50.7212 242.697 50.7765 242.928 50.7765C243.215 50.7765 243.529 50.6841 243.825 50.5177C244.75 49.9813 245.471 48.7332 245.471 47.6604C245.471 47.05 245.212 46.5416 244.777 46.2918ZM243.242 49.5188C243.048 49.63 242.91 49.6484 242.854 49.6113C242.799 49.5838 242.743 49.4542 242.743 49.2413C242.743 48.5849 243.242 47.725 243.816 47.3922C243.955 47.3182 244.065 47.281 244.14 47.281C244.167 47.281 244.195 47.2904 244.204 47.2995C244.259 47.327 244.315 47.4565 244.315 47.6692C244.315 48.3261 243.816 49.186 243.242 49.5188Z" fill="#666666"/>
<path d="M233.968 34.3545C234.061 34.4098 234.153 34.4285 234.255 34.4285C234.357 34.4285 234.458 34.4008 234.541 34.3545L253.025 23.6841C253.201 23.5824 253.311 23.3883 253.311 23.1848L253.293 14.6042C253.293 14.4007 253.182 14.2067 253.007 14.1049C252.831 14.0032 252.609 14.0032 252.433 14.1049L233.94 24.7658C233.764 24.8676 233.653 25.0617 233.653 25.2652L233.672 33.8456C233.681 34.0585 233.783 34.2528 233.967 34.3545H233.968ZM252.138 15.6029L252.156 22.852L234.829 32.8479L234.811 25.599L252.138 15.6029Z" fill="#666666"/>
<path d="M241.745 32.6807C241.56 32.5789 241.347 32.5789 241.171 32.6807L233.792 36.9431C233.617 37.0449 233.506 37.2388 233.506 37.4423L233.534 42.8516C233.534 43.0551 233.645 43.2491 233.82 43.3508C233.912 43.4064 234.005 43.4251 234.107 43.4251C234.208 43.4251 234.31 43.3973 234.393 43.3508L241.772 39.0884C241.948 38.9867 242.058 38.7927 242.058 38.5892L242.031 33.18C242.031 32.9764 241.92 32.7912 241.745 32.6807ZM234.671 41.853L234.653 37.7752L240.875 34.1782L240.894 38.2557L234.671 41.853Z" fill="#666666"/>
<path d="M245.222 36.7858C245.314 36.8411 245.406 36.8598 245.508 36.8598C245.61 36.8598 245.712 36.8323 245.795 36.7858L253.174 32.5234C253.35 32.4216 253.46 32.2274 253.46 32.0242L253.433 26.6148C253.433 26.4114 253.321 26.2172 253.146 26.1155C252.97 26.0138 252.748 26.0138 252.573 26.1155L245.194 30.378C245.018 30.4795 244.907 30.6737 244.907 30.8773L244.935 36.2865C244.935 36.4901 245.046 36.684 245.222 36.7858ZM252.295 27.6131L252.313 31.6907L246.091 35.2877L246.072 31.2102L252.295 27.6131Z" fill="#666666"/>
<path d="M241.189 41.5199L233.811 45.7823C233.533 45.9393 233.441 46.2909 233.598 46.5679C233.709 46.7527 233.903 46.8545 234.097 46.8545C234.199 46.8545 234.291 46.8267 234.384 46.7805L241.762 42.5181C242.04 42.3611 242.132 42.0092 241.975 41.7322C241.828 41.455 241.467 41.3628 241.189 41.5199Z" fill="#666666"/>
<path d="M252.601 35.0574L245.222 39.3198C244.944 39.4769 244.852 39.8375 245.009 40.1057C245.12 40.2903 245.314 40.3921 245.508 40.3921C245.61 40.3921 245.702 40.3646 245.795 40.3181L253.174 36.0557C253.451 35.8986 253.544 35.538 253.387 35.2698C253.23 34.9928 252.878 34.9004 252.601 35.0574Z" fill="#666666"/>
<path d="M38.9383 10.3979L38.9202 5.60639C38.9202 4.4793 38.508 3.62735 37.7563 3.19672C37.747 3.19672 37.7382 3.19672 37.7382 3.18745C37.7382 3.18745 37.7289 3.18745 37.7289 3.17818L32.7265 0.273775C31.9754 -0.156875 30.995 -0.0742067 30.0236 0.484666L3.27104 15.9223C2.46498 16.3897 1.74119 17.1134 1.16371 18.0022C0.989507 18.2586 0.833876 18.5337 0.687107 18.8542C0.256452 19.7336 0.036707 20.6409 0.0181342 21.493C0.00886239 21.5204 0 21.5478 0 21.5845L0.082247 52.3496C0.100381 53.4581 0.503601 54.3102 1.24593 54.75L6.24834 57.6451C6.25764 57.6544 6.2665 57.6632 6.28504 57.6726C6.60561 57.8557 6.97215 57.9475 7.35683 57.9475C7.8697 57.9475 8.41972 57.7825 8.98749 57.462L35.7402 42.0158C37.5817 40.9529 39.0108 38.4703 39.0108 36.363L38.9383 10.3979ZM6.21213 28.3007L6.20285 24.4987C6.20285 24.3886 6.20285 24.2696 6.22099 24.1596C6.22099 24.1414 6.22099 24.1229 6.23026 24.1047C6.30364 23.2987 6.63351 22.3915 7.17382 21.558C7.65042 20.816 8.25487 20.2112 8.89638 19.8447L35.6393 4.40702C35.8409 4.28807 36.0333 4.21469 36.2164 4.15057C36.4548 4.07719 36.6744 4.04975 36.8669 4.07719C36.9128 4.08646 36.9582 4.10459 37.0044 4.12314C37.0591 4.1413 37.1231 4.15057 37.1784 4.17798L37.1965 4.18725H37.2059C37.5817 4.40702 37.783 4.91106 37.783 5.59811L37.7923 10.0598L33.193 12.7166L32.3775 11.223C32.3041 11.0855 32.176 10.9847 32.0298 10.948C31.883 10.902 31.718 10.9299 31.5896 11.0028L27.8426 13.1649C27.7235 13.2383 27.6317 13.348 27.586 13.4854L26.5872 16.5363L6.21213 28.3007ZM1.73189 19.3588C1.86012 19.0838 1.98834 18.8548 2.13511 18.635C2.61175 17.8931 3.2162 17.2882 3.85771 16.9217L30.6103 1.48408C31.2152 1.12682 31.7829 1.05343 32.1588 1.27319L35.4846 3.20623C35.3746 3.25217 35.265 3.31629 35.1641 3.37113C35.1275 3.38926 35.1 3.39853 35.0631 3.41711C35.0541 3.41711 35.0541 3.42638 35.045 3.43524L8.31942 18.8545C7.51339 19.3219 6.78961 20.0456 6.21213 20.9433C5.571 21.9328 5.17705 23.0231 5.09433 23.9667C5.06693 24.1409 5.04836 24.3146 5.04836 24.4888V24.507V24.5162L5.05763 28.2909L1.1822 26.0372L1.17292 21.5844C1.17292 20.8978 1.37465 20.11 1.73189 19.3588ZM1.2464 52.3409L1.18228 27.3568L5.06702 29.6197L5.14043 55.2721C5.14043 55.4277 5.16784 55.5559 5.18641 55.7027L1.86056 53.779C1.4662 53.5412 1.2557 53.0279 1.2464 52.3409ZM35.1731 41.0258L8.42048 56.4719C7.81565 56.82 7.2568 56.8934 6.88136 56.6919C6.87209 56.6919 6.87209 56.6825 6.86323 56.6825L6.83582 56.6644C6.47855 56.4354 6.27694 55.9498 6.27694 55.2716L6.20356 29.6367L27.3488 17.4328C27.4679 17.3594 27.5597 17.2498 27.6054 17.1123L28.6042 14.0614L31.6551 12.3026L32.4703 13.7962C32.5437 13.9337 32.6718 14.0344 32.8183 14.0712C32.9651 14.1079 33.1301 14.0893 33.2582 14.0163L37.7932 11.3961L37.8666 36.3714C37.8751 38.0477 36.6385 40.1822 35.1728 41.0252L35.1731 41.0258Z" fill="#666666"/>
<path d="M10.893 21.0253C10.4623 20.7782 9.90342 20.8144 9.36312 21.1169C8.44699 21.6483 7.73242 22.885 7.73242 23.9479C7.73242 24.5616 7.9796 25.0564 8.41953 25.3041C8.61187 25.4141 8.83161 25.469 9.06066 25.469C9.34451 25.469 9.65622 25.3774 9.94937 25.2125C10.8655 24.6811 11.58 23.4444 11.58 22.3814C11.5712 21.7673 11.3236 21.2725 10.893 21.0253ZM9.37242 24.2136C9.18008 24.3237 9.04255 24.3418 8.98774 24.3051C8.9329 24.2777 8.87765 24.1495 8.87765 23.9386C8.87765 23.2882 9.37242 22.4362 9.94057 22.1063C10.0781 22.0329 10.1877 21.9962 10.2611 21.9962C10.2885 21.9962 10.316 22.0055 10.3252 22.0144C10.3801 22.0418 10.4353 22.17 10.4353 22.3809C10.4349 23.0317 9.94013 23.893 9.37242 24.2136Z" fill="#666666"/>
<path d="M15.2538 18.5061C14.8139 18.2589 14.255 18.2863 13.7147 18.5976C12.7986 19.1291 12.084 20.3657 12.084 21.4287C12.084 22.0424 12.3312 22.5372 12.7711 22.7848C12.9634 22.8949 13.1832 22.9497 13.4122 22.9497C13.6961 22.9497 14.0078 22.8582 14.3009 22.6932C15.2263 22.1618 15.9409 20.9158 15.9409 19.8621C15.9316 19.248 15.6845 18.7625 15.2538 18.5061ZM13.7235 21.7032C13.5312 21.8133 13.3937 21.8221 13.3389 21.7947C13.284 21.7673 13.2288 21.6391 13.2288 21.4282C13.2288 20.7778 13.7235 19.9258 14.2917 19.5959C14.484 19.4858 14.6308 19.4677 14.6856 19.5044C14.7405 19.5318 14.7957 19.66 14.7957 19.8709C14.7957 20.5125 14.2917 21.3733 13.7235 21.7032Z" fill="#666666"/>
<path d="M19.6063 15.9956C19.1664 15.7485 18.6075 15.7759 18.0671 16.0872C17.151 16.6186 16.4453 17.8553 16.4453 18.909C16.4453 19.5227 16.6925 20.0268 17.1324 20.2739C17.3248 20.384 17.5356 20.4388 17.7647 20.4388C18.0485 20.4388 18.351 20.3566 18.6534 20.1824C19.5789 19.6509 20.2934 18.405 20.2934 17.3513C20.2846 16.7376 20.0369 16.2432 19.6063 15.9956ZM18.0764 19.1932C17.8655 19.3122 17.7373 19.3033 17.7006 19.2847C17.6639 19.2666 17.5905 19.1565 17.5905 18.9089C17.5905 18.2585 18.076 17.4065 18.6442 17.0855C18.8365 16.9754 18.9833 16.9573 19.0381 16.9939C19.0929 17.0214 19.1482 17.1496 19.1482 17.3605C19.1482 18.002 18.6442 18.8633 18.0764 19.1932Z" fill="#666666"/>
<path d="M23.3251 28.9778C23.3251 29.2895 23.5816 29.546 23.9021 29.546C24.2227 29.546 24.4704 29.2895 24.4704 28.9689C24.4611 26.3669 23.1876 26.083 22.638 26.083C22.0244 26.083 21.2821 26.3213 20.5035 26.7794C20.2282 26.935 20.1367 27.2923 20.2926 27.558C20.4482 27.833 20.7965 27.9245 21.0712 27.7689C21.6667 27.4298 22.2347 27.2281 22.6377 27.2281C23.2704 27.2277 23.3251 28.5657 23.3251 28.9778Z" fill="#666666"/>
<path d="M31.0492 35.5743L26.2852 33.6594C26.8807 32.0834 27.2199 30.471 27.2199 28.9594C27.2106 26.5772 26.3586 24.7816 24.8195 23.8929C23.2617 22.9949 21.2372 23.1691 19.1207 24.3969C15.0344 26.7606 11.7178 32.5236 11.7364 37.242C11.7457 39.6515 12.5884 41.4746 14.1276 42.3541C14.7687 42.7206 15.4926 42.913 16.2715 42.913C17.3526 42.913 18.5251 42.5556 19.7437 41.8595C20.7607 41.273 21.732 40.476 22.6115 39.5415L26.8716 42.8121C27.2012 43.0686 27.5952 43.1879 28.026 43.1879C28.4841 43.1879 28.9696 43.0411 29.4735 42.7574C30.2434 42.3175 30.9576 41.5573 31.4981 40.6319C32.2679 39.2944 32.5151 37.8194 32.1483 36.7746C31.9474 36.1975 31.5715 35.7758 31.0492 35.5743ZM19.176 40.8697C17.4627 41.8595 15.8687 42.0335 14.705 41.3646C13.5414 40.6957 12.8909 39.2297 12.8909 37.2414C12.8816 32.9536 15.9966 27.5302 19.7075 25.3953C20.7519 24.7904 21.7508 24.4884 22.6487 24.4884C23.2442 24.4884 23.7844 24.6259 24.2612 24.9005C25.4337 25.5783 26.0752 27.026 26.0845 28.9775C26.0845 30.5075 25.6999 32.1566 25.0403 33.7509C25.0403 33.7603 25.031 33.769 25.0219 33.7784C25.0219 33.7878 25.0219 33.7965 25.0128 33.8059C24.3164 35.4731 23.3088 37.0765 22.1175 38.4143C22.1085 38.4237 22.0994 38.4236 22.0994 38.4324C22.0994 38.4324 22.0994 38.4418 22.0903 38.4418C21.2012 39.4225 20.2211 40.2654 19.1761 40.87L19.176 40.8697ZM30.5095 40.0639C30.0693 40.815 29.5016 41.4199 28.9061 41.7679C28.6496 41.9145 28.0082 42.226 27.5774 41.9054L23.3817 38.6804C24.3618 37.4892 25.205 36.1335 25.8461 34.7135L30.6283 36.6284C30.8298 36.7106 30.9854 36.8849 31.077 37.1505C31.325 37.8831 31.105 39.0285 30.5095 40.0639Z" fill="#666666"/>
<path d="M188.827 10.3735L188.809 5.59438C188.809 4.47045 188.397 3.62057 187.648 3.1912C187.639 3.1912 187.63 3.18199 187.63 3.18199C187.63 3.18199 187.621 3.18199 187.621 3.17275L182.641 0.275984C181.891 -0.153574 180.914 -0.0803418 179.945 0.486246L153.262 15.8836C152.458 16.3497 151.736 17.0715 151.16 17.9579C150.987 18.2137 150.831 18.488 150.685 18.8078C150.265 19.6759 150.037 20.5806 150.018 21.4213C150.009 21.4578 150 21.4943 150 21.531L150.082 52.2167C150.101 53.3223 150.503 54.1722 151.243 54.6107L156.232 57.4984C156.241 57.5074 156.25 57.5165 156.26 57.5259C156.579 57.7087 156.945 57.7999 157.329 57.7999C157.841 57.7999 158.389 57.6353 158.955 57.3156L185.638 41.9086C187.475 40.8486 188.901 38.3722 188.901 36.2707L188.827 10.3735ZM156.187 28.229L156.177 24.4368C156.177 24.4003 156.177 24.3728 156.168 24.3363C156.168 24.254 156.177 24.1628 156.205 24.044C156.278 23.2398 156.607 22.3352 157.146 21.5035C157.621 20.7634 158.233 20.1603 158.864 19.7948L185.538 4.39692C185.675 4.31464 185.803 4.25986 185.931 4.2051C185.949 4.19586 185.967 4.18682 185.985 4.17761C186.003 4.1684 186.013 4.1684 186.031 4.1684C186.296 4.07708 186.552 4.04038 186.771 4.06787C186.817 4.07708 186.853 4.09536 186.89 4.10437C186.954 4.12265 187.018 4.13187 187.073 4.16837L187.091 4.17761H187.1C187.466 4.39692 187.676 4.89947 187.676 5.58485L187.685 10.0351L156.187 28.229ZM151.718 19.3101C151.846 19.036 151.974 18.8075 152.12 18.5882C152.595 17.848 153.198 17.2449 153.838 16.8794L180.521 1.48206C181.124 1.12573 181.691 1.0525 182.065 1.27179L185.383 3.19989C185.273 3.24564 185.154 3.30963 185.044 3.37342C185.017 3.38284 184.989 3.39188 184.962 3.41013C184.953 3.41013 184.953 3.41937 184.944 3.41937L158.288 18.8076C157.493 19.2737 156.762 19.9956 156.186 20.891C155.547 21.878 155.154 22.9654 155.071 23.9066C155.044 24.0801 155.026 24.2539 155.026 24.4274C155.026 24.4639 155.026 24.5004 155.035 24.5371L155.044 28.2288L151.17 25.9717L151.16 21.5307C151.16 20.8455 151.362 20.0594 151.718 19.3101ZM151.828 53.6323C151.453 53.4039 151.234 52.9014 151.225 52.207L151.161 27.2875L155.044 29.5447L155.108 55.1038V55.1313C155.108 55.2685 155.117 55.4053 155.136 55.5335L151.828 53.6323ZM185.072 40.9215L158.389 56.3284C157.785 56.6756 157.237 56.7487 156.853 56.5384C156.844 56.5384 156.844 56.5294 156.844 56.5294C156.561 56.3647 156.369 56.0359 156.296 55.5788C156.268 55.4325 156.259 55.2866 156.259 55.1222L156.195 29.5447L187.694 11.3601L187.767 36.2704C187.767 37.9519 186.534 40.0809 185.072 40.9215Z" fill="#666666"/>
<path d="M160.856 20.9737C160.426 20.7269 159.869 20.7544 159.33 21.065C158.416 21.5951 157.703 22.8286 157.703 23.8888C157.703 24.5011 157.95 24.9945 158.389 25.2412C158.58 25.351 158.8 25.4057 159.028 25.4057C159.311 25.4057 159.622 25.3145 159.915 25.1499C160.828 24.6199 161.541 23.3863 161.541 22.3262C161.532 21.7138 161.285 21.2203 160.856 20.9737ZM159.339 24.1536C159.147 24.2634 159.01 24.2816 158.955 24.2449C158.9 24.2174 158.845 24.0896 158.845 23.8794C158.845 23.2305 159.338 22.3808 159.905 22.0518C160.097 21.942 160.234 21.9238 160.289 21.9605C160.344 21.988 160.399 22.1158 160.399 22.3351C160.399 22.9749 159.905 23.8338 159.339 24.1536Z" fill="#666666"/>
<path d="M165.206 18.4608C164.767 18.214 164.21 18.2415 163.67 18.5521C162.757 19.0822 162.044 20.3157 162.044 21.3759C162.044 21.9882 162.291 22.4816 162.729 22.7283C162.921 22.8381 163.141 22.8929 163.369 22.8929C163.652 22.8929 163.963 22.8015 164.255 22.637C165.178 22.1069 165.891 20.8642 165.891 19.8133C165.882 19.2009 165.635 18.7166 165.206 18.4608ZM163.68 21.6499C163.488 21.7597 163.342 21.7779 163.296 21.7412C163.241 21.7137 163.186 21.5859 163.186 21.3756C163.186 20.7268 163.68 19.8771 164.246 19.5481C164.383 19.475 164.493 19.4383 164.566 19.4383C164.593 19.4383 164.621 19.4476 164.639 19.4566C164.694 19.4841 164.749 19.6119 164.749 19.8221C164.749 20.4712 164.246 21.3209 163.68 21.6499Z" fill="#666666"/>
<path d="M169.545 15.9568C169.107 15.7101 168.55 15.7375 168.01 16.0481C167.096 16.5782 166.384 17.8117 166.393 18.8626C166.393 19.475 166.639 19.9776 167.078 20.2241C167.27 20.3339 167.48 20.3886 167.709 20.3886C167.992 20.3886 168.293 20.3064 168.595 20.1328C169.518 19.6028 170.231 18.3601 170.231 17.3091C170.222 16.697 169.975 16.2036 169.545 15.9568ZM168.019 19.1459C167.809 19.2647 167.681 19.2556 167.645 19.2372C167.608 19.2189 167.535 19.1092 167.535 18.8626C167.535 18.2138 168.019 17.3641 168.586 17.0441C168.778 16.9343 168.924 16.916 168.979 16.9528C169.034 16.9802 169.089 17.108 169.089 17.3183C169.089 17.9581 168.586 18.8171 168.019 19.1459Z" fill="#666666"/>
<path d="M184.825 7.82441L171.968 15.2446C171.694 15.3999 171.603 15.7565 171.758 16.0213C171.868 16.2041 172.06 16.3046 172.251 16.3046C172.352 16.3046 172.443 16.2771 172.535 16.2315L185.392 8.81131C185.666 8.65603 185.757 8.29949 185.602 8.03468C185.456 7.76041 185.1 7.66892 184.825 7.82441Z" fill="#666666"/>
<path d="M158.096 40.0633C158.096 40.0814 158.106 40.0908 158.106 40.0998C158.115 40.1727 158.133 40.2367 158.16 40.3008C158.17 40.3283 158.188 40.3464 158.206 40.3739C158.224 40.392 158.224 40.4195 158.243 40.438C158.27 40.4655 158.307 40.4836 158.334 40.5108C158.352 40.5201 158.361 40.5473 158.38 40.5567C158.389 40.5658 158.398 40.5567 158.407 40.5658C158.489 40.6117 158.572 40.6389 158.663 40.6389C158.754 40.6389 158.837 40.6114 158.919 40.5748C158.928 40.5658 158.946 40.5748 158.955 40.5658L185.227 25.3965C185.237 25.3873 185.237 25.3782 185.245 25.3782C185.318 25.3325 185.382 25.2685 185.428 25.1955C185.437 25.1862 185.437 25.1772 185.437 25.168C185.474 25.0949 185.492 25.0217 185.502 24.9395C185.502 24.9302 185.511 24.9212 185.511 24.9029L185.492 16.4227C185.492 16.4045 185.483 16.3953 185.483 16.3862C185.474 16.3132 185.456 16.2492 185.428 16.1852C185.419 16.1577 185.401 16.1394 185.383 16.1122C185.364 16.0939 185.364 16.0664 185.346 16.0482C185.319 16.0116 185.282 15.9934 185.246 15.9751C185.227 15.9659 185.227 15.9476 185.209 15.9386C185.2 15.9386 185.2 15.9386 185.191 15.9294C185.109 15.8836 185.026 15.8654 184.935 15.8654C184.917 15.8654 184.898 15.8746 184.88 15.8746C184.807 15.8838 184.743 15.8929 184.679 15.9294C184.67 15.9386 184.652 15.9294 184.633 15.9386L158.362 31.1077C158.352 31.117 158.352 31.1261 158.343 31.1261C158.27 31.1717 158.197 31.2358 158.161 31.3089C158.151 31.318 158.151 31.327 158.151 31.3364C158.115 31.4092 158.097 31.4826 158.087 31.5648C158.087 31.5739 158.078 31.583 158.078 31.6014L158.096 40.0633ZM159.211 32.0217L169.683 29.3536L159.229 38.7842L159.211 32.0217ZM172.069 28.7596L181.069 26.4658L163.077 36.8559L172.069 28.7596ZM184.368 24.4465L173.897 27.1148L184.35 17.6937L184.368 24.4465ZM171.511 27.7179L162.51 30.0114L180.503 19.6215L171.511 27.7179Z" fill="#666666"/>
<path d="M166.24 38.6282C166.066 38.5276 165.847 38.5276 165.673 38.6282L158.381 42.8406C158.207 42.9412 158.098 43.133 158.098 43.334L158.125 48.6794C158.125 48.8807 158.235 49.0723 158.408 49.1729C158.5 49.2276 158.591 49.246 158.692 49.246C158.792 49.246 158.893 49.2185 158.975 49.1729L166.267 44.9605C166.441 44.8599 166.55 44.668 166.55 44.4671L166.523 39.1216C166.523 38.9113 166.413 38.7288 166.24 38.6282ZM159.258 47.6838L159.24 43.654L165.39 40.0991L165.408 44.1292L159.258 47.6838Z" fill="#666666"/>
<path d="M175.905 33.045C175.732 32.9444 175.513 32.9444 175.339 33.045L168.047 37.2574C167.873 37.358 167.764 37.5499 167.764 37.7508L167.791 43.0963C167.791 43.2975 167.901 43.4891 168.074 43.5897C168.166 43.6444 168.257 43.6628 168.358 43.6628C168.458 43.6628 168.559 43.6353 168.641 43.5897L175.933 39.3773C176.107 39.2767 176.216 39.0848 176.216 38.8839L176.189 33.5384C176.189 33.3375 176.079 33.1453 175.905 33.045ZM168.915 42.1097L168.897 38.0795L175.046 34.525L175.065 38.5548L168.915 42.1097Z" fill="#666666"/>
<path d="M175.358 42.1011L168.066 46.3135C167.792 46.4688 167.7 46.816 167.856 47.0901C167.965 47.2729 168.157 47.3735 168.349 47.3735C168.45 47.3735 168.541 47.346 168.632 47.3004L175.925 43.088C176.199 42.9327 176.29 42.5852 176.135 42.3111C175.98 42.0371 175.632 41.9365 175.358 42.1011Z" fill="#666666"/>
<path d="M185.566 27.4709C185.392 27.3704 185.173 27.3704 184.999 27.4709L177.707 31.6833C177.534 31.7839 177.424 31.9758 177.424 32.1767L177.451 37.5222C177.451 37.7234 177.561 37.9153 177.734 38.0156C177.826 38.0703 177.917 38.0887 178.018 38.0887C178.118 38.0887 178.219 38.0612 178.301 38.0156L185.593 33.8032C185.767 33.7026 185.876 33.5108 185.876 33.3098L185.849 27.9643C185.849 27.7542 185.739 27.5714 185.566 27.4709ZM178.584 36.5266L178.566 32.4967L184.716 28.9418L184.734 32.972L178.584 36.5266Z" fill="#666666"/>
<path d="M185.026 36.5173L177.734 40.7296C177.46 40.885 177.368 41.2415 177.524 41.5065C177.633 41.6893 177.825 41.7896 178.017 41.7896C178.117 41.7896 178.209 41.7621 178.3 41.7168L185.592 37.5041C185.866 37.3488 185.958 36.9923 185.803 36.7276C185.648 36.4626 185.3 36.362 185.026 36.5173Z" fill="#666666"/>
<path d="M165.699 47.7663L158.407 51.9786C158.133 52.1339 158.041 52.4905 158.197 52.7555C158.306 52.938 158.498 53.0386 158.69 53.0386C158.79 53.0386 158.882 53.0111 158.973 52.9655L166.265 48.7531C166.539 48.5978 166.631 48.2412 166.476 47.9765C166.32 47.7022 165.973 47.6109 165.699 47.7663Z" fill="#666666"/>
<defs>
<linearGradient id="paint0_linear_1104_437" x1="351.874" y1="2.21159" x2="451.741" y2="125.064" gradientUnits="userSpaceOnUse">
<stop stop-color="white"/>
<stop offset="0.296579" stop-color="#BB62F1"/>
<stop offset="0.625" stop-color="#EE4B60"/>
<stop offset="0.927083" stop-color="#E5C4FA"/>
</linearGradient>
</defs>
</svg>
