<svg width="632" height="59" viewBox="0 0 632 59" fill="none" xmlns="http://www.w3.org/2000/svg">
<path d="M536.572 16.7973L539.108 9.09325H543.39L537.262 26.618H532.339L526.013 9.09325H530.468L533.028 16.7973C533.832 19.3078 534.431 21.3589 534.825 22.9506C535.399 20.7026 535.982 18.6515 536.572 16.7973ZM547.905 12.4653H544.237V9.21632H547.905V12.4653ZM547.978 26.618H544.139V13.9175H547.978V26.618ZM555.561 26.9872C553.559 26.9872 552.066 26.6426 551.081 25.9534C550.113 25.2479 549.572 24.1239 549.457 22.5814H553.198C553.264 23.2542 553.477 23.73 553.838 24.009C554.215 24.2879 554.814 24.4274 555.635 24.4274C557.062 24.4274 557.776 24.0172 557.776 23.1967C557.776 22.8029 557.62 22.5076 557.309 22.3107C556.997 22.0973 556.422 21.9251 555.586 21.7938L553.937 21.523C551.081 21.08 549.654 19.7837 549.654 17.6341C549.654 16.3542 550.146 15.3697 551.131 14.6805C552.115 13.9749 553.526 13.6221 555.364 13.6221C559.155 13.6221 561.124 15.0743 561.271 17.9787H557.702C557.686 16.7808 556.907 16.1819 555.364 16.1819C554.068 16.1819 553.42 16.5839 553.42 17.388C553.42 17.749 553.567 18.0279 553.863 18.2248C554.158 18.4217 554.626 18.5694 555.266 18.6679L557.161 18.9386C558.687 19.1683 559.811 19.6032 560.533 20.2431C561.255 20.8831 561.616 21.761 561.616 22.8768C561.616 24.1895 561.083 25.2068 560.016 25.9288C558.966 26.6344 557.481 26.9872 555.561 26.9872ZM571.302 21.0062V13.9175H575.142V26.618H571.401V24.8212C570.416 26.216 569.087 26.9134 567.413 26.9134C566.068 26.9134 564.993 26.5114 564.189 25.7073C563.401 24.8869 563.007 23.73 563.007 22.2368V13.9175H566.847V21.4738C566.847 22.9178 567.528 23.6398 568.89 23.6398C569.579 23.6398 570.153 23.4101 570.613 22.9506C571.072 22.4912 571.302 21.843 571.302 21.0062ZM589.59 26.618H585.726C585.529 26.2406 585.422 25.7647 585.406 25.1904C584.552 26.3391 583.199 26.9134 581.345 26.9134C579.95 26.9134 578.826 26.5688 577.973 25.8796C577.136 25.1904 576.717 24.2387 576.717 23.0245C576.717 20.6616 578.375 19.3406 581.689 19.0617L583.683 18.8894C584.782 18.7745 585.332 18.3561 585.332 17.6341C585.332 16.7808 584.684 16.3542 583.387 16.3542C582.6 16.3542 582.042 16.4773 581.714 16.7234C581.402 16.9531 581.213 17.388 581.148 18.0279H577.333C577.562 15.0907 579.589 13.6221 583.412 13.6221C587.186 13.6221 589.073 14.9266 589.073 17.5357V24.2797C589.073 25.3463 589.245 26.1257 589.59 26.618ZM582.501 24.329C583.371 24.329 584.06 24.1074 584.569 23.6644C585.078 23.205 585.332 22.524 585.332 21.6215V20.6862C585.102 20.9323 584.676 21.0964 584.052 21.1784L582.477 21.3507C581.246 21.482 580.631 21.9907 580.631 22.8768C580.631 23.3198 580.795 23.6726 581.123 23.9351C581.451 24.1977 581.911 24.329 582.501 24.329ZM594.922 26.618H591.082V9.09325H594.922V26.618ZM527.342 34.0933H534.529C537.417 34.0933 539.633 34.8727 541.175 36.4315C542.717 37.974 543.489 40.1153 543.489 42.8556C543.489 45.5959 542.717 47.7455 541.175 49.3043C539.633 50.8468 537.417 51.618 534.529 51.618H527.342V34.0933ZM531.502 48.0983H534.456C535.965 48.0983 537.122 47.6635 537.926 46.7938C538.747 45.9077 539.157 44.595 539.157 42.8556C539.157 41.1163 538.747 39.8118 537.926 38.9421C537.122 38.056 535.965 37.613 534.456 37.613H531.502V48.0983ZM557.894 45.6369V46.4H548.492C548.623 47.2696 548.943 47.9342 549.452 48.3937C549.96 48.8531 550.608 49.0828 551.396 49.0828C552.643 49.0828 553.496 48.607 553.956 47.6553H557.599C557.254 48.968 556.524 50.0099 555.408 50.7812C554.292 51.536 552.955 51.9134 551.396 51.9134C549.427 51.9134 547.835 51.3062 546.621 50.092C545.407 48.8777 544.8 47.2696 544.8 45.2677C544.8 43.2494 545.398 41.6414 546.596 40.4435C547.778 39.2293 549.361 38.6221 551.347 38.6221C553.316 38.6221 554.907 39.2539 556.122 40.5174C557.303 41.7973 557.894 43.5038 557.894 45.6369ZM551.298 41.4527C549.722 41.4527 548.795 42.2895 548.516 43.9632H554.128C553.997 43.1756 553.685 42.5603 553.193 42.1172C552.7 41.6742 552.069 41.4527 551.298 41.4527ZM565.079 51.9872C563.078 51.9872 561.584 51.6426 560.6 50.9534C559.632 50.2479 559.09 49.1239 558.975 47.5814H562.717C562.782 48.2542 562.996 48.73 563.357 49.009C563.734 49.2879 564.333 49.4274 565.153 49.4274C566.581 49.4274 567.295 49.0172 567.295 48.1967C567.295 47.8029 567.139 47.5076 566.827 47.3107C566.515 47.0973 565.941 46.9251 565.104 46.7938L563.455 46.523C560.6 46.08 559.172 44.7837 559.172 42.6341C559.172 41.3542 559.665 40.3697 560.649 39.6805C561.634 38.9749 563.045 38.6221 564.883 38.6221C568.673 38.6221 570.642 40.0743 570.79 42.9787H567.221C567.204 41.7808 566.425 41.1819 564.883 41.1819C563.586 41.1819 562.938 41.5839 562.938 42.388C562.938 42.749 563.086 43.0279 563.381 43.2248C563.677 43.4217 564.144 43.5694 564.784 43.6679L566.679 43.9386C568.205 44.1683 569.329 44.6032 570.051 45.2431C570.773 45.8831 571.134 46.761 571.134 47.8768C571.134 49.1895 570.601 50.2068 569.535 50.9288C568.484 51.6344 566.999 51.9872 565.079 51.9872ZM576.292 37.4653H572.624V34.2163H576.292V37.4653ZM576.366 51.618H572.526V38.9175H576.366V51.618ZM587.443 40.5912V38.9175H591.185V51.2242C591.185 52.9471 590.61 54.2927 589.462 55.2608C588.329 56.2453 586.738 56.7376 584.687 56.7376C582.8 56.7376 581.323 56.3192 580.256 55.4823C579.19 54.6619 578.615 53.5297 578.533 52.0857H582.324C582.422 53.2671 583.234 53.8578 584.76 53.8578C585.597 53.8578 586.237 53.6363 586.68 53.1933C587.123 52.7666 587.345 52.1595 587.345 51.3719V49.5505C586.541 50.7483 585.327 51.3473 583.702 51.3473C582.028 51.3473 580.675 50.7565 579.641 49.5751C578.607 48.3937 578.09 46.8594 578.09 44.9724C578.09 43.1018 578.599 41.5675 579.616 40.3697C580.634 39.2046 581.971 38.6221 583.628 38.6221C585.335 38.6221 586.606 39.2785 587.443 40.5912ZM584.687 48.2706C585.556 48.2706 586.229 47.9916 586.705 47.4337C587.181 46.8594 587.419 46.039 587.419 44.9724C587.419 43.9058 587.181 43.0936 586.705 42.5357C586.245 41.9778 585.573 41.6988 584.687 41.6988C583.833 41.6988 583.169 41.9942 582.693 42.5849C582.217 43.1592 581.979 43.9714 581.979 45.0216C581.979 46.0554 582.217 46.8594 582.693 47.4337C583.169 47.9916 583.833 48.2706 584.687 48.2706ZM601.118 38.6221C602.464 38.6221 603.53 39.0323 604.318 39.8528C605.122 40.6568 605.524 41.8055 605.524 43.2987V51.618H601.684V44.0617C601.684 42.6177 601.003 41.8957 599.641 41.8957C598.952 41.8957 598.378 42.1254 597.918 42.5849C597.459 43.0443 597.229 43.6925 597.229 44.5293V51.618H593.39V38.9175H597.131V40.7143C598.115 39.3195 599.444 38.6221 601.118 38.6221ZM620.317 45.6369V46.4H610.914C611.046 47.2696 611.366 47.9342 611.874 48.3937C612.383 48.8531 613.031 49.0828 613.819 49.0828C615.066 49.0828 615.919 48.607 616.379 47.6553H620.021C619.677 48.968 618.947 50.0099 617.831 50.7812C616.715 51.536 615.378 51.9134 613.819 51.9134C611.85 51.9134 610.258 51.3062 609.044 50.092C607.83 48.8777 607.222 47.2696 607.222 45.2677C607.222 43.2494 607.821 41.6414 609.019 40.4435C610.201 39.2293 611.784 38.6221 613.77 38.6221C615.739 38.6221 617.33 39.2539 618.545 40.5174C619.726 41.7973 620.317 43.5038 620.317 45.6369ZM613.72 41.4527C612.145 41.4527 611.218 42.2895 610.939 43.9632H616.551C616.42 43.1756 616.108 42.5603 615.616 42.1172C615.123 41.6742 614.492 41.4527 613.72 41.4527ZM629.473 38.7206C629.538 38.7206 629.817 38.737 630.309 38.7698V42.2649H629.325C627.077 42.2649 625.953 43.4135 625.953 45.7108V51.618H622.113V38.9175H625.854V41.2804C626.445 39.5738 627.651 38.7206 629.473 38.7206Z" fill="#A2A2A2"/>
<path fill-rule="evenodd" clip-rule="evenodd" d="M495.122 58.449C504.117 58.449 511.409 51.1575 511.409 42.1629V16.2861C511.409 7.29155 504.117 9.36064e-06 495.122 8.57428e-06L397.044 0C388.049 -7.86327e-07 380.758 7.29154 380.758 16.2861V19.7081L361.297 30.9436L380.758 42.1791C380.767 51.1662 388.055 58.449 397.044 58.449L495.122 58.449Z" fill="url(#paint0_linear_1061_213)"/>
<path d="M411.553 42.7171C408.45 42.7171 406.005 41.8911 404.219 40.2392C402.456 38.5649 401.574 36.232 401.574 33.2407V18.373H406.095V33.2741C406.095 35.0824 406.563 36.4553 407.501 37.3929C408.439 38.3305 409.789 38.7993 411.553 38.7993C413.316 38.7993 414.667 38.3305 415.605 37.3929C416.542 36.4553 417.011 35.0824 417.011 33.2741V18.373H421.532V33.2407C421.532 36.2767 420.65 38.6207 418.886 40.2726C417.123 41.9023 414.678 42.7171 411.553 42.7171ZM443.356 18.373L435.487 29.9591L443.825 42.2148H438.568L435.956 38.364C434.773 36.6004 433.712 34.9819 432.775 33.5085C431.837 34.9819 430.777 36.6004 429.593 38.364L426.948 42.2148H421.825L430.23 30.0595L422.327 18.373H427.551L429.928 21.9225C430.531 22.7931 431.513 24.3223 432.875 26.5101C433.322 25.818 433.779 25.1148 434.248 24.4005C434.717 23.6638 435.074 23.1057 435.32 22.7262C435.565 22.3467 435.744 22.0788 435.855 21.9225L438.266 18.373H443.356ZM458.618 34.6136H448.672V30.9971H458.618V34.6136ZM473.22 42.7171C470.117 42.7171 467.673 41.8911 465.887 40.2392C464.123 38.5649 463.241 36.232 463.241 33.2407V18.373H467.762V33.2741C467.762 35.0824 468.231 36.4553 469.168 37.3929C470.106 38.3305 471.456 38.7993 473.22 38.7993C474.984 38.7993 476.334 38.3305 477.272 37.3929C478.209 36.4553 478.678 35.0824 478.678 33.2741V18.373H483.199V33.2407C483.199 36.2767 482.317 38.6207 480.553 40.2726C478.79 41.9023 476.345 42.7171 473.22 42.7171ZM490.277 42.2148H485.756V18.373H490.277V42.2148Z" fill="#0D0D0D"/>
<path d="M112.028 42.132C111.968 41.8428 111.875 41.5708 111.73 41.3157L108.132 35.0214C108.362 34.0861 108.285 33.2183 107.869 32.4868L106.329 29.7991C106.312 29.7737 106.287 29.7564 106.27 29.731C105.929 29.1782 105.411 28.7529 104.739 28.4638C104.662 28.0813 104.602 27.6897 104.602 27.3071C104.594 25.6143 104.849 23.9219 105.377 22.2719C106.797 17.8063 106.142 12.9837 103.573 9.05376C99.4313 2.73412 90.2541 0.284471 83.5177 3.72091C79.6645 5.68588 76.8749 9.03694 75.6502 13.1622C74.4253 17.2875 74.9442 21.6168 77.0963 25.3509C79.3247 29.2124 83.1097 31.9255 87.4735 32.8105C89.0809 33.1334 90.612 33.7289 92.0326 34.5795C92.3388 34.7579 92.6278 34.9878 92.9004 35.2259C92.798 35.9662 92.9004 36.6462 93.2233 37.2247C93.2321 37.2502 93.2321 37.2756 93.2488 37.3011L94.7884 39.9887C95.2052 40.7202 95.9197 41.2303 96.8469 41.5026L100.445 47.7969C100.598 48.0604 100.794 48.2903 101.023 48.4857C103.413 50.7735 106.696 53.1465 111.043 55.7581C111.29 55.9026 111.562 55.9792 111.834 55.9792C112.097 55.9792 112.361 55.911 112.608 55.7665C113.101 55.4858 113.382 54.9757 113.374 54.4059C113.253 49.0385 112.828 45.1344 112.028 42.132H112.028ZM110.803 41.8513C111.16 42.4637 111.05 43.3485 110.514 44.2839C110.454 44.3944 110.369 44.4965 110.292 44.5989L106.473 37.922C106.882 37.4713 107.239 36.9948 107.52 36.5017C107.562 36.4336 107.588 36.3572 107.63 36.2891L110.803 41.8513ZM105.139 48.0435L101.251 41.2476C102.859 40.7287 104.441 39.8273 105.7 38.7044L109.587 45.4918C108.43 46.7083 106.771 47.6609 105.139 48.0435ZM93.9624 36.1946C94.7191 36.824 95.655 37.096 96.6501 37.096C98.1385 37.096 99.7463 36.5263 101.022 35.8117C103.318 34.5105 105.377 32.2226 105.07 29.9173C105.275 30.1132 105.436 30.3425 105.538 30.6061C105.819 31.3376 105.649 32.2902 105.07 33.2937C103.591 35.8711 99.9502 37.972 96.9563 37.972C95.7741 37.972 94.8469 37.6319 94.3453 37.0112C94.1408 36.7731 94.0218 36.5008 93.9624 36.1946ZM87.6853 31.7719C83.6195 30.9468 80.0899 28.4121 78.0145 24.8229C76.0073 21.3442 75.5308 17.3125 76.6707 13.4683C77.8105 9.62379 80.413 6.50221 84.0026 4.67356C85.9335 3.6868 88.0852 3.21923 90.2455 3.21923C95.1022 3.21923 100.018 5.56675 102.681 9.64935C105.071 13.3153 105.683 17.7977 104.365 21.9653C103.812 23.7175 103.531 25.5204 103.548 27.3236C103.557 28.1913 103.761 28.9992 103.965 29.7816C104.45 31.6698 102.511 33.7538 100.503 34.8933C98.462 36.0498 95.808 36.6029 94.4555 35.2335C93.9112 34.6807 93.3157 34.1022 92.6015 33.6769C91.054 32.7591 89.4122 32.1212 87.6857 31.7725L87.6853 31.7719ZM95.7059 39.4526L95.3315 38.7974C95.825 38.9419 96.3526 39.0355 96.9478 39.0355C100.282 39.0355 104.339 36.6968 105.989 33.8217C106.27 33.337 106.465 32.8608 106.584 32.3929L106.942 33.022C107.376 33.7877 107.257 34.834 106.602 35.982C106.321 36.4666 105.964 36.9428 105.547 37.3768C105.471 37.4195 105.411 37.4871 105.368 37.5552C104.059 38.8738 102.239 39.9197 100.427 40.3877C100.342 40.3877 100.257 40.4043 100.18 40.447C99.6018 40.5749 99.0321 40.6512 98.479 40.6512C98.0625 40.6512 97.6881 40.6085 97.3479 40.5234C97.331 40.5149 97.3052 40.5149 97.2883 40.5067C96.5565 40.3371 96.0037 39.9715 95.7059 39.4526ZM98.1897 41.7065C98.2921 41.7065 98.3857 41.7232 98.4875 41.7232C99.0403 41.7232 99.61 41.6553 100.188 41.5363L104.016 48.2216C103.897 48.2301 103.778 48.247 103.667 48.247C102.842 48.247 102.162 48.0429 101.728 47.6773C101.584 47.5582 101.465 47.4137 101.371 47.2605L98.1897 41.7065ZM103.659 49.3102C106.074 49.3102 108.923 47.8727 110.616 45.9335C110.633 45.9168 110.659 45.8908 110.667 45.8741C110.956 45.5337 111.22 45.1765 111.433 44.8109C111.458 44.7682 111.475 44.7346 111.492 44.6919C111.807 46.4608 112.028 48.5278 112.164 50.9435C111.33 51.93 109.893 52.7551 108.626 52.9847C106.669 51.7089 104.985 50.484 103.548 49.3017C103.591 49.3017 103.625 49.3102 103.659 49.3102ZM112.071 54.8388C112.003 54.8815 111.807 54.9663 111.595 54.8388C110.991 54.4729 110.412 54.1158 109.851 53.7671C110.71 53.4609 111.552 52.9759 112.249 52.3804C112.275 53.0356 112.3 53.7156 112.309 54.4217C112.309 54.6773 112.139 54.7964 112.071 54.8388Z" fill="#3D3D3D"/>
<path d="M98.045 33.6005C98.1386 33.6005 98.2322 33.5751 98.3173 33.5242C98.5727 33.3797 98.6575 33.048 98.5045 32.7927C98.3258 32.4865 94.4132 25.8693 91.0367 23.5218L91.496 23.2582C91.6832 23.1478 91.7853 22.9352 91.7595 22.7226L91.5811 21.5149L92.5337 21.4723C92.6867 21.4636 92.823 21.3959 92.9163 21.2765C93.0099 21.1574 93.0526 21.0129 93.0353 20.8598L92.8397 19.4478L93.2222 19.7031C93.3752 19.8053 93.5624 19.8135 93.7323 19.7458C93.8344 19.7031 93.9195 19.6268 93.9704 19.5332C95.3653 23.6752 98.8017 29.8421 99.3033 30.7354C99.4478 30.9907 99.7713 31.0843 100.026 30.9395C100.281 30.795 100.375 30.4715 100.23 30.2165C97.8573 25.9977 94.2676 18.7507 94.4466 16.7608L94.472 16.5909C94.5147 16.3102 94.3275 16.038 94.0468 15.9871C93.766 15.9362 93.494 16.1147 93.4258 16.3955C93.417 16.4551 93.4004 16.5059 93.4004 16.5741L93.1196 18.3686L92.4474 17.9261C92.269 17.8157 92.0479 17.8071 91.8692 17.9261C91.6908 18.0366 91.5972 18.241 91.6311 18.445L91.9119 20.4353L90.9592 20.478C90.8061 20.4866 90.6698 20.5544 90.5766 20.6738C90.483 20.7928 90.4404 20.9373 90.4576 21.0904L90.6702 22.5279L89.7347 23.0636C89.5648 23.1658 89.4626 23.3444 89.4712 23.5398C89.4798 23.7355 89.5902 23.9141 89.7688 23.9991C93.0008 25.5642 97.5513 33.2613 97.594 33.3382C97.6879 33.5072 97.8584 33.6005 98.045 33.6005Z" fill="#3D3D3D"/>
<path d="M332.223 10.4792L332.214 5.65158C332.214 4.516 331.798 3.65762 331.041 3.22377C331.032 3.22377 331.032 3.22377 331.023 3.21442C331.023 3.21442 331.013 3.21442 331.013 3.20506L325.973 0.278772C325.216 -0.155124 324.229 -0.0811784 323.25 0.491253L296.296 16.0453C295.484 16.5162 294.754 17.2454 294.172 18.1408C293.997 18.3992 293.84 18.6763 293.692 18.9993C293.258 19.8853 293.028 20.7995 293.018 21.6579C293.009 21.6856 293 21.7132 293 21.7408L293.083 52.7378C293.092 53.8548 293.507 54.7132 294.255 55.1563L299.295 58.0733C299.305 58.0826 299.314 58.0914 299.323 58.1008C299.646 58.2853 300.015 58.378 300.403 58.378C300.92 58.378 301.474 58.2119 302.046 57.8887L329 42.3262C330.856 41.2551 332.295 38.7537 332.295 36.6306L332.223 10.4792ZM299.25 28.517L299.241 24.6863C299.241 24.6493 299.241 24.6217 299.231 24.5847C299.231 24.5019 299.25 24.4092 299.268 24.2987C299.342 23.4866 299.675 22.5725 300.219 21.7328C300.699 20.9852 301.308 20.3758 301.955 20.0065L328.899 4.44274C329.102 4.32288 329.296 4.24894 329.481 4.19369C329.721 4.11975 329.942 4.09213 330.145 4.11975C330.182 4.12911 330.21 4.14736 330.247 4.15672C330.321 4.175 330.385 4.19369 330.45 4.23066L330.468 4.24002H330.477C330.856 4.46143 331.059 4.96927 331.059 5.66149L331.068 10.1568L326.434 12.8336L325.613 11.3288C325.539 11.1903 325.41 11.0887 325.262 11.0517C325.114 11.0054 324.948 11.0335 324.819 11.107L321.043 13.2853C320.924 13.3593 320.831 13.4697 320.785 13.6083L319.779 16.6821L299.25 28.517ZM294.736 19.5077C294.865 19.2306 294.994 18.9998 295.142 18.7784C295.623 18.0309 296.232 17.4215 296.878 17.0522L323.832 1.4982C324.442 1.13825 325.014 1.0643 325.392 1.28572L328.743 3.23331C328.632 3.27964 328.512 3.34422 328.402 3.40883C328.373 3.41819 328.346 3.42711 328.318 3.4458C328.309 3.4458 328.309 3.45516 328.3 3.45516L301.374 18.9994C300.562 19.4703 299.833 20.1995 299.251 21.1038C298.605 22.1008 298.208 23.1994 298.124 24.1501C298.097 24.3255 298.078 24.5007 298.078 24.6761C298.078 24.7131 298.078 24.7501 298.088 24.7871L298.097 27.5285H298.088V28.5068L294.183 26.2362L294.174 21.7498C294.174 21.058 294.377 20.2642 294.737 19.5073L294.736 19.5077ZM294.247 52.7383L294.182 27.5659L298.096 29.8458L298.17 55.6916C298.17 55.8483 298.198 55.9776 298.217 56.1256L294.856 54.1873C294.468 53.9475 294.256 53.4304 294.247 52.7383ZM328.429 41.3378L301.475 56.9007C300.866 57.2514 300.303 57.3251 299.924 57.1221C299.915 57.1221 299.915 57.1128 299.915 57.1128L299.887 57.0943C299.527 56.8636 299.324 56.3745 299.324 55.6913L299.25 29.8628L320.555 17.5672C320.675 17.4932 320.768 17.3827 320.814 17.2442L321.82 14.1704L324.893 12.3983L325.715 13.9031C325.789 14.0416 325.918 14.1432 326.066 14.1802C326.213 14.2265 326.38 14.1984 326.509 14.1249L331.078 11.485L331.152 36.6487C331.152 38.3375 329.906 40.4882 328.429 41.3373L328.429 41.3378Z" fill="#3D3D3D"/>
<path d="M303.967 21.1866C303.533 20.9375 302.97 20.9741 302.426 21.2788C301.503 21.8142 300.783 23.0603 300.783 24.1312C300.783 24.7495 301.032 25.2481 301.475 25.4975C301.669 25.6084 301.89 25.6637 302.121 25.6637C302.407 25.6637 302.721 25.5715 303.016 25.4053C303.939 24.8698 304.659 23.6238 304.659 22.5529C304.65 21.9341 304.401 21.4356 303.967 21.1866ZM302.435 24.3989C302.241 24.5098 302.103 24.5281 302.047 24.4911C301.992 24.4635 301.937 24.3343 301.937 24.1218C301.937 23.4665 302.435 22.608 303.007 22.2757C303.146 22.2018 303.257 22.1648 303.33 22.1648C303.358 22.1648 303.386 22.1741 303.395 22.1831C303.45 22.2107 303.506 22.3399 303.506 22.5524C303.506 23.2081 303.007 24.0759 302.435 24.3989Z" fill="#3D3D3D"/>
<path d="M308.361 18.6486C307.918 18.3902 307.355 18.4272 306.81 18.7408C305.887 19.2763 305.167 20.5223 305.167 21.5932C305.167 22.2116 305.417 22.7101 305.86 22.9595C306.054 23.0705 306.275 23.1257 306.506 23.1257C306.792 23.1257 307.106 23.0335 307.401 22.8673C308.334 22.3319 309.053 21.0765 309.053 20.0149C309.044 19.4055 308.795 18.907 308.361 18.6486ZM306.819 21.8698C306.626 21.9807 306.487 21.999 306.432 21.9621C306.377 21.9344 306.321 21.8052 306.321 21.5927C306.321 20.9374 306.819 20.079 307.392 19.7467C307.53 19.6727 307.641 19.6357 307.715 19.6357C307.742 19.6357 307.77 19.6451 307.789 19.654C307.844 19.6816 307.9 19.8108 307.9 20.0233C307.9 20.679 307.392 21.5375 306.819 21.8698Z" fill="#3D3D3D"/>
<path d="M312.746 16.1192C312.303 15.8701 311.74 15.8977 311.195 16.2114C310.272 16.7469 309.552 17.9928 309.561 19.0544C309.561 19.6728 309.81 20.1807 310.253 20.4297C310.447 20.5406 310.66 20.5958 310.89 20.5958C311.176 20.5958 311.481 20.513 311.786 20.3375C312.718 19.802 313.438 18.5466 313.438 17.485C313.429 16.8667 313.18 16.3686 312.746 16.1192ZM311.205 19.3408C310.992 19.4607 310.863 19.4607 310.826 19.433C310.789 19.4148 310.715 19.3039 310.715 19.0544C310.715 18.3991 311.204 17.5407 311.777 17.2172C311.97 17.1063 312.118 17.088 312.173 17.125C312.229 17.1526 312.284 17.2818 312.284 17.4943C312.284 18.1407 311.777 19.0085 311.205 19.3408Z" fill="#3D3D3D"/>
<path d="M322.475 22.1929C320.408 21.0022 317.703 21.2511 314.86 22.8945C309.238 26.1438 304.679 34.036 304.697 40.507C304.706 43.7468 305.841 46.1929 307.891 47.3654C308.749 47.8638 309.719 48.104 310.762 48.104C312.229 48.104 313.835 47.6237 315.497 46.6638C321.119 43.4146 325.688 35.5224 325.669 29.0613C325.669 25.8116 324.525 23.3747 322.475 22.1933V22.1929ZM314.925 45.657C312.451 47.0785 310.162 47.328 308.472 46.3587C306.792 45.3894 305.86 43.3128 305.851 40.4973C305.832 34.4048 310.134 26.9558 315.432 23.8912C317.906 22.4697 320.196 22.2202 321.894 23.1895C323.574 24.1589 324.506 26.2451 324.516 29.0605C324.534 35.1524 320.232 42.6017 314.925 45.6567V45.657Z" fill="#3D3D3D"/>
<path d="M315.487 28.1005C315.81 28.1005 316.069 27.8421 316.069 27.5191V26.2085C316.069 25.8944 315.81 25.636 315.487 25.636C315.173 25.636 314.915 25.8944 314.915 26.2174V27.528C314.915 27.8421 315.174 28.1005 315.487 28.1005Z" fill="#3D3D3D"/>
<path d="M315.524 41.0336C315.201 41.0336 314.942 41.2919 314.942 41.6148V42.9254C314.942 43.2396 315.201 43.4978 315.524 43.4978C315.838 43.4978 316.096 43.2396 316.096 42.9167V41.606C316.106 41.2919 315.847 41.0336 315.524 41.0336Z" fill="#3D3D3D"/>
<path d="M311.906 30.4081C312.017 30.5649 312.192 30.6479 312.377 30.6479C312.497 30.6479 312.608 30.6111 312.709 30.5371C312.967 30.3528 313.032 29.9925 312.848 29.7339L312.275 28.9308C312.091 28.6724 311.73 28.6078 311.472 28.7922C311.214 28.9767 311.149 29.337 311.333 29.5953L311.906 30.4081Z" fill="#3D3D3D"/>
<path d="M319.023 38.4019C318.838 38.1436 318.478 38.079 318.22 38.2632C317.961 38.4478 317.897 38.8081 318.081 39.0667L318.653 39.8699C318.764 40.0266 318.94 40.11 319.124 40.11C319.244 40.11 319.355 40.0728 319.457 39.9988C319.715 39.8146 319.78 39.4542 319.595 39.1957L319.023 38.4019Z" fill="#3D3D3D"/>
<path d="M308.665 35.1992L309.652 35.2819H309.698C309.994 35.2819 310.243 35.0512 310.271 34.7557C310.299 34.4419 310.058 34.1559 309.745 34.1281L308.757 34.0453C308.434 34.0082 308.157 34.2576 308.129 34.5715C308.111 34.8944 308.342 35.1714 308.665 35.1992Z" fill="#3D3D3D"/>
<path d="M321.386 35.1348L320.398 35.052C320.084 35.0148 319.798 35.2643 319.771 35.5782C319.743 35.892 319.983 36.1781 320.297 36.2058L321.284 36.2886H321.331C321.626 36.2886 321.875 36.0578 321.903 35.7624C321.94 35.4395 321.7 35.1625 321.386 35.1348Z" fill="#3D3D3D"/>
<path d="M309.552 38.3748C309.395 38.0975 309.044 38.0054 308.768 38.1622L307.623 38.827C307.346 38.9838 307.254 39.3347 307.411 39.6114C307.522 39.796 307.715 39.8975 307.909 39.8975C308.011 39.8975 308.103 39.8697 308.195 39.8235L309.34 39.159C309.617 39.0025 309.718 38.6518 309.552 38.3748Z" fill="#3D3D3D"/>
<path d="M322.17 30.4273L321.026 31.0921C320.749 31.2488 320.657 31.5998 320.814 31.8765C320.924 32.0611 321.118 32.1626 321.312 32.1626C321.414 32.1626 321.506 32.1348 321.598 32.0886L322.743 31.424C323.02 31.267 323.112 30.916 322.955 30.6393C322.807 30.3629 322.457 30.2611 322.17 30.4273Z" fill="#3D3D3D"/>
<path d="M309.597 41.2086L308.61 42.4364C308.406 42.6853 308.453 43.046 308.692 43.2487C308.803 43.3314 308.923 43.3777 309.052 43.3777C309.219 43.3777 309.385 43.3037 309.505 43.1653L310.492 41.9375C310.695 41.6885 310.649 41.3282 310.409 41.1255C310.16 40.9228 309.8 40.9597 309.597 41.2086Z" fill="#3D3D3D"/>
<path d="M320.648 28.9685C320.814 28.9685 320.98 28.8946 321.1 28.756L322.087 27.5283C322.29 27.2792 322.244 26.9189 322.004 26.7162C321.755 26.513 321.395 26.55 321.192 26.799L320.205 28.0267C320.001 28.2762 320.038 28.6362 320.287 28.8393C320.389 28.9222 320.518 28.9685 320.648 28.9685Z" fill="#3D3D3D"/>
<path d="M312.626 42.1131C312.331 41.9932 311.999 42.1499 311.879 42.4453L311.316 43.913C311.205 44.2084 311.353 44.5407 311.648 44.6606C311.713 44.6881 311.786 44.6975 311.851 44.6975C312.082 44.6975 312.303 44.5591 312.387 44.3284L312.95 42.8604C313.069 42.5562 312.922 42.2239 312.626 42.1131Z" fill="#3D3D3D"/>
<path d="M318.312 27.4358C318.377 27.4634 318.451 27.4728 318.515 27.4728C318.746 27.4728 318.967 27.3342 319.051 27.1035L319.614 25.6356C319.725 25.3403 319.577 25.0079 319.281 24.8881C318.986 24.7683 318.654 24.9251 318.534 25.2204L317.971 26.6882C317.86 26.993 318.007 27.3253 318.312 27.4358Z" fill="#3D3D3D"/>
<path d="M315.874 34.4799L315.884 31.0921C315.884 30.6952 315.579 30.3997 315.21 30.455C314.831 30.51 314.517 30.8794 314.517 31.2857L314.499 34.6735C313.963 35.0242 313.603 35.6519 313.603 36.3445C313.603 37.2951 314.305 37.9599 315.191 37.8306C316.068 37.7107 316.769 36.8429 316.779 35.8923C316.77 35.2091 316.41 34.6826 315.874 34.4799Z" fill="#3D3D3D"/>
<path d="M256.586 37.47L256.503 8.99992L256.493 6.1333C256.493 4.87582 256.031 3.91422 255.199 3.43319C255.181 3.42383 255.162 3.41488 255.144 3.40552L249.836 0.308207C248.995 -0.172825 247.922 -0.0893823 246.812 0.548717L228.698 11.0156C226.618 12.2177 224.991 15.0379 225 17.4329L225.092 52.3663C225.092 53.6237 225.555 54.5854 226.378 55.0665L231.74 58.1917C231.75 58.2014 231.768 58.2014 231.787 58.2014C232.138 58.3953 232.527 58.4971 232.942 58.4971C233.516 58.4971 234.135 58.3122 234.764 57.9513L252.878 47.4935C254.968 46.2914 256.595 43.4622 256.586 41.0673V37.47ZM234.062 15.5462C234.256 15.3891 234.45 15.2503 234.653 15.1302L250.937 5.73573L252.767 4.68173C252.795 4.66298 252.823 4.65406 252.851 4.63531C253.008 4.5523 253.156 4.47824 253.304 4.42247C253.322 4.41311 253.341 4.41311 253.35 4.41311C253.498 4.35777 253.646 4.32074 253.785 4.30199C253.905 4.28371 254.007 4.29263 254.118 4.30199H254.229C254.368 4.3203 254.497 4.36672 254.608 4.43142L254.627 4.44078H254.636C255.089 4.70896 255.339 5.31004 255.339 6.13286L255.348 8.66655L231.538 22.4161L231.528 20.5482C231.528 20.2617 231.565 19.9564 231.63 19.6419C231.917 18.1349 232.879 16.5075 234.062 15.5459L234.062 15.5462ZM231.611 50.886L231.537 23.7477L255.356 9.99815L255.43 37.1366L231.611 50.886ZM226.97 54.0574C226.507 53.7892 226.257 53.1882 226.257 52.3561L226.165 17.4226C226.156 15.4717 227.58 12.9937 229.281 12.0133L247.395 1.55587C247.848 1.29705 248.274 1.16764 248.643 1.16764C248.875 1.16764 249.078 1.21404 249.263 1.31578L252.795 3.37783C252.767 3.38719 252.748 3.4055 252.721 3.41486C252.545 3.48894 252.36 3.57195 252.185 3.67368L249.605 5.16231L234.07 14.1316C233.83 14.2704 233.599 14.4368 233.367 14.6216C231.897 15.7866 230.76 17.71 230.455 19.5686C230.455 19.5962 230.446 19.615 230.437 19.6426C230.427 19.6796 230.437 19.7073 230.427 19.7444C230.39 20.0219 230.362 20.2901 230.362 20.5578L230.455 55.5C230.455 55.7217 230.473 55.9346 230.501 56.1382L226.97 54.0574ZM252.304 46.4844L234.2 56.9425C233.47 57.3678 232.813 57.4512 232.351 57.1829C232.212 57.1089 232.101 56.9887 232.009 56.8595C231.861 56.6465 231.741 56.3783 231.685 56.0548C231.658 55.879 231.639 55.6848 231.639 55.4725L231.629 52.2177L255.448 38.4683L255.458 41.0667C255.448 43.017 254.016 45.5046 252.304 46.4844Z" fill="#3D3D3D"/>
<path d="M239.554 15.8513C239.655 15.8513 239.748 15.8236 239.84 15.7772L244.269 13.2159C244.547 13.0588 244.639 12.7071 244.482 12.43C244.325 12.1525 243.973 12.0601 243.696 12.2172L239.267 14.7786C238.99 14.9357 238.897 15.2873 239.054 15.5644C239.165 15.7496 239.359 15.8513 239.554 15.8513Z" fill="#3D3D3D"/>
<path d="M245.943 12.1624C246.045 12.1624 246.137 12.1347 246.229 12.0883L247.616 11.2838C247.894 11.1267 247.986 10.7661 247.829 10.498C247.672 10.2204 247.32 10.1281 247.043 10.2851L245.656 11.0897C245.379 11.2467 245.286 11.6073 245.443 11.8755C245.545 12.0606 245.739 12.1624 245.943 12.1624Z" fill="#3D3D3D"/>
<path d="M244.777 46.2918C244.342 46.0424 243.778 46.0701 243.233 46.3843C242.308 46.9207 241.587 48.1687 241.587 49.2416C241.587 49.8608 241.837 50.3603 242.281 50.6101C242.475 50.7212 242.697 50.7765 242.928 50.7765C243.214 50.7765 243.529 50.6841 243.825 50.5177C244.749 49.9813 245.47 48.7332 245.47 47.6604C245.47 47.05 245.212 46.5416 244.777 46.2918ZM243.242 49.5188C243.048 49.63 242.909 49.6484 242.854 49.6113C242.798 49.5838 242.743 49.4542 242.743 49.2413C242.743 48.5849 243.242 47.725 243.815 47.3922C243.954 47.3182 244.065 47.281 244.139 47.281C244.167 47.281 244.194 47.2904 244.204 47.2995C244.259 47.327 244.315 47.4565 244.315 47.6692C244.315 48.3261 243.815 49.186 243.242 49.5188Z" fill="#3D3D3D"/>
<path d="M233.968 34.3545C234.061 34.4098 234.153 34.4285 234.255 34.4285C234.357 34.4285 234.458 34.4007 234.541 34.3545L253.025 23.6841C253.201 23.5824 253.311 23.3883 253.311 23.1848L253.293 14.6042C253.293 14.4007 253.182 14.2066 253.007 14.1049C252.831 14.0032 252.609 14.0032 252.433 14.1049L233.94 24.7658C233.764 24.8676 233.653 25.0617 233.653 25.2652L233.672 33.8456C233.681 34.0585 233.783 34.2528 233.967 34.3545H233.968ZM252.138 15.6029L252.156 22.852L234.829 32.8479L234.811 25.599L252.138 15.6029Z" fill="#3D3D3D"/>
<path d="M241.745 32.6807C241.56 32.5789 241.347 32.5789 241.172 32.6807L233.793 36.9431C233.617 37.0449 233.506 37.2388 233.506 37.4423L233.534 42.8516C233.534 43.0551 233.645 43.2491 233.821 43.3508C233.913 43.4064 234.005 43.4251 234.107 43.4251C234.209 43.4251 234.31 43.3973 234.393 43.3508L241.772 39.0884C241.948 38.9867 242.059 38.7927 242.059 38.5892L242.031 33.18C242.032 32.9764 241.92 32.7912 241.745 32.6807ZM234.671 41.853L234.653 37.7752L240.876 34.1782L240.894 38.2557L234.671 41.853Z" fill="#3D3D3D"/>
<path d="M245.222 36.7858C245.314 36.8411 245.406 36.8598 245.508 36.8598C245.61 36.8598 245.712 36.8323 245.795 36.7858L253.174 32.5234C253.35 32.4216 253.46 32.2274 253.46 32.0242L253.433 26.6148C253.433 26.4114 253.321 26.2172 253.146 26.1155C252.97 26.0138 252.748 26.0138 252.573 26.1155L245.194 30.378C245.018 30.4795 244.907 30.6737 244.907 30.8773L244.935 36.2865C244.935 36.4901 245.046 36.684 245.222 36.7858ZM252.295 27.6131L252.313 31.6907L246.091 35.2877L246.072 31.2102L252.295 27.6131Z" fill="#3D3D3D"/>
<path d="M241.189 41.5199L233.811 45.7823C233.533 45.9394 233.441 46.2909 233.598 46.5679C233.709 46.7528 233.903 46.8545 234.097 46.8545C234.199 46.8545 234.291 46.8267 234.384 46.7805L241.762 42.5181C242.04 42.3611 242.132 42.0092 241.975 41.7322C241.828 41.455 241.467 41.3628 241.189 41.5199Z" fill="#3D3D3D"/>
<path d="M252.6 35.0574L245.221 39.3198C244.944 39.4769 244.851 39.8375 245.008 40.1057C245.12 40.2903 245.314 40.3921 245.508 40.3921C245.609 40.3921 245.702 40.3646 245.794 40.3181L253.173 36.0557C253.451 35.8986 253.543 35.538 253.386 35.2698C253.229 34.9928 252.878 34.9004 252.6 35.0574Z" fill="#3D3D3D"/>
<path d="M38.9383 10.3979L38.9202 5.60639C38.9202 4.4793 38.508 3.62735 37.7563 3.19672C37.747 3.19672 37.7382 3.19672 37.7382 3.18745C37.7382 3.18745 37.7289 3.18745 37.7289 3.17818L32.7265 0.273775C31.9754 -0.156875 30.995 -0.0742067 30.0236 0.484666L3.27104 15.9223C2.46498 16.3897 1.74119 17.1134 1.16371 18.0022C0.989507 18.2586 0.833876 18.5337 0.687107 18.8542C0.256452 19.7336 0.036707 20.6409 0.0181342 21.493C0.00886239 21.5204 0 21.5478 0 21.5845L0.082247 52.3496C0.100381 53.4581 0.503601 54.3102 1.24593 54.75L6.24834 57.6451C6.25764 57.6544 6.2665 57.6632 6.28504 57.6726C6.60561 57.8557 6.97215 57.9475 7.35683 57.9475C7.8697 57.9475 8.41972 57.7825 8.98749 57.462L35.7402 42.0158C37.5817 40.9529 39.0108 38.4703 39.0108 36.363L38.9383 10.3979ZM6.21213 28.3007L6.20285 24.4987C6.20285 24.3886 6.20285 24.2696 6.22099 24.1596C6.22099 24.1414 6.22099 24.1229 6.23026 24.1047C6.30364 23.2987 6.63351 22.3915 7.17382 21.558C7.65042 20.816 8.25487 20.2112 8.89638 19.8447L35.6393 4.40702C35.8409 4.28807 36.0333 4.21469 36.2164 4.15057C36.4548 4.07719 36.6744 4.04975 36.8669 4.07719C36.9128 4.08646 36.9582 4.10459 37.0044 4.12314C37.0591 4.1413 37.1231 4.15057 37.1784 4.17798L37.1965 4.18725H37.2059C37.5817 4.40702 37.783 4.91106 37.783 5.59811L37.7923 10.0598L33.193 12.7166L32.3775 11.223C32.3041 11.0855 32.176 10.9847 32.0298 10.948C31.883 10.902 31.718 10.9299 31.5896 11.0028L27.8426 13.1649C27.7235 13.2383 27.6317 13.348 27.586 13.4854L26.5872 16.5363L6.21213 28.3007ZM1.73189 19.3588C1.86012 19.0838 1.98834 18.8548 2.13511 18.635C2.61175 17.8931 3.2162 17.2882 3.85771 16.9217L30.6103 1.48408C31.2152 1.12682 31.7829 1.05343 32.1588 1.27319L35.4846 3.20623C35.3746 3.25217 35.265 3.31629 35.1641 3.37113C35.1275 3.38926 35.1 3.39853 35.0631 3.41711C35.0541 3.41711 35.0541 3.42638 35.045 3.43524L8.31942 18.8545C7.51339 19.3219 6.78961 20.0456 6.21213 20.9433C5.571 21.9328 5.17705 23.0231 5.09433 23.9667C5.06693 24.1409 5.04836 24.3146 5.04836 24.4888V24.507V24.5162L5.05763 28.2909L1.1822 26.0372L1.17292 21.5844C1.17292 20.8978 1.37465 20.11 1.73189 19.3588ZM1.2464 52.3409L1.18228 27.3568L5.06702 29.6197L5.14043 55.2721C5.14043 55.4277 5.16784 55.5559 5.18641 55.7027L1.86056 53.779C1.4662 53.5412 1.2557 53.0279 1.2464 52.3409ZM35.1731 41.0258L8.42048 56.4719C7.81565 56.82 7.2568 56.8934 6.88136 56.6919C6.87209 56.6919 6.87209 56.6825 6.86323 56.6825L6.83582 56.6644C6.47855 56.4354 6.27694 55.9498 6.27694 55.2716L6.20356 29.6367L27.3488 17.4328C27.4679 17.3594 27.5597 17.2498 27.6054 17.1123L28.6042 14.0614L31.6551 12.3026L32.4703 13.7962C32.5437 13.9337 32.6718 14.0344 32.8183 14.0712C32.9651 14.1079 33.1301 14.0893 33.2582 14.0163L37.7932 11.3961L37.8666 36.3714C37.8751 38.0477 36.6385 40.1822 35.1728 41.0252L35.1731 41.0258Z" fill="#3D3D3D"/>
<path d="M10.8939 21.0253C10.4633 20.7782 9.9044 20.8144 9.36409 21.1169C8.44797 21.6483 7.7334 22.885 7.7334 23.9479C7.7334 24.5616 7.98058 25.0564 8.42051 25.304C8.61284 25.4141 8.83259 25.469 9.06163 25.469C9.34549 25.469 9.65719 25.3774 9.95035 25.2125C10.8665 24.6811 11.581 23.4444 11.581 22.3814C11.5722 21.7673 11.3246 21.2725 10.8939 21.0253ZM9.37339 24.2136C9.18106 24.3237 9.04353 24.3418 8.98872 24.3051C8.93388 24.2777 8.87863 24.1495 8.87863 23.9386C8.87863 23.2882 9.37339 22.4362 9.94155 22.1063C10.079 22.0329 10.1887 21.9962 10.2621 21.9962C10.2895 21.9962 10.317 22.0055 10.3262 22.0144C10.3811 22.0418 10.4363 22.17 10.4363 22.3809C10.4359 23.0317 9.94111 23.893 9.37339 24.2136Z" fill="#3D3D3D"/>
<path d="M15.2548 18.5061C14.8148 18.2589 14.256 18.2863 13.7157 18.5976C12.7995 19.1291 12.085 20.3658 12.085 21.4287C12.085 22.0424 12.3321 22.5372 12.7721 22.7848C12.9644 22.8949 13.1841 22.9497 13.4132 22.9497C13.6971 22.9497 14.0088 22.8582 14.3019 22.6932C15.2273 22.1618 15.9419 20.9158 15.9419 19.8621C15.9326 19.248 15.6854 18.7625 15.2548 18.5061ZM13.7245 21.7032C13.5322 21.8133 13.3947 21.8222 13.3398 21.7947C13.285 21.7673 13.2297 21.6391 13.2297 21.4282C13.2297 20.7778 13.7245 19.9258 14.2927 19.5959C14.485 19.4858 14.6318 19.4677 14.6866 19.5044C14.7415 19.5318 14.7967 19.66 14.7967 19.8709C14.7967 20.5125 14.2927 21.3733 13.7245 21.7032Z" fill="#3D3D3D"/>
<path d="M19.6073 15.9956C19.1673 15.7485 18.6085 15.7759 18.0681 16.0872C17.152 16.6186 16.4463 17.8553 16.4463 18.909C16.4463 19.5227 16.6935 20.0268 17.1334 20.2739C17.3257 20.384 17.5366 20.4388 17.7657 20.4388C18.0495 20.4388 18.3519 20.3566 18.6544 20.1824C19.5798 19.6509 20.2944 18.405 20.2944 17.3513C20.2856 16.7376 20.0379 16.2432 19.6073 15.9956ZM18.0774 19.1932C17.8665 19.3122 17.7383 19.3033 17.7016 19.2847C17.6649 19.2666 17.5915 19.1565 17.5915 18.9089C17.5915 18.2585 18.077 17.4065 18.6451 17.0855C18.8375 16.9754 18.9843 16.9573 19.0391 16.994C19.0939 17.0214 19.1492 17.1496 19.1492 17.3605C19.1492 18.002 18.6451 18.8633 18.0774 19.1932Z" fill="#3D3D3D"/>
<path d="M23.326 28.9778C23.326 29.2895 23.5826 29.546 23.9031 29.546C24.2237 29.546 24.4714 29.2895 24.4714 28.9689C24.4621 26.3669 23.1886 26.083 22.639 26.083C22.0254 26.083 21.283 26.3213 20.5044 26.7794C20.2292 26.935 20.1377 27.2923 20.2936 27.558C20.4492 27.833 20.7975 27.9245 21.0722 27.7689C21.6677 27.4298 22.2357 27.2281 22.6387 27.2281C23.2714 27.2277 23.326 28.5657 23.326 28.9778Z" fill="#3D3D3D"/>
<path d="M31.0492 35.5743L26.2852 33.6594C26.8807 32.0834 27.2199 30.471 27.2199 28.9594C27.2106 26.5772 26.3586 24.7816 24.8195 23.8929C23.2617 22.9949 21.2372 23.1691 19.1207 24.3969C15.0344 26.7607 11.7178 32.5236 11.7364 37.242C11.7457 39.6515 12.5884 41.4746 14.1276 42.3541C14.7687 42.7206 15.4926 42.913 16.2715 42.913C17.3526 42.913 18.5251 42.5556 19.7437 41.8595C20.7607 41.273 21.732 40.476 22.6115 39.5415L26.8716 42.8121C27.2012 43.0686 27.5952 43.188 28.026 43.188C28.4841 43.188 28.9696 43.0411 29.4735 42.7574C30.2434 42.3175 30.9576 41.5573 31.4981 40.6319C32.2679 39.2944 32.5151 37.8194 32.1483 36.7746C31.9474 36.1976 31.5715 35.7758 31.0492 35.5743ZM19.176 40.8697C17.4627 41.8595 15.8687 42.0335 14.705 41.3646C13.5414 40.6957 12.8909 39.2297 12.8909 37.2414C12.8816 32.9536 15.9966 27.5302 19.7075 25.3953C20.7519 24.7904 21.7508 24.4884 22.6487 24.4884C23.2442 24.4884 23.7844 24.6259 24.2612 24.9005C25.4337 25.5783 26.0752 27.026 26.0845 28.9775C26.0845 30.5075 25.6999 32.1566 25.0403 33.7509C25.0403 33.7603 25.031 33.769 25.0219 33.7784C25.0219 33.7878 25.0219 33.7965 25.0128 33.8059C24.3164 35.4731 23.3088 37.0765 22.1175 38.4143C22.1085 38.4237 22.0994 38.4237 22.0994 38.4324C22.0994 38.4324 22.0994 38.4418 22.0903 38.4418C21.2012 39.4225 20.2211 40.2654 19.1761 40.87L19.176 40.8697ZM30.5095 40.0639C30.0693 40.815 29.5016 41.4199 28.9061 41.7679C28.6496 41.9145 28.0082 42.226 27.5774 41.9054L23.3817 38.6805C24.3618 37.4892 25.205 36.1335 25.8461 34.7135L30.6283 36.6284C30.8298 36.7106 30.9854 36.8849 31.077 37.1505C31.325 37.8831 31.105 39.0285 30.5095 40.0639Z" fill="#3D3D3D"/>
<path d="M188.827 10.3735L188.809 5.59438C188.809 4.47045 188.397 3.62057 187.648 3.1912C187.639 3.1912 187.63 3.18199 187.63 3.18199C187.63 3.18199 187.621 3.18199 187.621 3.17275L182.641 0.275984C181.891 -0.153574 180.914 -0.0803418 179.945 0.486246L153.262 15.8836C152.458 16.3497 151.736 17.0715 151.16 17.9579C150.987 18.2137 150.831 18.488 150.685 18.8078C150.265 19.6759 150.037 20.5806 150.018 21.4213C150.009 21.4578 150 21.4943 150 21.531L150.082 52.2167C150.101 53.3223 150.503 54.1722 151.243 54.6107L156.232 57.4984C156.241 57.5074 156.25 57.5165 156.26 57.5259C156.579 57.7087 156.945 57.7999 157.329 57.7999C157.841 57.7999 158.389 57.6353 158.955 57.3156L185.638 41.9086C187.475 40.8486 188.901 38.3722 188.901 36.2707L188.827 10.3735ZM156.187 28.229L156.177 24.4368C156.177 24.4003 156.177 24.3728 156.168 24.3363C156.168 24.254 156.177 24.1628 156.205 24.044C156.278 23.2398 156.607 22.3352 157.146 21.5035C157.621 20.7634 158.233 20.1603 158.864 19.7948L185.538 4.39692C185.675 4.31464 185.803 4.25986 185.931 4.2051C185.949 4.19586 185.967 4.18682 185.985 4.17761C186.003 4.1684 186.013 4.1684 186.031 4.1684C186.296 4.07708 186.552 4.04038 186.771 4.06787C186.817 4.07708 186.853 4.09536 186.89 4.10437C186.954 4.12265 187.018 4.13187 187.073 4.16837L187.091 4.17761H187.1C187.466 4.39692 187.676 4.89947 187.676 5.58485L187.685 10.0351L156.187 28.229ZM151.718 19.3101C151.846 19.036 151.974 18.8075 152.12 18.5882C152.595 17.848 153.198 17.2449 153.838 16.8794L180.521 1.48206C181.124 1.12573 181.691 1.0525 182.065 1.27179L185.383 3.19989C185.273 3.24564 185.154 3.30963 185.044 3.37342C185.017 3.38284 184.989 3.39188 184.962 3.41013C184.953 3.41013 184.953 3.41937 184.944 3.41937L158.288 18.8076C157.493 19.2737 156.762 19.9956 156.186 20.891C155.547 21.878 155.154 22.9654 155.071 23.9066C155.044 24.0801 155.026 24.2539 155.026 24.4274C155.026 24.4639 155.026 24.5004 155.035 24.5371L155.044 28.2288L151.17 25.9717L151.16 21.5307C151.16 20.8455 151.362 20.0594 151.718 19.3101ZM151.828 53.6323C151.453 53.4039 151.234 52.9014 151.225 52.207L151.161 27.2875L155.044 29.5447L155.108 55.1038V55.1313C155.108 55.2685 155.117 55.4053 155.136 55.5335L151.828 53.6323ZM185.072 40.9215L158.389 56.3284C157.785 56.6756 157.237 56.7487 156.853 56.5384C156.844 56.5384 156.844 56.5294 156.844 56.5294C156.561 56.3647 156.369 56.0359 156.296 55.5788C156.268 55.4325 156.259 55.2866 156.259 55.1222L156.195 29.5447L187.694 11.3601L187.767 36.2704C187.767 37.9519 186.534 40.0809 185.072 40.9215Z" fill="#3D3D3D"/>
<path d="M160.856 20.9737C160.427 20.7269 159.869 20.7544 159.33 21.065C158.416 21.5951 157.704 22.8286 157.704 23.8888C157.704 24.5011 157.95 24.9945 158.389 25.2412C158.581 25.351 158.8 25.4057 159.029 25.4057C159.312 25.4057 159.622 25.3145 159.915 25.1499C160.829 24.6199 161.542 23.3863 161.542 22.3262C161.532 21.7138 161.286 21.2203 160.856 20.9737ZM159.339 24.1536C159.147 24.2634 159.01 24.2816 158.955 24.2449C158.901 24.2174 158.846 24.0896 158.846 23.8794C158.846 23.2305 159.339 22.3808 159.906 22.0518C160.097 21.942 160.235 21.9238 160.289 21.9605C160.344 21.988 160.399 22.1158 160.399 22.3351C160.399 22.9749 159.906 23.8338 159.339 24.1536Z" fill="#3D3D3D"/>
<path d="M165.206 18.4608C164.767 18.214 164.21 18.2415 163.67 18.5521C162.757 19.0822 162.044 20.3157 162.044 21.3759C162.044 21.9882 162.291 22.4816 162.729 22.7283C162.921 22.8381 163.141 22.8929 163.369 22.8929C163.652 22.8929 163.963 22.8015 164.255 22.637C165.178 22.1069 165.891 20.8642 165.891 19.8133C165.882 19.2009 165.635 18.7166 165.206 18.4608ZM163.68 21.6499C163.488 21.7597 163.342 21.7779 163.296 21.7412C163.241 21.7137 163.186 21.5859 163.186 21.3756C163.186 20.7268 163.68 19.8771 164.246 19.5481C164.383 19.475 164.493 19.4383 164.566 19.4383C164.593 19.4383 164.621 19.4476 164.639 19.4566C164.694 19.4841 164.749 19.6119 164.749 19.8221C164.749 20.4712 164.246 21.3209 163.68 21.6499Z" fill="#3D3D3D"/>
<path d="M169.545 15.9568C169.107 15.71 168.55 15.7375 168.01 16.0481C167.096 16.5782 166.384 17.8117 166.393 18.8626C166.393 19.475 166.639 19.9775 167.078 20.2241C167.27 20.3339 167.48 20.3886 167.709 20.3886C167.992 20.3886 168.293 20.3064 168.595 20.1328C169.518 19.6028 170.231 18.36 170.231 17.3091C170.222 16.6969 169.975 16.2036 169.545 15.9568ZM168.019 19.1459C167.809 19.2647 167.681 19.2556 167.645 19.2372C167.608 19.2189 167.535 19.1092 167.535 18.8626C167.535 18.2138 168.019 17.3641 168.586 17.044C168.778 16.9343 168.924 16.916 168.979 16.9528C169.034 16.9802 169.089 17.108 169.089 17.3183C169.089 17.9581 168.586 18.8171 168.019 19.1459Z" fill="#3D3D3D"/>
<path d="M184.825 7.82442L171.968 15.2447C171.694 15.3999 171.603 15.7565 171.758 16.0213C171.868 16.2041 172.06 16.3046 172.251 16.3046C172.352 16.3046 172.443 16.2771 172.535 16.2316L185.392 8.81133C185.666 8.65605 185.757 8.29951 185.602 8.03469C185.456 7.76043 185.1 7.66894 184.825 7.82442Z" fill="#3D3D3D"/>
<path d="M158.097 40.0633C158.097 40.0814 158.106 40.0908 158.106 40.0998C158.115 40.1727 158.134 40.2367 158.161 40.3008C158.17 40.3283 158.188 40.3464 158.207 40.3739C158.225 40.392 158.225 40.4195 158.243 40.438C158.271 40.4655 158.307 40.4836 158.334 40.5108C158.353 40.5201 158.362 40.5473 158.38 40.5567C158.389 40.5658 158.398 40.5567 158.408 40.5658C158.49 40.6117 158.572 40.6389 158.663 40.6389C158.755 40.6389 158.837 40.6114 158.919 40.5748C158.929 40.5658 158.947 40.5748 158.956 40.5658L185.228 25.3965C185.237 25.3873 185.237 25.3782 185.246 25.3782C185.319 25.3325 185.383 25.2685 185.429 25.1955C185.438 25.1862 185.438 25.1772 185.438 25.168C185.475 25.0949 185.493 25.0217 185.502 24.9395C185.502 24.9302 185.511 24.9212 185.511 24.9029L185.493 16.4227C185.493 16.4045 185.484 16.3953 185.484 16.3862C185.475 16.3132 185.456 16.2492 185.429 16.1852C185.42 16.1577 185.401 16.1394 185.383 16.1122C185.365 16.0939 185.365 16.0664 185.347 16.0482C185.319 16.0116 185.283 15.9934 185.246 15.9751C185.228 15.9659 185.228 15.9476 185.21 15.9386C185.2 15.9386 185.2 15.9386 185.191 15.9294C185.109 15.8836 185.027 15.8654 184.935 15.8654C184.917 15.8654 184.899 15.8746 184.881 15.8746C184.808 15.8838 184.744 15.8929 184.68 15.9294C184.67 15.9386 184.652 15.9294 184.634 15.9386L158.362 31.1077C158.353 31.117 158.353 31.1261 158.344 31.1261C158.271 31.1717 158.198 31.2358 158.161 31.3089C158.152 31.318 158.152 31.327 158.152 31.3364C158.115 31.4092 158.097 31.4826 158.088 31.5648C158.088 31.5739 158.079 31.583 158.079 31.6014L158.097 40.0633ZM159.212 32.0217L169.684 29.3536L159.23 38.7842L159.212 32.0217ZM172.069 28.7596L181.07 26.4658L163.077 36.8559L172.069 28.7596ZM184.369 24.4465L173.897 27.1148L184.351 17.6937L184.369 24.4465ZM171.512 27.7179L162.511 30.0114L180.503 19.6215L171.512 27.7179Z" fill="#3D3D3D"/>
<path d="M166.239 38.6282C166.066 38.5276 165.846 38.5276 165.673 38.6282L158.38 42.8406C158.207 42.9412 158.097 43.133 158.097 43.334L158.125 48.6794C158.125 48.8807 158.234 49.0723 158.408 49.1729C158.499 49.2276 158.591 49.246 158.691 49.246C158.792 49.246 158.892 49.2185 158.975 49.1729L166.267 44.9605C166.44 44.8599 166.55 44.668 166.55 44.4671L166.522 39.1216C166.522 38.9113 166.413 38.7288 166.239 38.6282ZM159.258 47.6838L159.239 43.654L165.389 40.0991L165.407 44.1292L159.258 47.6838Z" fill="#3D3D3D"/>
<path d="M175.905 33.045C175.732 32.9444 175.513 32.9444 175.339 33.045L168.047 37.2574C167.873 37.358 167.764 37.5499 167.764 37.7508L167.791 43.0963C167.791 43.2975 167.901 43.4891 168.074 43.5897C168.166 43.6444 168.257 43.6628 168.358 43.6628C168.458 43.6628 168.559 43.6353 168.641 43.5897L175.933 39.3773C176.107 39.2767 176.216 39.0848 176.216 38.8839L176.189 33.5384C176.189 33.3375 176.079 33.1453 175.905 33.045ZM168.915 42.1097L168.897 38.0796L175.046 34.525L175.065 38.5548L168.915 42.1097Z" fill="#3D3D3D"/>
<path d="M175.358 42.1011L168.066 46.3135C167.792 46.4688 167.7 46.816 167.856 47.0901C167.965 47.2729 168.157 47.3735 168.349 47.3735C168.45 47.3735 168.541 47.346 168.632 47.3004L175.925 43.088C176.199 42.9327 176.29 42.5852 176.135 42.3111C175.98 42.0371 175.632 41.9365 175.358 42.1011Z" fill="#3D3D3D"/>
<path d="M185.566 27.4709C185.392 27.3704 185.173 27.3704 184.999 27.4709L177.707 31.6833C177.534 31.7839 177.424 31.9758 177.424 32.1767L177.451 37.5222C177.451 37.7234 177.561 37.9153 177.734 38.0156C177.826 38.0703 177.917 38.0887 178.018 38.0887C178.118 38.0887 178.219 38.0612 178.301 38.0156L185.593 33.8032C185.767 33.7026 185.876 33.5108 185.876 33.3098L185.849 27.9643C185.849 27.7542 185.739 27.5714 185.566 27.4709ZM178.584 36.5266L178.566 32.4967L184.716 28.9418L184.734 32.972L178.584 36.5266Z" fill="#3D3D3D"/>
<path d="M185.026 36.5173L177.734 40.7296C177.46 40.885 177.368 41.2415 177.524 41.5065C177.633 41.6893 177.825 41.7896 178.017 41.7896C178.117 41.7896 178.209 41.7621 178.3 41.7168L185.592 37.5041C185.866 37.3488 185.958 36.9923 185.803 36.7276C185.648 36.4626 185.3 36.362 185.026 36.5173Z" fill="#3D3D3D"/>
<path d="M165.699 47.7663L158.407 51.9786C158.133 52.1339 158.042 52.4905 158.197 52.7555C158.307 52.938 158.499 53.0386 158.69 53.0386C158.791 53.0386 158.882 53.0111 158.974 52.9655L166.266 48.7531C166.54 48.5978 166.631 48.2412 166.476 47.9765C166.321 47.7022 165.973 47.6109 165.699 47.7663Z" fill="#3D3D3D"/>
<defs>
<linearGradient id="paint0_linear_1061_213" x1="351.874" y1="2.21159" x2="451.742" y2="125.064" gradientUnits="userSpaceOnUse">
<stop stop-color="white"/>
<stop offset="0.18113" stop-color="#BB62F1"/>
<stop offset="0.523151" stop-color="#EE4B60"/>
<stop offset="0.937839" stop-color="white"/>
</linearGradient>
</defs>
</svg>
