<svg width="69" height="15" viewBox="0 0 69 15" fill="none" xmlns="http://www.w3.org/2000/svg">
<path d="M15.15 6.36C15.8967 6.36 16.49 6.58667 16.93 7.04C17.3633 7.49333 17.58 8.06667 17.58 8.76C17.58 9.45333 17.36 10.0267 16.92 10.48C16.4667 10.9333 15.87 11.16 15.13 11.16C14.51 11.16 13.9867 10.9933 13.56 10.66C13.1733 10.3467 12.9 9.93333 12.74 9.42C12.58 8.9 12.5 8.25 12.5 7.47C12.5 6.29 12.7267 5.37 13.18 4.71C13.64 4.05 14.2967 3.72 15.15 3.72C15.77 3.72 16.2867 3.89 16.7 4.23C17.1133 4.57 17.3733 5.04 17.48 5.64H16.66C16.58 5.26667 16.4067 4.98 16.14 4.78C15.88 4.58 15.55 4.48 15.15 4.48C13.9633 4.48 13.36 5.43 13.34 7.33C13.5333 7.04333 13.7967 6.81 14.13 6.63C14.47 6.45 14.81 6.36 15.15 6.36ZM13.99 9.94C14.29 10.2467 14.67 10.4 15.13 10.4C15.5967 10.4 15.9733 10.2467 16.26 9.94C16.5533 9.62667 16.7 9.23333 16.7 8.76C16.7 8.28667 16.5533 7.89333 16.26 7.58C15.9733 7.27333 15.5967 7.12 15.13 7.12C14.67 7.12 14.29 7.27 13.99 7.57C13.69 7.88333 13.54 8.28 13.54 8.76C13.54 9.24667 13.69 9.64 13.99 9.94ZM18.0738 4.64V3.88H22.6438V4.54C21.0038 6.38 20.1505 8.53333 20.0838 11H19.2138C19.2472 9.76667 19.4605 8.64 19.8538 7.62C20.2538 6.59333 20.8605 5.6 21.6738 4.64H18.0738Z" fill="#646363"/>
<path d="M52.12 7H53.92V7.88H52.12V9.67H51.17V7.88H49.37V7H51.17V5.2H52.12V7ZM56.4207 3.88H57.2807V11H56.2107V5.92H54.5807V5.13L54.7407 5.12C55.254 5.08667 55.6374 4.98 55.8907 4.8C56.1507 4.61333 56.3274 4.30667 56.4207 3.88ZM59.653 11H58.443V9.81H59.653V11ZM61.9672 3.88H62.8272V11H61.7572V5.92H60.1272V5.13L60.2872 5.12C60.8005 5.08667 61.1839 4.98 61.4372 4.8C61.6972 4.61333 61.8739 4.30667 61.9672 3.88ZM68.8477 11H67.6977L66.0577 8.39L65.1977 9.23V11H64.2077V3.88H65.1977V8.08L67.4677 5.84H68.7177L66.7677 7.74L68.8477 11Z" fill="#7F7F7F"/>
<path d="M4.81795 12.0457L4.81436 12.0442L4.80308 12.0381C4.73707 12.0024 4.6716 11.9657 4.60667 11.928C3.82606 11.4712 3.09655 10.9346 2.43026 10.327C1.25026 9.24262 0 7.63349 0 5.65162C0 4.17279 1.26359 3.00004 2.78872 3.00004C3.21269 2.99799 3.63168 3.09011 4.01452 3.26954C4.39737 3.44897 4.73421 3.7111 5 4.03643C5.26585 3.71103 5.60277 3.44886 5.98571 3.26943C6.36864 3.09 6.78773 2.99791 7.2118 3.00004C8.73641 3.00004 10 4.17279 10 5.65162C10 7.63399 8.74974 9.24312 7.56974 10.3265C6.90346 10.9341 6.17395 11.4707 5.39333 11.9275C5.32841 11.9653 5.26293 12.0022 5.19692 12.0381L5.18564 12.0442L5.18205 12.0462L5.18051 12.0467C5.1249 12.0757 5.06293 12.0909 5 12.0909C4.93707 12.0909 4.8751 12.0757 4.81949 12.0467L4.81795 12.0457Z" fill="#E05534"/>
<path d="M42.5455 10.4615V12.3654C42.5455 12.7157 42.2705 13 41.9318 13H36.6136C36.4509 13 36.2948 12.9331 36.1797 12.8141C36.0647 12.6951 36 12.5337 36 12.3654V5.17308C36 4.82277 36.2749 4.53846 36.6136 4.53846H37.6364C37.9105 4.53827 38.1842 4.56167 38.4545 4.60841M42.5455 10.4615H44.3864C44.7251 10.4615 45 10.1772 45 9.82692V7.07692C45 4.56103 43.2311 2.47328 40.9091 2.06995C40.6387 2.02321 40.365 1.99981 40.0909 2H39.0682C38.7295 2 38.4545 2.28431 38.4545 2.63462V4.60841M42.5455 10.4615H39.0682C38.9054 10.4615 38.7494 10.3947 38.6343 10.2757C38.5192 10.1567 38.4545 9.99523 38.4545 9.82692V4.60841M45 8.34615V7.28846C45 6.78353 44.806 6.29928 44.4608 5.94224C44.1156 5.5852 43.6473 5.38462 43.1591 5.38462H42.3409C42.1782 5.38462 42.0221 5.31776 41.907 5.19874C41.7919 5.07973 41.7273 4.91831 41.7273 4.75V3.90385C41.7273 3.65383 41.6797 3.40626 41.5871 3.17528C41.4946 2.94429 41.359 2.73441 41.1881 2.55762C41.0171 2.38084 40.8142 2.2406 40.5908 2.14492C40.3675 2.04925 40.1281 2 39.8864 2H39.2727" stroke="#7F7F7F" stroke-linecap="round" stroke-linejoin="round"/>
</svg>
