<svg width="52" height="15" viewBox="0 0 52 15" fill="none" xmlns="http://www.w3.org/2000/svg">
<path d="M14.97 6.36C15.73 6.36 16.3233 6.58333 16.75 7.03C17.1767 7.47667 17.39 8.05333 17.39 8.76C17.39 9.46 17.1667 10.0333 16.72 10.48C16.2667 10.9333 15.6667 11.16 14.92 11.16C14.24 11.16 13.6767 10.9633 13.23 10.57C12.7833 10.1833 12.54 9.66667 12.5 9.02H13.34C13.38 9.44667 13.5467 9.78333 13.84 10.03C14.1333 10.2767 14.4933 10.4 14.92 10.4C15.3867 10.4 15.7667 10.25 16.06 9.95C16.36 9.64333 16.51 9.24667 16.51 8.76C16.51 8.27333 16.36 7.88 16.06 7.58C15.7667 7.27333 15.3867 7.12 14.92 7.12C14.22 7.12 13.7333 7.40667 13.46 7.98H12.68L13.28 3.88H16.96V4.64H13.96L13.62 6.88C14.0067 6.53333 14.4567 6.36 14.97 6.36Z" fill="#646363"/>
<path d="M44.39 7.2C45.19 7.58667 45.59 8.18 45.59 8.98C45.59 9.63333 45.3567 10.16 44.89 10.56C44.4167 10.96 43.8 11.16 43.04 11.16C42.2067 11.16 41.56 10.9467 41.1 10.52C40.6467 10.0933 40.42 9.50667 40.42 8.76H41.46C41.4867 9.74 42.01 10.23 43.03 10.23C43.4767 10.23 43.83 10.1167 44.09 9.89C44.35 9.65667 44.48 9.34667 44.48 8.96C44.48 8.55333 44.3467 8.23667 44.08 8.01C43.8133 7.77667 43.4433 7.66 42.97 7.66H42.44V6.83H42.94C43.3867 6.83 43.7267 6.73667 43.96 6.55C44.2 6.35667 44.32 6.08 44.32 5.72C44.32 5.38 44.2 5.11333 43.96 4.92C43.7267 4.72667 43.4033 4.63 42.99 4.63C42.1033 4.63 41.64 5.05 41.6 5.89H40.55C40.5633 5.21 40.7833 4.68 41.21 4.3C41.6433 3.91333 42.24 3.72 43 3.72C43.72 3.72 44.2933 3.89333 44.72 4.24C45.1533 4.58667 45.37 5.06 45.37 5.66C45.37 6.34667 45.0433 6.86 44.39 7.2ZM50.3908 7.2C51.1908 7.58667 51.5908 8.18 51.5908 8.98C51.5908 9.63333 51.3574 10.16 50.8908 10.56C50.4174 10.96 49.8008 11.16 49.0408 11.16C48.2074 11.16 47.5608 10.9467 47.1008 10.52C46.6474 10.0933 46.4208 9.50667 46.4208 8.76H47.4608C47.4874 9.74 48.0108 10.23 49.0308 10.23C49.4774 10.23 49.8308 10.1167 50.0908 9.89C50.3508 9.65667 50.4808 9.34667 50.4808 8.96C50.4808 8.55333 50.3474 8.23667 50.0808 8.01C49.8141 7.77667 49.4441 7.66 48.9708 7.66H48.4408V6.83H48.9408C49.3874 6.83 49.7274 6.73667 49.9608 6.55C50.2008 6.35667 50.3208 6.08 50.3208 5.72C50.3208 5.38 50.2008 5.11333 49.9608 4.92C49.7274 4.72667 49.4041 4.63 48.9908 4.63C48.1041 4.63 47.6408 5.05 47.6008 5.89H46.5508C46.5641 5.21 46.7841 4.68 47.2108 4.3C47.6441 3.91333 48.2408 3.72 49.0008 3.72C49.7208 3.72 50.2941 3.89333 50.7208 4.24C51.1541 4.58667 51.3708 5.06 51.3708 5.66C51.3708 6.34667 51.0441 6.86 50.3908 7.2Z" fill="#7F7F7F"/>
<path d="M4.81795 12.0457L4.81436 12.0442L4.80308 12.0381C4.73707 12.0024 4.6716 11.9657 4.60667 11.928C3.82606 11.4712 3.09655 10.9346 2.43026 10.327C1.25026 9.24262 0 7.63349 0 5.65162C0 4.17279 1.26359 3.00004 2.78872 3.00004C3.21269 2.99799 3.63168 3.09011 4.01452 3.26954C4.39737 3.44897 4.73421 3.7111 5 4.03643C5.26585 3.71103 5.60277 3.44886 5.98571 3.26943C6.36864 3.09 6.78773 2.99791 7.2118 3.00004C8.73641 3.00004 10 4.17279 10 5.65162C10 7.63399 8.74974 9.24312 7.56974 10.3265C6.90346 10.9341 6.17395 11.4707 5.39333 11.9275C5.32841 11.9653 5.26293 12.0022 5.19692 12.0381L5.18564 12.0442L5.18205 12.0462L5.18051 12.0467C5.1249 12.0757 5.06293 12.0909 5 12.0909C4.93707 12.0909 4.8751 12.0757 4.81949 12.0467L4.81795 12.0457Z" fill="#E05534"/>
<path d="M33.5455 10.4615V12.3654C33.5455 12.7157 33.2705 13 32.9318 13H27.6136C27.4509 13 27.2948 12.9331 27.1797 12.8141C27.0647 12.6951 27 12.5337 27 12.3654V5.17308C27 4.82277 27.2749 4.53846 27.6136 4.53846H28.6364C28.9105 4.53827 29.1842 4.56167 29.4545 4.60841M33.5455 10.4615H35.3864C35.7251 10.4615 36 10.1772 36 9.82692V7.07692C36 4.56103 34.2311 2.47328 31.9091 2.06995C31.6387 2.02321 31.365 1.99981 31.0909 2H30.0682C29.7295 2 29.4545 2.28431 29.4545 2.63462V4.60841M33.5455 10.4615H30.0682C29.9054 10.4615 29.7494 10.3947 29.6343 10.2757C29.5192 10.1567 29.4545 9.99523 29.4545 9.82692V4.60841M36 8.34615V7.28846C36 6.78353 35.806 6.29928 35.4608 5.94224C35.1156 5.5852 34.6473 5.38462 34.1591 5.38462H33.3409C33.1782 5.38462 33.0221 5.31776 32.907 5.19874C32.7919 5.07973 32.7273 4.91831 32.7273 4.75V3.90385C32.7273 3.65383 32.6797 3.40626 32.5871 3.17528C32.4946 2.94429 32.359 2.73441 32.1881 2.55762C32.0171 2.38084 31.8142 2.2406 31.5908 2.14492C31.3675 2.04925 31.1281 2 30.8864 2H30.2727" stroke="#7F7F7F" stroke-linecap="round" stroke-linejoin="round"/>
</svg>
