<svg width="63" height="15" viewBox="0 0 63 15" fill="none" xmlns="http://www.w3.org/2000/svg">
<path d="M14.24 3.88H14.92V11H14.08V5.69H12.46V5.03L12.62 5.02C13.1267 4.98667 13.5033 4.88667 13.75 4.72C13.9967 4.55333 14.16 4.27333 14.24 3.88ZM20.7842 10.2C20.3509 10.84 19.7076 11.16 18.8542 11.16C17.9942 11.16 17.3509 10.84 16.9242 10.2C16.4909 9.55333 16.2742 8.63333 16.2742 7.44C16.2742 6.24667 16.4909 5.32667 16.9242 4.68C17.3509 4.04 17.9942 3.72 18.8542 3.72C19.7076 3.72 20.3509 4.04 20.7842 4.68C21.2176 5.32667 21.4342 6.24667 21.4342 7.44C21.4342 8.63333 21.2176 9.55333 20.7842 10.2ZM18.8542 4.48C17.7209 4.48 17.1542 5.46667 17.1542 7.44C17.1542 9.41333 17.7209 10.4 18.8542 10.4C19.9876 10.4 20.5542 9.41333 20.5542 7.44C20.5542 5.46667 19.9876 4.48 18.8542 4.48Z" fill="#646363"/>
<path d="M54.39 7.2C55.19 7.58667 55.59 8.18 55.59 8.98C55.59 9.63333 55.3567 10.16 54.89 10.56C54.4167 10.96 53.8 11.16 53.04 11.16C52.2067 11.16 51.56 10.9467 51.1 10.52C50.6467 10.0933 50.42 9.50667 50.42 8.76H51.46C51.4867 9.74 52.01 10.23 53.03 10.23C53.4767 10.23 53.83 10.1167 54.09 9.89C54.35 9.65667 54.48 9.34667 54.48 8.96C54.48 8.55333 54.3467 8.23667 54.08 8.01C53.8133 7.77667 53.4433 7.66 52.97 7.66H52.44V6.83H52.94C53.3867 6.83 53.7267 6.73667 53.96 6.55C54.2 6.35667 54.32 6.08 54.32 5.72C54.32 5.38 54.2 5.11333 53.96 4.92C53.7267 4.72667 53.4033 4.63 52.99 4.63C52.1033 4.63 51.64 5.05 51.6 5.89H50.55C50.5633 5.21 50.7833 4.68 51.21 4.3C51.6433 3.91333 52.24 3.72 53 3.72C53.72 3.72 54.2933 3.89333 54.72 4.24C55.1533 4.58667 55.37 5.06 55.37 5.66C55.37 6.34667 55.0433 6.86 54.39 7.2ZM60.498 7.2C61.3513 7.53333 61.778 8.12667 61.778 8.98C61.778 9.64667 61.5346 10.1733 61.048 10.56C60.5613 10.96 59.9146 11.16 59.108 11.16C58.3013 11.16 57.6546 10.96 57.168 10.56C56.6813 10.1733 56.438 9.64667 56.438 8.98C56.438 8.12667 56.8646 7.53333 57.718 7.2C57.058 6.88 56.728 6.37333 56.728 5.68C56.728 5.06667 56.9513 4.58667 57.398 4.24C57.8313 3.89333 58.4013 3.72 59.108 3.72C59.808 3.72 60.3813 3.89333 60.828 4.24C61.268 4.58667 61.488 5.06667 61.488 5.68C61.488 6.37333 61.158 6.88 60.498 7.2ZM60.478 5.71C60.478 5.35667 60.3513 5.08333 60.098 4.89C59.8446 4.69667 59.5146 4.6 59.108 4.6C58.7013 4.6 58.3713 4.69667 58.118 4.89C57.8646 5.08333 57.738 5.35667 57.738 5.71C57.738 6.06333 57.8646 6.33667 58.118 6.53C58.3713 6.72333 58.7013 6.82 59.108 6.82C59.5146 6.82 59.8446 6.72333 60.098 6.53C60.3513 6.33667 60.478 6.06333 60.478 5.71ZM57.948 9.91C58.2346 10.1433 58.6213 10.26 59.108 10.26C59.5946 10.26 59.9813 10.1433 60.268 9.91C60.548 9.67667 60.688 9.35333 60.688 8.94C60.688 8.52667 60.548 8.20667 60.268 7.98C59.988 7.74667 59.6013 7.63 59.108 7.63C58.608 7.63 58.218 7.74667 57.938 7.98C57.658 8.20667 57.518 8.52667 57.518 8.94C57.518 9.36 57.6613 9.68333 57.948 9.91Z" fill="#7F7F7F"/>
<path d="M4.81795 12.0457L4.81436 12.0442L4.80308 12.0381C4.73707 12.0024 4.6716 11.9657 4.60667 11.928C3.82606 11.4712 3.09655 10.9346 2.43026 10.327C1.25026 9.24262 0 7.63349 0 5.65162C0 4.17279 1.26359 3.00004 2.78872 3.00004C3.21269 2.99799 3.63168 3.09011 4.01452 3.26954C4.39737 3.44897 4.73421 3.7111 5 4.03643C5.26585 3.71103 5.60277 3.44886 5.98571 3.26943C6.36864 3.09 6.78773 2.99791 7.2118 3.00004C8.73641 3.00004 10 4.17279 10 5.65162C10 7.63399 8.74974 9.24312 7.56974 10.3265C6.90346 10.9341 6.17395 11.4707 5.39333 11.9275C5.32841 11.9653 5.26293 12.0022 5.19692 12.0381L5.18564 12.0442L5.18205 12.0462L5.18051 12.0467C5.1249 12.0757 5.06293 12.0909 5 12.0909C4.93707 12.0909 4.8751 12.0757 4.81949 12.0467L4.81795 12.0457Z" fill="#E05534"/>
<path d="M43.5455 10.4615V12.3654C43.5455 12.7157 43.2705 13 42.9318 13H37.6136C37.4509 13 37.2948 12.9331 37.1797 12.8141C37.0647 12.6951 37 12.5337 37 12.3654V5.17308C37 4.82277 37.2749 4.53846 37.6136 4.53846H38.6364C38.9105 4.53827 39.1842 4.56167 39.4545 4.60841M43.5455 10.4615H45.3864C45.7251 10.4615 46 10.1772 46 9.82692V7.07692C46 4.56103 44.2311 2.47328 41.9091 2.06995C41.6387 2.02321 41.365 1.99981 41.0909 2H40.0682C39.7295 2 39.4545 2.28431 39.4545 2.63462V4.60841M43.5455 10.4615H40.0682C39.9054 10.4615 39.7494 10.3947 39.6343 10.2757C39.5192 10.1567 39.4545 9.99523 39.4545 9.82692V4.60841M46 8.34615V7.28846C46 6.78353 45.806 6.29928 45.4608 5.94224C45.1156 5.5852 44.6473 5.38462 44.1591 5.38462H43.3409C43.1782 5.38462 43.0221 5.31776 42.907 5.19874C42.7919 5.07973 42.7273 4.91831 42.7273 4.75V3.90385C42.7273 3.65383 42.6797 3.40626 42.5871 3.17528C42.4946 2.94429 42.359 2.73441 42.1881 2.55762C42.0171 2.38084 41.8142 2.2406 41.5908 2.14492C41.3675 2.04925 41.1281 2 40.8864 2H40.2727" stroke="#7F7F7F" stroke-linecap="round" stroke-linejoin="round"/>
</svg>
