<svg width="18" height="18" viewBox="0 0 18 18" fill="none" xmlns="http://www.w3.org/2000/svg">
<path d="M9 0C6.61761 0.0071678 4.33463 0.956556 2.64875 2.64116C0.962862 4.32577 0.0107693 6.609 0 8.99318C0.007183 11.3797 0.957697 13.6665 2.64397 15.354C4.33024 17.0416 6.61526 17.9928 9 18C11.3858 17.9964 13.6729 17.0463 15.36 15.358C17.047 13.6696 17.9964 11.3808 18 8.99318C17.9928 6.6079 17.0418 4.32259 15.3552 2.63721C13.6685 0.951834 11.3835 0.00359228 9 0ZM6.98488 12.2634H5.32376V7.53519H7.03933L6.98488 12.2634ZM6.23601 6.81301C6.11984 6.8267 6.0021 6.81528 5.89073 6.77949C5.77937 6.74371 5.67697 6.6844 5.59048 6.60559C5.50399 6.52679 5.43543 6.43036 5.38941 6.32274C5.34339 6.21513 5.321 6.09886 5.32376 5.98184C5.3207 5.8653 5.34301 5.7495 5.38914 5.64244C5.43527 5.53538 5.50411 5.43965 5.59089 5.36188C5.67768 5.2841 5.78031 5.22613 5.89171 5.19201C6.00311 5.15789 6.12059 5.14842 6.23601 5.16427C6.45742 5.17471 6.66828 5.26206 6.8323 5.41128C6.99631 5.56049 7.10323 5.76225 7.13465 5.98184C7.13465 6.52688 6.8351 6.82665 6.23601 6.82665V6.81301ZM12.7579 12.2634H11.1241V9.71536C11.1241 9.11581 10.8926 8.66617 10.2935 8.66617C10.111 8.67146 9.93429 8.7314 9.78622 8.83828C9.63815 8.94517 9.52553 9.09408 9.46293 9.26572V12.1953H7.81544V7.54883H9.46293V8.21649C9.60896 7.9874 9.81017 7.79875 10.0481 7.6678C10.286 7.53684 10.553 7.46781 10.8245 7.46707C11.941 7.24906 12.7716 8.0666 12.7716 9.49734L12.7579 12.2634Z" fill="#3F3F3F"/>
</svg>
