<svg width="15" height="11" viewBox="0 0 15 11" fill="none" xmlns="http://www.w3.org/2000/svg">
<path d="M7.53406 7.04711C7.4057 7.12204 7.25986 7.16181 7.11123 7.16242C6.96299 7.15902 6.81784 7.11943 6.6884 7.04711L3.95521e-05 2.95978V8.39245C-0.00166157 8.66888 0.0515269 8.94291 0.156526 9.19862C0.261525 9.45433 0.416247 9.68666 0.611712 9.88212C0.807178 10.0776 1.0395 10.2323 1.29522 10.3373C1.55093 10.4423 1.82494 10.4955 2.10136 10.4938H12.1467C12.704 10.4938 13.2385 10.2724 13.6326 9.87833C14.0267 9.48426 14.248 8.94976 14.248 8.39245V2.95978L7.53406 7.04711Z" fill="#3F3F3F"/>
<path d="M12.1467 0H2.10134C1.62463 0.00355426 1.16329 0.169103 0.793085 0.469459C0.422879 0.769815 0.165814 1.1871 0.0640869 1.65284L7.13684 5.95801L14.1711 1.65284C14.0742 1.18705 13.8203 0.768709 13.4517 0.467816C13.0832 0.166924 12.6224 0.00177242 12.1467 0Z" fill="#3F3F3F"/>
</svg>
