<svg width="17" height="17" viewBox="0 0 17 17" fill="none" xmlns="http://www.w3.org/2000/svg">
<path d="M16.8831 14.8859L16.0645 15.71C15.5432 16.2379 14.8968 16.6231 14.1864 16.8291C13.476 17.0352 12.7251 17.0552 12.0048 16.8874C10.5298 16.4797 9.12655 15.8442 7.84493 15.0036C6.63265 14.2511 5.51136 13.3592 4.50364 12.346C3.58652 11.4343 2.76368 10.4312 2.0478 9.3521C1.26411 8.19445 0.645508 6.93192 0.210085 5.6013C-0.0361488 4.8366 -0.0665778 4.01807 0.122214 3.23698C0.311006 2.4559 0.711597 1.74296 1.27929 1.17767L2.24827 0.202087C2.31188 0.138007 2.3874 0.0871928 2.47053 0.0525108C2.55366 0.0178287 2.64276 0 2.73274 0C2.82273 0 2.91185 0.0178287 2.99498 0.0525108C3.07811 0.0871928 3.15363 0.138007 3.21724 0.202087L6.2411 3.24648C6.30475 3.31052 6.35524 3.38659 6.38969 3.47028C6.42414 3.55398 6.44187 3.64368 6.44187 3.73427C6.44187 3.82487 6.42414 3.91457 6.38969 3.99826C6.35524 4.08196 6.30475 4.15802 6.2411 4.22206L4.47022 6.0218C4.22055 6.26641 4.06763 6.594 4.03997 6.94364C4.01231 7.29328 4.1118 7.64109 4.31987 7.9224C4.96279 8.80563 5.6721 9.63787 6.44157 10.4118C7.30076 11.2831 8.23434 12.0766 9.23154 12.7834C9.51391 12.9795 9.85555 13.0701 10.1973 13.0394C10.539 13.0087 10.8593 12.8586 11.1027 12.6152L12.7733 10.9332C12.8369 10.8691 12.9124 10.8183 12.9956 10.7836C13.0787 10.7489 13.1678 10.731 13.2578 10.731C13.3478 10.731 13.4369 10.7489 13.52 10.7836C13.6031 10.8183 13.6787 10.8691 13.7423 10.9332L16.7661 13.9944C16.8914 14.1023 16.9727 14.253 16.9942 14.4176C17.0158 14.5821 16.9762 14.7489 16.8831 14.8859Z" fill="#3F3F3F"/>
</svg>
