<svg width="747" height="106" viewBox="0 0 747 106" fill="none" xmlns="http://www.w3.org/2000/svg">
<path fill-rule="evenodd" clip-rule="evenodd" d="M565.891 105.86C582.31 105.86 595.621 92.5495 595.621 76.13V29.7303C595.621 13.3108 582.31 0.000101073 565.891 9.96376e-05L473.411 9.15527e-05C456.991 9.01173e-05 443.68 13.3107 443.68 29.7303V33.8395L408 50.8239L443.68 75.3876V76.1299C443.68 92.5495 456.991 105.86 473.411 105.86L565.891 105.86Z" fill="url(#paint0_linear_1104_174)"/>
<path d="M495.106 85.809C487.731 85.809 481.759 83.8616 477.189 79.9667C472.515 76.0719 470.178 70.5152 470.178 63.2967V29.0997H485.758V63.4525C485.758 66.3606 486.563 68.5937 488.173 70.1517C489.835 71.7096 492.145 72.4886 495.106 72.4886C498.066 72.4886 500.351 71.7096 501.961 70.1517C503.622 68.5937 504.453 66.3606 504.453 63.4525V29.0997H520.033V63.2967C520.033 70.619 517.774 76.2017 513.256 80.0446C508.686 83.8876 502.636 85.809 495.106 85.809ZM574.402 29.0997L556.642 56.208L575.571 84.5627H557.498L554.227 79.4993C551.734 75.6564 549.449 72.0472 547.372 68.6716C547.216 68.8793 546.385 70.1776 544.879 72.5665C543.425 74.9553 541.997 77.2663 540.595 79.4993L537.323 84.5627H519.64L538.569 56.3638L520.809 29.0997H538.725L541.763 33.9293C544.204 37.8242 546.229 41.1478 547.839 43.9002C550.176 39.7976 552.175 36.474 553.837 33.9293L556.875 29.0997H574.402Z" fill="#0F0F0F"/>
<path d="M6.06818 87.5V17.6818H33.6136C38.9091 17.6818 43.4205 18.6931 47.1477 20.7159C50.875 22.7159 53.7159 25.5 55.6705 29.0681C57.6477 32.6136 58.6364 36.7045 58.6364 41.3409C58.6364 45.9772 57.6364 50.0681 55.6364 53.6136C53.6364 57.1591 50.7387 59.9204 46.9432 61.8977C43.1705 63.875 38.6023 64.8636 33.2386 64.8636H15.6818V53.0341H30.8523C33.6932 53.0341 36.0341 52.5454 37.875 51.5681C39.7386 50.5681 41.125 49.1931 42.0341 47.4431C42.9659 45.6704 43.4318 43.6363 43.4318 41.3409C43.4318 39.0227 42.9659 37 42.0341 35.2727C41.125 33.5227 39.7386 32.1704 37.875 31.2159C36.0114 30.2386 33.6477 29.75 30.7841 29.75H20.8296V87.5H6.06818ZM86.9271 88.5227C81.6316 88.5227 77.0521 87.3977 73.1884 85.1477C69.3475 82.875 66.3816 79.7159 64.2907 75.6704C62.1998 71.6022 61.1543 66.8863 61.1543 61.5227C61.1543 56.1136 62.1998 51.3863 64.2907 47.3409C66.3816 43.2727 69.3475 40.1136 73.1884 37.8636C77.0521 35.5909 81.6316 34.4545 86.9271 34.4545C92.2225 34.4545 96.7907 35.5909 100.632 37.8636C104.495 40.1136 107.473 43.2727 109.563 47.3409C111.654 51.3863 112.7 56.1136 112.7 61.5227C112.7 66.8863 111.654 71.6022 109.563 75.6704C107.473 79.7159 104.495 82.875 100.632 85.1477C96.7907 87.3977 92.2225 88.5227 86.9271 88.5227ZM86.9952 77.2727C89.4043 77.2727 91.4157 76.5909 93.0293 75.2272C94.643 73.8409 95.8589 71.9545 96.6771 69.5681C97.518 67.1818 97.9384 64.4659 97.9384 61.4204C97.9384 58.375 97.518 55.6591 96.6771 53.2727C95.8589 50.8863 94.643 49 93.0293 47.6136C91.4157 46.2272 89.4043 45.534 86.9952 45.534C84.5634 45.534 82.518 46.2272 80.8589 47.6136C79.2225 49 77.9839 50.8863 77.143 53.2727C76.3248 55.6591 75.9157 58.375 75.9157 61.4204C75.9157 64.4659 76.3248 67.1818 77.143 69.5681C77.9839 71.9545 79.2225 73.8409 80.8589 75.2272C82.518 76.5909 84.5634 77.2727 86.9952 77.2727ZM118.303 87.5V35.1363H132.383V44.2727H132.928C133.883 41.0227 135.485 38.5681 137.735 36.909C139.985 35.2272 142.576 34.3863 145.508 34.3863C146.235 34.3863 147.019 34.4318 147.86 34.5227C148.701 34.6136 149.439 34.7386 150.076 34.8977V47.784C149.394 47.5795 148.451 47.3977 147.246 47.2386C146.042 47.0795 144.939 47 143.939 47C141.803 47 139.894 47.4659 138.212 48.3977C136.553 49.3068 135.235 50.5795 134.258 52.2159C133.303 53.8522 132.826 55.7386 132.826 57.875V87.5H118.303ZM184.222 35.1363V46.0454H152.687V35.1363H184.222ZM159.847 22.5909H174.369V71.4091C174.369 72.75 174.574 73.7954 174.983 74.5454C175.392 75.2727 175.96 75.7841 176.687 76.0795C177.437 76.375 178.301 76.5227 179.278 76.5227C179.96 76.5227 180.642 76.4659 181.324 76.3522C182.006 76.2159 182.528 76.1136 182.892 76.0454L185.176 86.8522C184.449 87.0795 183.426 87.3409 182.108 87.6363C180.79 87.9545 179.187 88.1477 177.301 88.2159C173.801 88.3522 170.733 87.8863 168.097 86.8182C165.483 85.75 163.449 84.0909 161.994 81.8409C160.54 79.5909 159.824 76.75 159.847 73.3181V22.5909ZM218.001 35.1363V46.0454H185.683V35.1363H218.001ZM193.08 87.5V31.3522C193.08 27.5568 193.819 24.409 195.296 21.909C196.796 19.409 198.842 17.534 201.433 16.284C204.024 15.034 206.967 14.409 210.262 14.409C212.489 14.409 214.524 14.5795 216.364 14.9204C218.228 15.2613 219.614 15.5681 220.524 15.8409L217.933 26.75C217.364 26.5681 216.66 26.3977 215.819 26.2386C215.001 26.0795 214.16 26 213.296 26C211.16 26 209.671 26.5 208.83 27.5C207.989 28.4772 207.569 29.8522 207.569 31.625V87.5H193.08ZM244.817 88.5227C239.522 88.5227 234.942 87.3977 231.078 85.1477C227.238 82.875 224.272 79.7159 222.181 75.6704C220.09 71.6022 219.044 66.8863 219.044 61.5227C219.044 56.1136 220.09 51.3863 222.181 47.3409C224.272 43.2727 227.238 40.1136 231.078 37.8636C234.942 35.5909 239.522 34.4545 244.817 34.4545C250.113 34.4545 254.681 35.5909 258.522 37.8636C262.385 40.1136 265.363 43.2727 267.453 47.3409C269.544 51.3863 270.59 56.1136 270.59 61.5227C270.59 66.8863 269.544 71.6022 267.453 75.6704C265.363 79.7159 262.385 82.875 258.522 85.1477C254.681 87.3977 250.113 88.5227 244.817 88.5227ZM244.885 77.2727C247.294 77.2727 249.306 76.5909 250.919 75.2272C252.533 73.8409 253.749 71.9545 254.567 69.5681C255.408 67.1818 255.828 64.4659 255.828 61.4204C255.828 58.375 255.408 55.6591 254.567 53.2727C253.749 50.8863 252.533 49 250.919 47.6136C249.306 46.2272 247.294 45.534 244.885 45.534C242.453 45.534 240.408 46.2272 238.749 47.6136C237.113 49 235.874 50.8863 235.033 53.2727C234.215 55.6591 233.806 58.375 233.806 61.4204C233.806 64.4659 234.215 67.1818 235.033 69.5681C235.874 71.9545 237.113 73.8409 238.749 75.2272C240.408 76.5909 242.453 77.2727 244.885 77.2727ZM276.193 17.6818H290.716V71.8181C290.738 73.4772 291.034 74.6818 291.602 75.4318C292.193 76.1591 293.193 76.5227 294.602 76.5227C295.329 76.5 295.898 76.4545 296.307 76.3863C296.716 76.3181 297.057 76.2272 297.329 76.1136L299.648 86.6818C298.898 86.9091 297.977 87.1477 296.886 87.3977C295.818 87.625 294.375 87.7727 292.557 87.8409C286.988 88.0454 282.875 87 280.216 84.7045C277.557 82.3863 276.216 78.7386 276.193 73.7613V17.6818ZM301.228 87.5V35.1363H315.751V87.5H301.228ZM308.523 28.3863C306.364 28.3863 304.512 27.6704 302.967 26.2386C301.444 24.784 300.683 23.0454 300.683 21.0227C300.683 19.0227 301.444 17.3068 302.967 15.875C304.512 14.4204 306.364 13.6931 308.523 13.6931C310.683 13.6931 312.524 14.4204 314.046 15.875C315.592 17.3068 316.364 19.0227 316.364 21.0227C316.364 23.0454 315.592 24.784 314.046 26.2386C312.524 27.6704 310.683 28.3863 308.523 28.3863ZM347.203 88.5227C341.908 88.5227 337.328 87.3977 333.465 85.1477C329.624 82.875 326.658 79.7159 324.567 75.6704C322.476 71.6022 321.431 66.8863 321.431 61.5227C321.431 56.1136 322.476 51.3863 324.567 47.3409C326.658 43.2727 329.624 40.1136 333.465 37.8636C337.328 35.5909 341.908 34.4545 347.203 34.4545C352.499 34.4545 357.067 35.5909 360.908 37.8636C364.772 40.1136 367.749 43.2727 369.84 47.3409C371.931 51.3863 372.976 56.1136 372.976 61.5227C372.976 66.8863 371.931 71.6022 369.84 75.6704C367.749 79.7159 364.772 82.875 360.908 85.1477C357.067 87.3977 352.499 88.5227 347.203 88.5227ZM347.272 77.2727C349.681 77.2727 351.692 76.5909 353.306 75.2272C354.919 73.8409 356.135 71.9545 356.953 69.5681C357.794 67.1818 358.215 64.4659 358.215 61.4204C358.215 58.375 357.794 55.6591 356.953 53.2727C356.135 50.8863 354.919 49 353.306 47.6136C351.692 46.2272 349.681 45.534 347.272 45.534C344.84 45.534 342.794 46.2272 341.135 47.6136C339.499 49 338.26 50.8863 337.419 53.2727C336.601 55.6591 336.192 58.375 336.192 61.4204C336.192 64.4659 336.601 67.1818 337.419 69.5681C338.26 71.9545 339.499 73.8409 341.135 75.2272C342.794 76.5909 344.84 77.2727 347.272 77.2727Z" fill="#A2A2A2" fill-opacity="0.9"/>
<path d="M633.378 19.8188H631.626C631.522 19.3147 631.341 18.8719 631.082 18.4903C630.827 18.1087 630.517 17.7883 630.149 17.5292C629.786 17.2654 629.384 17.0676 628.941 16.9357C628.498 16.8037 628.036 16.7378 627.556 16.7378C626.679 16.7378 625.886 16.9592 625.174 17.402C624.468 17.8449 623.905 18.4973 623.485 19.3594C623.071 20.2215 622.864 21.2791 622.864 22.5323C622.864 23.7854 623.071 24.843 623.485 25.7051C623.905 26.5672 624.468 27.2197 625.174 27.6625C625.886 28.1053 626.679 28.3267 627.556 28.3267C628.036 28.3267 628.498 28.2608 628.941 28.1289C629.384 27.997 629.786 27.8015 630.149 27.5424C630.517 27.2785 630.827 26.9558 631.082 26.5743C631.341 26.188 631.522 25.7451 631.626 25.2458H633.378C633.247 25.9854 633.006 26.6473 632.658 27.2314C632.309 27.8156 631.876 28.3126 631.357 28.7224C630.839 29.1276 630.257 29.4362 629.612 29.6482C628.971 29.8601 628.286 29.9661 627.556 29.9661C626.321 29.9661 625.224 29.6646 624.263 29.0616C623.302 28.4586 622.546 27.6012 621.994 26.4895C621.443 25.3777 621.168 24.0586 621.168 22.5323C621.168 21.0059 621.443 19.6868 621.994 18.5751C622.546 17.4633 623.302 16.6059 624.263 16.0029C625.224 15.3999 626.321 15.0984 627.556 15.0984C628.286 15.0984 628.971 15.2044 629.612 15.4164C630.257 15.6284 630.839 15.9393 631.357 16.3491C631.876 16.7543 632.309 17.2489 632.658 17.8331C633.006 18.4125 633.247 19.0744 633.378 19.8188ZM638.78 30.0227C638.092 30.0227 637.468 29.8931 636.908 29.634C636.347 29.3702 635.902 28.991 635.572 28.4963C635.242 27.997 635.077 27.394 635.077 26.6873C635.077 26.0655 635.2 25.5614 635.445 25.1751C635.69 24.7841 636.017 24.4779 636.427 24.2565C636.837 24.0351 637.289 23.8702 637.784 23.7618C638.283 23.6488 638.785 23.5592 639.289 23.4933C639.949 23.4085 640.483 23.3449 640.893 23.3025C641.308 23.2554 641.609 23.1777 641.798 23.0693C641.991 22.961 642.087 22.7725 642.087 22.504V22.4475C642.087 21.7502 641.896 21.2085 641.515 20.8222C641.138 20.4359 640.566 20.2427 639.798 20.2427C639.002 20.2427 638.377 20.417 637.925 20.7657C637.473 21.1143 637.155 21.4864 636.971 21.8821L635.388 21.3168C635.671 20.6573 636.048 20.1438 636.519 19.7764C636.995 19.4042 637.513 19.1451 638.074 18.999C638.639 18.8483 639.195 18.7729 639.741 18.7729C640.09 18.7729 640.49 18.8153 640.943 18.9001C641.399 18.9802 641.84 19.1474 642.264 19.4018C642.693 19.6562 643.048 20.0402 643.331 20.5537C643.614 21.0672 643.755 21.755 643.755 22.6171V29.7683H642.087V28.2985H642.002C641.889 28.534 641.701 28.786 641.437 29.0546C641.173 29.3231 640.822 29.5516 640.384 29.74C639.946 29.9285 639.411 30.0227 638.78 30.0227ZM639.035 28.5246C639.694 28.5246 640.25 28.395 640.702 28.1359C641.159 27.8768 641.503 27.5424 641.734 27.1325C641.97 26.7227 642.087 26.2916 642.087 25.8393V24.313C642.017 24.3978 641.861 24.4755 641.621 24.5462C641.385 24.6121 641.112 24.671 640.801 24.7229C640.495 24.77 640.196 24.8124 639.904 24.85C639.616 24.883 639.383 24.9113 639.204 24.9348C638.771 24.9914 638.366 25.0832 637.989 25.2104C637.617 25.3329 637.315 25.519 637.084 25.7687C636.858 26.0137 636.745 26.3481 636.745 26.7721C636.745 27.3516 636.959 27.7897 637.388 28.0865C637.822 28.3785 638.37 28.5246 639.035 28.5246ZM654.089 21.3451L652.591 21.7691C652.497 21.5194 652.358 21.2768 652.174 21.0412C651.995 20.801 651.75 20.6031 651.439 20.4477C651.128 20.2922 650.73 20.2145 650.245 20.2145C649.581 20.2145 649.027 20.3676 648.584 20.6738C648.146 20.9753 647.927 21.3592 647.927 21.8256C647.927 22.2402 648.078 22.5676 648.379 22.8079C648.681 23.0481 649.152 23.2483 649.793 23.4085L651.404 23.8042C652.374 24.0398 653.097 24.4002 653.573 24.8854C654.049 25.3659 654.287 25.9854 654.287 26.7438C654.287 27.3657 654.108 27.9216 653.75 28.4115C653.397 28.9015 652.902 29.2878 652.266 29.5704C651.63 29.8531 650.89 29.9944 650.047 29.9944C648.94 29.9944 648.024 29.7541 647.298 29.2736C646.573 28.7931 646.113 28.0912 645.92 27.1678L647.503 26.7721C647.654 27.3563 647.939 27.7944 648.358 28.0865C648.782 28.3785 649.336 28.5246 650.019 28.5246C650.796 28.5246 651.413 28.3597 651.87 28.0299C652.332 27.6955 652.563 27.295 652.563 26.8286C652.563 26.4518 652.431 26.1361 652.167 25.8817C651.903 25.6226 651.498 25.4295 650.952 25.3023L649.143 24.8783C648.149 24.6428 647.418 24.2777 646.952 23.783C646.49 23.2837 646.26 22.6595 646.26 21.9104C646.26 21.298 646.431 20.7562 646.775 20.2851C647.124 19.814 647.597 19.4442 648.196 19.1757C648.799 18.9072 649.482 18.7729 650.245 18.7729C651.319 18.7729 652.162 19.0085 652.775 19.4796C653.392 19.9507 653.83 20.5725 654.089 21.3451ZM660.809 29.9944C659.829 29.9944 658.969 29.7612 658.23 29.2948C657.495 28.8284 656.92 28.176 656.505 27.3374C656.095 26.4989 655.891 25.519 655.891 24.3978C655.891 23.2672 656.095 22.2802 656.505 21.437C656.92 20.5937 657.495 19.9389 658.23 19.4725C658.969 19.0061 659.829 18.7729 660.809 18.7729C661.789 18.7729 662.646 19.0061 663.381 19.4725C664.121 19.9389 664.695 20.5937 665.105 21.437C665.52 22.2802 665.727 23.2672 665.727 24.3978C665.727 25.519 665.52 26.4989 665.105 27.3374C664.695 28.176 664.121 28.8284 663.381 29.2948C662.646 29.7612 661.789 29.9944 660.809 29.9944ZM660.809 28.4963C661.553 28.4963 662.166 28.3055 662.646 27.9239C663.127 27.5424 663.482 27.0406 663.713 26.4188C663.944 25.7969 664.059 25.1233 664.059 24.3978C664.059 23.6723 663.944 22.9963 663.713 22.3697C663.482 21.7432 663.127 21.2367 662.646 20.8505C662.166 20.4642 661.553 20.271 660.809 20.271C660.064 20.271 659.452 20.4642 658.972 20.8505C658.491 21.2367 658.135 21.7432 657.904 22.3697C657.674 22.9963 657.558 23.6723 657.558 24.3978C657.558 25.1233 657.674 25.7969 657.904 26.4188C658.135 27.0406 658.491 27.5424 658.972 27.9239C659.452 28.3055 660.064 28.4963 660.809 28.4963ZM675.563 21.3451L674.065 21.7691C673.971 21.5194 673.832 21.2768 673.648 21.0412C673.469 20.801 673.224 20.6031 672.913 20.4477C672.602 20.2922 672.204 20.2145 671.719 20.2145C671.055 20.2145 670.501 20.3676 670.058 20.6738C669.62 20.9753 669.401 21.3592 669.401 21.8256C669.401 22.2402 669.552 22.5676 669.853 22.8079C670.155 23.0481 670.626 23.2483 671.267 23.4085L672.878 23.8042C673.848 24.0398 674.571 24.4002 675.047 24.8854C675.523 25.3659 675.761 25.9854 675.761 26.7438C675.761 27.3657 675.582 27.9216 675.224 28.4115C674.87 28.9015 674.376 29.2878 673.74 29.5704C673.104 29.8531 672.364 29.9944 671.521 29.9944C670.414 29.9944 669.498 29.7541 668.772 29.2736C668.047 28.7931 667.587 28.0912 667.394 27.1678L668.977 26.7721C669.128 27.3563 669.413 27.7944 669.832 28.0865C670.256 28.3785 670.81 28.5246 671.493 28.5246C672.27 28.5246 672.887 28.3597 673.344 28.0299C673.806 27.6955 674.037 27.295 674.037 26.8286C674.037 26.4518 673.905 26.1361 673.641 25.8817C673.377 25.6226 672.972 25.4295 672.425 25.3023L670.616 24.8783C669.622 24.6428 668.892 24.2777 668.426 23.783C667.964 23.2837 667.733 22.6595 667.733 21.9104C667.733 21.298 667.905 20.7562 668.249 20.2851C668.598 19.814 669.071 19.4442 669.67 19.1757C670.273 18.9072 670.956 18.7729 671.719 18.7729C672.793 18.7729 673.636 19.0085 674.249 19.4796C674.866 19.9507 675.304 20.5725 675.563 21.3451ZM625.605 55.9944C624.701 55.9944 623.902 55.7659 623.21 55.309C622.517 54.8473 621.976 54.1972 621.585 53.3586C621.194 52.5154 620.998 51.519 620.998 50.3695C620.998 49.2295 621.194 48.2402 621.585 47.4016C621.976 46.5631 622.52 45.9153 623.217 45.4584C623.914 45.0014 624.72 44.7729 625.634 44.7729C626.34 44.7729 626.898 44.8907 627.308 45.1262C627.723 45.3571 628.039 45.6209 628.255 45.9177C628.477 46.2098 628.649 46.45 628.771 46.6385H628.912V41.2962H630.58V55.7683H628.969V54.1006H628.771C628.649 54.2985 628.474 54.5481 628.248 54.8496C628.022 55.1464 627.699 55.4126 627.28 55.6482C626.861 55.879 626.303 55.9944 625.605 55.9944ZM625.831 54.4963C626.5 54.4963 627.066 54.322 627.527 53.9734C627.989 53.6201 628.34 53.1325 628.58 52.5107C628.821 51.8841 628.941 51.161 628.941 50.3413C628.941 49.531 628.823 48.822 628.587 48.2143C628.352 47.6018 628.003 47.126 627.542 46.7869C627.08 46.443 626.51 46.271 625.831 46.271C625.125 46.271 624.536 46.4524 624.065 46.8151C623.598 47.1732 623.248 47.6607 623.012 48.2779C622.781 48.8903 622.666 49.5781 622.666 50.3413C622.666 51.1139 622.783 51.8158 623.019 52.4471C623.259 53.0736 623.613 53.573 624.079 53.9451C624.55 54.3126 625.134 54.4963 625.831 54.4963ZM638.019 55.9944C636.973 55.9944 636.071 55.7636 635.312 55.3019C634.559 54.8355 633.977 54.1854 633.567 53.3516C633.162 52.513 632.959 51.5378 632.959 50.4261C632.959 49.3143 633.162 48.3344 633.567 47.4864C633.977 46.6337 634.547 45.9695 635.277 45.4937C636.012 45.0132 636.869 44.7729 637.849 44.7729C638.415 44.7729 638.973 44.8671 639.524 45.0556C640.075 45.244 640.577 45.5502 641.029 45.9742C641.481 46.3935 641.842 46.9494 642.11 47.6419C642.379 48.3344 642.513 49.1871 642.513 50.1999V50.9066H634.146V49.465H640.817C640.817 48.8526 640.695 48.3061 640.45 47.8256C640.209 47.3451 639.865 46.9659 639.418 46.6879C638.975 46.41 638.452 46.271 637.849 46.271C637.185 46.271 636.61 46.4359 636.125 46.7657C635.644 47.0907 635.275 47.5147 635.016 48.0376C634.756 48.5605 634.627 49.1211 634.627 49.7194V50.6805C634.627 51.5002 634.768 52.195 635.051 52.765C635.338 53.3304 635.736 53.7614 636.245 54.0582C636.754 54.3503 637.345 54.4963 638.019 54.4963C638.457 54.4963 638.853 54.4351 639.206 54.3126C639.564 54.1854 639.873 53.997 640.132 53.7473C640.391 53.4929 640.591 53.1773 640.732 52.8004L642.343 53.2526C642.174 53.7991 641.889 54.2796 641.488 54.6942C641.088 55.104 640.593 55.4244 640.004 55.6552C639.416 55.8813 638.754 55.9944 638.019 55.9944ZM654.401 55.9944C653.355 55.9944 652.453 55.7636 651.695 55.3019C650.941 54.8355 650.359 54.1854 649.949 53.3516C649.544 52.513 649.342 51.5378 649.342 50.4261C649.342 49.3143 649.544 48.3344 649.949 47.4864C650.359 46.6337 650.929 45.9695 651.66 45.4937C652.394 45.0132 653.252 44.7729 654.232 44.7729C654.797 44.7729 655.355 44.8671 655.906 45.0556C656.458 45.244 656.959 45.5502 657.412 45.9742C657.864 46.3935 658.224 46.9494 658.493 47.6419C658.761 48.3344 658.896 49.1871 658.896 50.1999V50.9066H650.529V49.465H657.2C657.2 48.8526 657.077 48.3061 656.832 47.8256C656.592 47.3451 656.248 46.9659 655.8 46.6879C655.358 46.41 654.835 46.271 654.232 46.271C653.567 46.271 652.993 46.4359 652.508 46.7657C652.027 47.0907 651.657 47.5147 651.398 48.0376C651.139 48.5605 651.009 49.1211 651.009 49.7194V50.6805C651.009 51.5002 651.151 52.195 651.433 52.765C651.721 53.3304 652.119 53.7614 652.628 54.0582C653.136 54.3503 653.728 54.4963 654.401 54.4963C654.839 54.4963 655.235 54.4351 655.588 54.3126C655.947 54.1854 656.255 53.997 656.514 53.7473C656.773 53.4929 656.973 53.1773 657.115 52.8004L658.726 53.2526C658.556 53.7991 658.271 54.2796 657.871 54.6942C657.47 55.104 656.976 55.4244 656.387 55.6552C655.798 55.8813 655.136 55.9944 654.401 55.9944ZM668.723 47.3451L667.225 47.7691C667.13 47.5194 666.991 47.2768 666.808 47.0412C666.629 46.801 666.384 46.6031 666.073 46.4477C665.762 46.2922 665.364 46.2145 664.879 46.2145C664.214 46.2145 663.661 46.3676 663.218 46.6738C662.78 46.9753 662.561 47.3592 662.561 47.8256C662.561 48.2402 662.712 48.5676 663.013 48.8079C663.315 49.0481 663.786 49.2483 664.426 49.4085L666.037 49.8042C667.008 50.0398 667.731 50.4002 668.207 50.8854C668.683 51.3659 668.921 51.9854 668.921 52.7438C668.921 53.3657 668.742 53.9216 668.384 54.4115C668.03 54.9015 667.536 55.2878 666.9 55.5704C666.264 55.8531 665.524 55.9944 664.681 55.9944C663.574 55.9944 662.657 55.7541 661.932 55.2736C661.206 54.7931 660.747 54.0912 660.554 53.1678L662.137 52.7721C662.288 53.3563 662.573 53.7944 662.992 54.0865C663.416 54.3785 663.969 54.5246 664.652 54.5246C665.43 54.5246 666.047 54.3597 666.504 54.0299C666.966 53.6955 667.196 53.295 667.196 52.8286C667.196 52.4518 667.064 52.1361 666.801 51.8817C666.537 51.6226 666.132 51.4295 665.585 51.3023L663.776 50.8783C662.782 50.6428 662.052 50.2777 661.586 49.783C661.124 49.2837 660.893 48.6595 660.893 47.9104C660.893 47.298 661.065 46.7562 661.409 46.2851C661.758 45.814 662.231 45.4442 662.829 45.1757C663.432 44.9072 664.115 44.7729 664.879 44.7729C665.953 44.7729 666.796 45.0085 667.408 45.4796C668.025 45.9507 668.464 46.5725 668.723 47.3451ZM675.753 44.9143V46.3275H670.128V44.9143H675.753ZM671.768 42.3138H673.436V52.6591C673.436 53.1301 673.504 53.4835 673.64 53.719C673.782 53.9499 673.961 54.1053 674.177 54.1854C674.399 54.2608 674.632 54.2985 674.877 54.2985C675.061 54.2985 675.212 54.289 675.329 54.2702C675.447 54.2466 675.541 54.2278 675.612 54.2137L675.951 55.7117C675.838 55.7541 675.68 55.7965 675.478 55.8389C675.275 55.8861 675.018 55.9096 674.707 55.9096C674.236 55.9096 673.775 55.8083 673.322 55.6058C672.875 55.4032 672.503 55.0946 672.206 54.6801C671.914 54.2655 671.768 53.7426 671.768 53.1113V42.3138ZM684.704 51.3306V44.9143H686.372V55.7683H684.704V53.931H684.591C684.337 54.4822 683.941 54.9509 683.404 55.3372C682.867 55.7188 682.189 55.9096 681.369 55.9096C680.69 55.9096 680.087 55.7612 679.56 55.4644C679.032 55.1629 678.618 54.7107 678.316 54.1077C678.015 53.5 677.864 52.7344 677.864 51.8111V44.9143H679.532V51.698C679.532 52.4895 679.753 53.1207 680.196 53.5918C680.643 54.0629 681.213 54.2985 681.906 54.2985C682.32 54.2985 682.742 54.1925 683.171 53.9805C683.604 53.7685 683.967 53.4434 684.259 53.0053C684.556 52.5672 684.704 52.0089 684.704 51.3306ZM693.127 55.9944C692.222 55.9944 691.424 55.7659 690.731 55.309C690.039 54.8473 689.497 54.1972 689.106 53.3586C688.715 52.5154 688.52 51.519 688.52 50.3695C688.52 49.2295 688.715 48.2402 689.106 47.4016C689.497 46.5631 690.041 45.9153 690.738 45.4584C691.436 45.0014 692.241 44.7729 693.155 44.7729C693.862 44.7729 694.42 44.8907 694.83 45.1262C695.244 45.3571 695.56 45.6209 695.777 45.9177C695.998 46.2098 696.17 46.45 696.293 46.6385H696.434V41.2962H698.102V55.7683H696.49V54.1006H696.293C696.17 54.2985 695.996 54.5481 695.77 54.8496C695.544 55.1464 695.221 55.4126 694.802 55.6482C694.382 55.879 693.824 55.9944 693.127 55.9944ZM693.353 54.4963C694.022 54.4963 694.587 54.322 695.049 53.9734C695.511 53.6201 695.862 53.1325 696.102 52.5107C696.342 51.8841 696.462 51.161 696.462 50.3413C696.462 49.531 696.344 48.822 696.109 48.2143C695.873 47.6018 695.525 47.126 695.063 46.7869C694.601 46.443 694.031 46.271 693.353 46.271C692.646 46.271 692.057 46.4524 691.586 46.8151C691.12 47.1732 690.769 47.6607 690.533 48.2779C690.303 48.8903 690.187 49.5781 690.187 50.3413C690.187 51.1139 690.305 51.8158 690.541 52.4471C690.781 53.0736 691.134 53.573 691.601 53.9451C692.072 54.3126 692.656 54.4963 693.353 54.4963ZM700.99 55.7683V44.9143H702.657V55.7683H700.99ZM701.838 43.1052C701.512 43.1052 701.232 42.9945 700.997 42.7731C700.766 42.5517 700.65 42.2855 700.65 41.9746C700.65 41.6637 700.766 41.3975 700.997 41.1761C701.232 40.9547 701.512 40.844 701.838 40.844C702.163 40.844 702.441 40.9547 702.671 41.1761C702.907 41.3975 703.025 41.6637 703.025 41.9746C703.025 42.2855 702.907 42.5517 702.671 42.7731C702.441 42.9945 702.163 43.1052 701.838 43.1052ZM709.723 55.9944C708.743 55.9944 707.884 55.7612 707.144 55.2948C706.409 54.8284 705.834 54.176 705.42 53.3374C705.01 52.4989 704.805 51.519 704.805 50.3978C704.805 49.2672 705.01 48.2802 705.42 47.437C705.834 46.5937 706.409 45.9389 707.144 45.4725C707.884 45.0061 708.743 44.7729 709.723 44.7729C710.703 44.7729 711.56 45.0061 712.295 45.4725C713.035 45.9389 713.61 46.5937 714.02 47.437C714.434 48.2802 714.641 49.2672 714.641 50.3978C714.641 51.519 714.434 52.4989 714.02 53.3374C713.61 54.176 713.035 54.8284 712.295 55.2948C711.56 55.7612 710.703 55.9944 709.723 55.9944ZM709.723 54.4963C710.467 54.4963 711.08 54.3055 711.56 53.9239C712.041 53.5424 712.397 53.0406 712.627 52.4188C712.858 51.7969 712.974 51.1233 712.974 50.3978C712.974 49.6723 712.858 48.9963 712.627 48.3697C712.397 47.7432 712.041 47.2367 711.56 46.8505C711.08 46.4642 710.467 46.271 709.723 46.271C708.979 46.271 708.366 46.4642 707.886 46.8505C707.405 47.2367 707.05 47.7432 706.819 48.3697C706.588 48.9963 706.473 49.6723 706.473 50.3978C706.473 51.1233 706.588 51.7969 706.819 52.4188C707.05 53.0406 707.405 53.5424 707.886 53.9239C708.366 54.3055 708.979 54.4963 709.723 54.4963ZM621.507 81.7683V70.9143H623.118V72.6102H623.259C623.485 72.0307 623.851 71.5809 624.355 71.2605C624.859 70.9355 625.464 70.7729 626.171 70.7729C626.887 70.7729 627.483 70.9355 627.958 71.2605C628.439 71.5809 628.814 72.0307 629.082 72.6102H629.195C629.473 72.0496 629.89 71.6044 630.446 71.2746C631.002 70.9402 631.668 70.7729 632.446 70.7729C633.416 70.7729 634.21 71.0768 634.827 71.6845C635.444 72.2875 635.753 73.2273 635.753 74.504V81.7683H634.085V74.504C634.085 73.7031 633.866 73.1308 633.428 72.7869C632.99 72.443 632.474 72.271 631.88 72.271C631.117 72.271 630.526 72.5018 630.107 72.9635C629.687 73.4205 629.478 73.9999 629.478 74.7019V81.7683H627.782V74.3344C627.782 73.7173 627.582 73.2203 627.181 72.8434C626.781 72.4618 626.265 72.271 625.634 72.271C625.2 72.271 624.795 72.3864 624.418 72.6173C624.046 72.8481 623.745 73.1684 623.514 73.5783C623.288 73.9834 623.174 74.4522 623.174 74.9845V81.7683H621.507ZM641.598 82.0227C640.91 82.0227 640.286 81.8931 639.725 81.634C639.165 81.3702 638.72 80.991 638.39 80.4963C638.06 79.997 637.895 79.394 637.895 78.6873C637.895 78.0655 638.018 77.5614 638.263 77.1751C638.508 76.7841 638.835 76.4779 639.245 76.2565C639.655 76.0351 640.107 75.8702 640.602 75.7618C641.101 75.6488 641.603 75.5592 642.107 75.4933C642.766 75.4085 643.301 75.3449 643.711 75.3025C644.125 75.2554 644.427 75.1777 644.615 75.0693C644.808 74.961 644.905 74.7725 644.905 74.504V74.4475C644.905 73.7502 644.714 73.2085 644.333 72.8222C643.956 72.4359 643.383 72.2427 642.616 72.2427C641.819 72.2427 641.195 72.417 640.743 72.7657C640.291 73.1143 639.973 73.4864 639.789 73.8821L638.206 73.3168C638.489 72.6573 638.866 72.1438 639.337 71.7764C639.812 71.4042 640.331 71.1451 640.891 70.999C641.457 70.8483 642.012 70.7729 642.559 70.7729C642.908 70.7729 643.308 70.8153 643.76 70.9001C644.217 70.9802 644.658 71.1474 645.082 71.4018C645.51 71.6562 645.866 72.0402 646.149 72.5537C646.431 73.0672 646.573 73.755 646.573 74.6171V81.7683H644.905V80.2985H644.82C644.707 80.534 644.519 80.786 644.255 81.0546C643.991 81.3231 643.64 81.5516 643.202 81.74C642.764 81.9285 642.229 82.0227 641.598 82.0227ZM641.852 80.5246C642.512 80.5246 643.068 80.395 643.52 80.1359C643.977 79.8768 644.321 79.5424 644.552 79.1325C644.787 78.7227 644.905 78.2916 644.905 77.8393V76.313C644.834 76.3978 644.679 76.4755 644.439 76.5462C644.203 76.6121 643.93 76.671 643.619 76.7229C643.313 76.77 643.014 76.8124 642.721 76.85C642.434 76.883 642.201 76.9113 642.022 76.9348C641.589 76.9914 641.183 77.0832 640.806 77.2104C640.434 77.3329 640.133 77.519 639.902 77.7687C639.676 78.0137 639.563 78.3481 639.563 78.7721C639.563 79.3516 639.777 79.7897 640.206 80.0865C640.639 80.3785 641.188 80.5246 641.852 80.5246ZM641.909 69.4444L643.633 66.1656H645.583L643.379 69.4444H641.909ZM656.907 73.3451L655.409 73.7691C655.315 73.5194 655.176 73.2768 654.992 73.0412C654.813 72.801 654.568 72.6031 654.257 72.4477C653.946 72.2922 653.548 72.2145 653.063 72.2145C652.398 72.2145 651.845 72.3676 651.402 72.6738C650.964 72.9753 650.745 73.3592 650.745 73.8256C650.745 74.2402 650.896 74.5676 651.197 74.8079C651.499 75.0481 651.97 75.2483 652.61 75.4085L654.222 75.8042C655.192 76.0398 655.915 76.4002 656.391 76.8854C656.867 77.3659 657.105 77.9854 657.105 78.7438C657.105 79.3657 656.926 79.9216 656.568 80.4115C656.214 80.9015 655.72 81.2878 655.084 81.5704C654.448 81.8531 653.708 81.9944 652.865 81.9944C651.758 81.9944 650.842 81.7541 650.116 81.2736C649.391 80.7931 648.931 80.0912 648.738 79.1678L650.321 78.7721C650.472 79.3563 650.757 79.7944 651.176 80.0865C651.6 80.3785 652.154 80.5246 652.837 80.5246C653.614 80.5246 654.231 80.3597 654.688 80.0299C655.15 79.6955 655.381 79.295 655.381 78.8286C655.381 78.4518 655.249 78.1361 654.985 77.8817C654.721 77.6226 654.316 77.4295 653.769 77.3023L651.96 76.8783C650.966 76.6428 650.236 76.2777 649.77 75.783C649.308 75.2837 649.077 74.6595 649.077 73.9104C649.077 73.298 649.249 72.7562 649.593 72.2851C649.942 71.814 650.415 71.4442 651.013 71.1757C651.616 70.9072 652.3 70.7729 653.063 70.7729C654.137 70.7729 654.98 71.0085 655.592 71.4796C656.21 71.9507 656.648 72.5725 656.907 73.3451ZM664.416 81.7683V70.9143H666.027V72.5537H666.14C666.338 72.0166 666.696 71.5809 667.214 71.2464C667.732 70.9119 668.316 70.7447 668.966 70.7447C669.089 70.7447 669.242 70.747 669.426 70.7517C669.61 70.7564 669.749 70.7635 669.843 70.7729V72.4689C669.786 72.4547 669.657 72.4335 669.454 72.4053C669.256 72.3723 669.047 72.3558 668.825 72.3558C668.298 72.3558 667.826 72.4665 667.412 72.6879C667.002 72.9046 666.677 73.2061 666.437 73.5924C666.201 73.974 666.083 74.4098 666.083 74.8997V81.7683H664.416ZM675.642 81.9944C674.596 81.9944 673.694 81.7636 672.936 81.3019C672.182 80.8355 671.6 80.1854 671.19 79.3516C670.785 78.513 670.582 77.5378 670.582 76.4261C670.582 75.3143 670.785 74.3344 671.19 73.4864C671.6 72.6337 672.17 71.9695 672.9 71.4937C673.635 71.0132 674.493 70.7729 675.472 70.7729C676.038 70.7729 676.596 70.8671 677.147 71.0556C677.698 71.244 678.2 71.5502 678.652 71.9742C679.105 72.3935 679.465 72.9494 679.733 73.6419C680.002 74.3344 680.136 75.1871 680.136 76.1999V76.9066H671.77V75.465H678.44C678.44 74.8526 678.318 74.3061 678.073 73.8256C677.833 73.3451 677.489 72.9659 677.041 72.6879C676.598 72.41 676.075 72.271 675.472 72.271C674.808 72.271 674.233 72.4359 673.748 72.7657C673.268 73.0907 672.898 73.5147 672.639 74.0376C672.38 74.5605 672.25 75.1211 672.25 75.7194V76.6805C672.25 77.5002 672.391 78.195 672.674 78.765C672.961 79.3304 673.36 79.7614 673.868 80.0582C674.377 80.3503 674.968 80.4963 675.642 80.4963C676.08 80.4963 676.476 80.4351 676.829 80.3126C677.187 80.1854 677.496 79.997 677.755 79.7473C678.014 79.4929 678.214 79.1773 678.356 78.8004L679.967 79.2526C679.797 79.7991 679.512 80.2796 679.112 80.6942C678.711 81.104 678.217 81.4244 677.628 81.6552C677.039 81.8813 676.377 81.9944 675.642 81.9944ZM686.685 81.9944C685.667 81.9944 684.791 81.7541 684.056 81.2736C683.321 80.7931 682.756 80.1312 682.36 79.288C681.964 78.4447 681.766 77.4813 681.766 76.3978C681.766 75.2954 681.969 74.3226 682.374 73.4794C682.784 72.6314 683.354 71.9695 684.084 71.4937C684.819 71.0132 685.676 70.7729 686.656 70.7729C687.419 70.7729 688.107 70.9143 688.72 71.1969C689.332 71.4796 689.834 71.8753 690.225 72.3841C690.616 72.8928 690.858 73.4864 690.953 74.1648H689.285C689.158 73.6702 688.875 73.232 688.437 72.8505C688.004 72.4642 687.419 72.271 686.685 72.271C686.034 72.271 685.464 72.4406 684.974 72.7798C684.489 73.1143 684.11 73.5877 683.837 74.2001C683.568 74.8079 683.434 75.5216 683.434 76.3413C683.434 77.1798 683.566 77.91 683.83 78.5319C684.098 79.1537 684.475 79.6366 684.96 79.9805C685.45 80.3244 686.025 80.4963 686.685 80.4963C687.118 80.4963 687.511 80.4209 687.865 80.2702C688.218 80.1194 688.517 79.9027 688.762 79.6201C689.007 79.3374 689.181 78.9982 689.285 78.6025H690.953C690.858 79.2432 690.625 79.8203 690.253 80.3338C689.886 80.8426 689.398 81.2477 688.79 81.5492C688.187 81.846 687.485 81.9944 686.685 81.9944ZM692.993 81.7683V70.9143H694.66V81.7683H692.993ZM693.841 69.1052C693.516 69.1052 693.235 68.9945 693 68.7731C692.769 68.5517 692.653 68.2855 692.653 67.9746C692.653 67.6637 692.769 67.3975 693 67.1761C693.235 66.9547 693.516 66.844 693.841 66.844C694.166 66.844 694.444 66.9547 694.674 67.1761C694.91 67.3975 695.028 67.6637 695.028 67.9746C695.028 68.2855 694.91 68.5517 694.674 68.7731C694.444 68.9945 694.166 69.1052 693.841 69.1052ZM701.868 81.9944C700.822 81.9944 699.92 81.7636 699.161 81.3019C698.407 80.8355 697.826 80.1854 697.416 79.3516C697.011 78.513 696.808 77.5378 696.808 76.4261C696.808 75.3143 697.011 74.3344 697.416 73.4864C697.826 72.6337 698.396 71.9695 699.126 71.4937C699.861 71.0132 700.718 70.7729 701.698 70.7729C702.263 70.7729 702.822 70.8671 703.373 71.0556C703.924 71.244 704.426 71.5502 704.878 71.9742C705.33 72.3935 705.69 72.9494 705.959 73.6419C706.228 74.3344 706.362 75.1871 706.362 76.1999V76.9066H697.995V75.465H704.666C704.666 74.8526 704.543 74.3061 704.298 73.8256C704.058 73.3451 703.714 72.9659 703.267 72.6879C702.824 72.41 702.301 72.271 701.698 72.271C701.034 72.271 700.459 72.4359 699.974 72.7657C699.493 73.0907 699.123 73.5147 698.864 74.0376C698.605 74.5605 698.476 75.1211 698.476 75.7194V76.6805C698.476 77.5002 698.617 78.195 698.9 78.765C699.187 79.3304 699.585 79.7614 700.094 80.0582C700.603 80.3503 701.194 80.4963 701.868 80.4963C702.306 80.4963 702.701 80.4351 703.055 80.3126C703.413 80.1854 703.721 79.997 703.98 79.7473C704.24 79.4929 704.44 79.1773 704.581 78.8004L706.192 79.2526C706.023 79.7991 705.738 80.2796 705.337 80.6942C704.937 81.104 704.442 81.4244 703.853 81.6552C703.264 81.8813 702.602 81.9944 701.868 81.9944ZM710.168 75.2389V81.7683H708.501V70.9143H710.112V72.6102H710.253C710.508 72.059 710.894 71.6162 711.412 71.2817C711.93 70.9425 712.599 70.7729 713.419 70.7729C714.154 70.7729 714.797 70.9237 715.348 71.2252C715.899 71.522 716.328 71.9742 716.634 72.5819C716.94 73.1849 717.093 73.9481 717.093 74.8714V81.7683H715.426V74.9845C715.426 74.1318 715.204 73.4676 714.762 72.9918C714.319 72.5113 713.711 72.271 712.938 72.271C712.406 72.271 711.93 72.3864 711.511 72.6173C711.096 72.8481 710.769 73.1849 710.529 73.6278C710.288 74.0706 710.168 74.6076 710.168 75.2389ZM724.463 70.9143V72.3275H718.838V70.9143H724.463ZM720.478 68.3138H722.145V78.6591C722.145 79.1301 722.214 79.4835 722.35 79.719C722.492 79.9499 722.671 80.1053 722.887 80.1854C723.109 80.2608 723.342 80.2985 723.587 80.2985C723.771 80.2985 723.921 80.289 724.039 80.2702C724.157 80.2466 724.251 80.2278 724.322 80.2137L724.661 81.7117C724.548 81.7541 724.39 81.7965 724.188 81.8389C723.985 81.8861 723.728 81.9096 723.417 81.9096C722.946 81.9096 722.485 81.8083 722.032 81.6058C721.585 81.4032 721.213 81.0946 720.916 80.6801C720.624 80.2655 720.478 79.7426 720.478 79.1113V68.3138ZM731.008 81.9944C729.962 81.9944 729.06 81.7636 728.302 81.3019C727.548 80.8355 726.966 80.1854 726.556 79.3516C726.151 78.513 725.948 77.5378 725.948 76.4261C725.948 75.3143 726.151 74.3344 726.556 73.4864C726.966 72.6337 727.536 71.9695 728.266 71.4937C729.001 71.0132 729.859 70.7729 730.838 70.7729C731.404 70.7729 731.962 70.8671 732.513 71.0556C733.064 71.244 733.566 71.5502 734.018 71.9742C734.471 72.3935 734.831 72.9494 735.099 73.6419C735.368 74.3344 735.502 75.1871 735.502 76.1999V76.9066H727.136V75.465H733.806C733.806 74.8526 733.684 74.3061 733.439 73.8256C733.199 73.3451 732.855 72.9659 732.407 72.6879C731.964 72.41 731.441 72.271 730.838 72.271C730.174 72.271 729.599 72.4359 729.114 72.7657C728.634 73.0907 728.264 73.5147 728.005 74.0376C727.746 74.5605 727.616 75.1211 727.616 75.7194V76.6805C727.616 77.5002 727.757 78.195 728.04 78.765C728.327 79.3304 728.726 79.7614 729.234 80.0582C729.743 80.3503 730.334 80.4963 731.008 80.4963C731.446 80.4963 731.842 80.4351 732.195 80.3126C732.553 80.1854 732.862 79.997 733.121 79.7473C733.38 79.4929 733.58 79.1773 733.722 78.8004L735.333 79.2526C735.163 79.7991 734.878 80.2796 734.478 80.6942C734.077 81.104 733.583 81.4244 732.994 81.6552C732.405 81.8813 731.743 81.9944 731.008 81.9944ZM745.329 73.3451L743.831 73.7691C743.737 73.5194 743.598 73.2768 743.414 73.0412C743.235 72.801 742.99 72.6031 742.679 72.4477C742.369 72.2922 741.97 72.2145 741.485 72.2145C740.821 72.2145 740.267 72.3676 739.825 72.6738C739.387 72.9753 739.167 73.3592 739.167 73.8256C739.167 74.2402 739.318 74.5676 739.62 74.8079C739.921 75.0481 740.392 75.2483 741.033 75.4085L742.644 75.8042C743.615 76.0398 744.338 76.4002 744.814 76.8854C745.289 77.3659 745.527 77.9854 745.527 78.7438C745.527 79.3657 745.348 79.9216 744.99 80.4115C744.637 80.9015 744.142 81.2878 743.506 81.5704C742.87 81.8531 742.131 81.9944 741.287 81.9944C740.18 81.9944 739.264 81.7541 738.539 81.2736C737.813 80.7931 737.354 80.0912 737.161 79.1678L738.743 78.7721C738.894 79.3563 739.179 79.7944 739.599 80.0865C740.023 80.3785 740.576 80.5246 741.259 80.5246C742.036 80.5246 742.654 80.3597 743.111 80.0299C743.572 79.6955 743.803 79.295 743.803 78.8286C743.803 78.4518 743.671 78.1361 743.407 77.8817C743.144 77.6226 742.738 77.4295 742.192 77.3023L740.383 76.8783C739.389 76.6428 738.659 76.2777 738.192 75.783C737.731 75.2837 737.5 74.6595 737.5 73.9104C737.5 73.298 737.672 72.7562 738.016 72.2851C738.364 71.814 738.838 71.4442 739.436 71.1757C740.039 70.9072 740.722 70.7729 741.485 70.7729C742.559 70.7729 743.403 71.0085 744.015 71.4796C744.632 71.9507 745.07 72.5725 745.329 73.3451Z" fill="#747474"/>
<defs>
<linearGradient id="paint0_linear_1104_174" x1="390.713" y1="3.73814" x2="573.02" y2="228.006" gradientUnits="userSpaceOnUse">
<stop stop-color="white"/>
<stop offset="0.18113" stop-color="#BB62F1"/>
<stop offset="0.523151" stop-color="#EE4B60"/>
<stop offset="0.937839" stop-color="white"/>
</linearGradient>
</defs>
</svg>
