<svg width="145" height="30" viewBox="0 0 145 30" fill="none" xmlns="http://www.w3.org/2000/svg">
<path d="M42.3653 18.8726V25.3994H37.1071V5.15619H46.4587C48.8548 5.15619 50.7518 5.68629 52.1162 6.77963C53.4807 7.87296 54.1796 9.52953 54.1796 11.7825C54.1796 14.0354 53.4807 15.8245 52.1162 17.0503C50.7518 18.2762 48.8548 18.8726 46.4587 18.8726H42.3653ZM42.3653 14.8968H45.8596C46.268 14.9067 46.6746 14.8392 47.0577 14.698C47.3755 14.5778 47.6605 14.3848 47.8897 14.1348C48.1191 13.8761 48.2895 13.5709 48.3889 13.2402C48.4978 12.8859 48.5539 12.5175 48.5553 12.1469C48.5558 11.7218 48.4998 11.2985 48.3889 10.8879C48.2972 10.5442 48.1263 10.2266 47.8897 9.96024C47.6651 9.69717 47.3795 9.49249 47.0577 9.36387C46.6746 9.22266 46.268 9.1552 45.8596 9.16508H42.3985C42.3653 9.16508 42.3653 14.8968 42.3653 14.8968Z" fill="#101B55"/>
<path d="M56.6422 25.3995V11.6831C57.1207 11.3161 57.6469 11.0152 58.2064 10.7885C59.02 10.4218 59.8669 10.1334 60.7356 9.92713C61.6606 9.69412 62.6103 9.57178 63.5644 9.56269C64.3809 9.53363 65.1977 9.6116 65.9938 9.7946C66.4691 9.89756 66.9207 10.0886 67.325 10.3578V13.8366C66.8973 13.7416 66.4637 13.6752 66.0271 13.6378C65.5279 13.6047 64.9622 13.5384 64.3631 13.5384H62.7324C62.2332 13.5716 61.8006 13.6047 61.4678 13.6378V25.4326L56.6422 25.3995Z" fill="#101B55"/>
<path d="M78.5735 21.6888C78.029 21.8221 77.4702 21.8888 76.9095 21.8876C75.3786 21.8876 74.2804 21.49 73.5815 20.728C73.1445 20.2276 72.8462 19.6223 72.7162 18.972H82.8C82.8572 17.2116 82.621 15.4539 82.1011 13.7704C81.6979 12.4747 80.8797 11.346 79.7715 10.5567C78.7066 9.82776 77.3421 9.46332 75.6116 9.46332C73.0823 9.46332 71.1521 10.1922 69.8209 11.6831C68.4897 13.174 67.7908 15.2613 67.7908 17.9449C67.7537 19.4097 68.0976 20.8592 68.7892 22.1526C69.4291 23.3147 70.4023 24.2606 71.5847 24.8694C72.8714 25.5241 74.2999 25.8541 75.7447 25.8302C76.8173 25.8456 77.8885 25.7457 78.9395 25.532C79.7637 25.353 80.5752 25.1206 81.369 24.8363V20.7942C81.0362 20.9268 80.6368 21.0593 80.1709 21.2249C79.6384 21.3906 79.1059 21.5563 78.5735 21.6888ZM73.9476 13.5053C74.3669 13.215 74.8679 13.0642 75.3786 13.0746C76.3437 13.0746 77.0426 13.4059 77.4752 14.0686C77.7986 14.6738 77.9913 15.3396 78.041 16.0233H72.6497C72.7013 15.6367 72.8019 15.2582 72.9492 14.8969C73.11 14.3319 73.4629 13.84 73.9476 13.5053Z" fill="#101B55"/>
<path d="M98.142 12.5777C97.8432 11.9707 97.411 11.4385 96.8774 11.0205C96.3615 10.6284 95.7893 10.3157 95.1801 10.0928C94.5933 9.90249 93.9924 9.75848 93.383 9.66211C92.8663 9.57407 92.343 9.52974 91.8188 9.52958C90.5298 9.50826 89.2434 9.65303 87.9916 9.96029C87.1391 10.1446 86.3199 10.4574 85.5622 10.888V15.0956C86.2162 14.5962 86.9466 14.2047 87.7254 13.9361C88.5985 13.6114 89.5224 13.4431 90.4543 13.4391C91.327 13.3904 92.1949 13.5978 92.9503 14.0354C93.5494 14.433 93.8489 15.0956 93.8489 15.9902V16.8847C93.7158 16.8185 93.5827 16.7522 93.4163 16.6528C92.8445 16.4095 92.2548 16.2101 91.6524 16.0565C90.9993 15.8957 90.3284 15.8178 89.6556 15.8245C88.5812 15.7877 87.5121 15.9915 86.5273 16.4209C85.768 16.7709 85.1391 17.3507 84.7302 18.0775C84.3336 18.8329 84.1387 19.6772 84.1645 20.5292C84.1296 21.4101 84.3125 22.2861 84.697 23.0803C85.0174 23.7508 85.526 24.3146 86.1613 24.7037C86.8249 25.1171 87.5575 25.4089 88.3244 25.5652C89.212 25.7419 90.115 25.8307 91.0201 25.8302C92.3953 25.8528 93.7686 25.7194 95.1135 25.4326C96.0467 25.2615 96.9187 24.8503 97.6428 24.2399C97.9274 23.9729 98.1517 23.6487 98.3008 23.2889C98.45 22.929 98.5207 22.5417 98.5081 22.1526L98.5413 14.93C98.6141 14.1247 98.4765 13.3144 98.142 12.5777ZM93.2831 22.3183C92.5971 22.4822 91.8913 22.5492 91.1865 22.5171C90.8072 22.5268 90.4309 22.4474 90.0883 22.2852C89.7573 22.1409 89.4703 21.9123 89.2563 21.6225C89.0436 21.3467 88.9268 21.0094 88.9235 20.6617C88.9064 20.4065 88.9593 20.1515 89.0766 19.9239C89.1938 19.6963 89.3709 19.5047 89.5891 19.3696C90.2388 19.048 90.9612 18.8996 91.6857 18.9389C92.2685 18.9357 92.8495 19.0025 93.4163 19.1377C93.5827 19.1708 93.7158 19.2371 93.8489 19.2702V21.5231C93.8713 21.7021 93.8257 21.8829 93.721 22.03C93.6163 22.1771 93.4601 22.28 93.2831 22.3183Z" fill="#101B55"/>
<path d="M109.124 25.8633C107.818 25.882 106.52 25.6572 105.297 25.2007C104.241 24.7975 103.334 24.0803 102.701 23.1466C102.069 22.2189 101.77 20.993 101.77 19.5352V9.99341H106.595V19.1377C106.595 20.0653 106.795 20.728 107.194 21.1918C107.593 21.6556 108.259 21.8876 109.191 21.8876C110.123 21.8876 110.755 21.6556 111.188 21.1918C111.62 20.728 111.787 20.0653 111.787 19.1377V9.99341H116.28V19.5021C116.28 21.7219 115.647 23.3122 114.383 24.3393C113.118 25.3664 111.321 25.8633 109.124 25.8633Z" fill="#101B55"/>
<path d="M124.599 26.029C122.736 26.029 121.371 25.5983 120.473 24.77C119.574 23.9417 119.108 22.7158 119.108 21.1255V13.6378V9.9934V8.70127L124.133 5.81885V9.9934H127.495V13.6378H124.133V20.5292C124.097 20.7255 124.109 20.9277 124.168 21.1186C124.226 21.3095 124.33 21.4836 124.47 21.6264C124.611 21.7691 124.783 21.8764 124.973 21.9391C125.164 22.0018 125.366 22.0183 125.564 21.9869C125.906 21.9788 126.244 21.9115 126.563 21.7882C126.903 21.6834 127.219 21.5147 127.495 21.2912V25.3663C127.031 25.5957 126.538 25.7628 126.03 25.8633C125.563 25.9836 125.082 26.0394 124.599 26.029Z" fill="#101B55"/>
<path d="M144.235 11.8487C143.775 11.0659 143.075 10.4505 142.238 10.0928C141.303 9.73653 140.31 9.55676 139.309 9.56268C138.11 9.56294 136.922 9.7994 135.815 10.2584C135.528 10.3709 135.25 10.5037 134.983 10.656V4.16227C134.983 4.09601 134.916 4.06287 134.883 4.09601L130.124 6.91217V25.3995H134.883L134.983 14.1679C135.281 13.9489 135.621 13.7912 135.981 13.7041C136.424 13.5733 136.884 13.5063 137.346 13.5053C138.278 13.5053 139.01 13.7372 139.476 14.1679C139.942 14.5986 140.208 15.2944 140.208 16.2883V25.4326H145V15.195C144.934 13.7704 144.701 12.677 144.235 11.8487Z" fill="#101B55"/>
<path d="M18.4703 29.5409C19.1026 29.6403 19.6018 29.3752 19.6018 28.9445V16.6197C19.5994 15.9702 19.5099 15.3239 19.3356 14.698C18.0709 10.4241 13.1122 8.0055 8.08699 8.90005C3.2947 9.72833 0 13.3728 0 17.1498V25.7639C0.0117993 25.9197 0.072919 26.0678 0.174574 26.1869C0.276229 26.3059 0.413185 26.3898 0.565756 26.4265L18.4703 29.5409Z" fill="url(#paint0_linear_896_2)"/>
<path d="M27.5556 0.0208651C28.1879 -0.078529 28.6871 0.186522 28.6871 0.617229V12.909C28.6848 13.5585 28.5952 14.2047 28.4209 14.8306C27.1562 19.1045 22.1976 21.5231 17.1723 20.6286C12.38 19.8003 9.08533 16.1558 9.08533 12.3789V3.83097C9.09713 3.67515 9.15825 3.52707 9.2599 3.40801C9.36156 3.28895 9.49851 3.20504 9.65108 3.16834L27.5556 0.0208651Z" fill="url(#paint1_linear_896_2)"/>
<path opacity="0.2" d="M19.402 14.6649C18.2372 10.656 13.811 8.30372 9.15186 8.73443V12.412C9.15186 16.189 12.4466 19.8334 17.2388 20.6617C18.0522 20.7981 18.8772 20.8536 19.7015 20.8274V16.5866C19.6721 15.9371 19.5717 15.2927 19.402 14.6649Z" fill="url(#paint2_linear_896_2)"/>
<defs>
<linearGradient id="paint0_linear_896_2" x1="17.1624" y1="31.5354" x2="2.03581" y2="8.11604" gradientUnits="userSpaceOnUse">
<stop offset="0.17" stop-color="#41FF48"/>
<stop offset="0.8" stop-color="#39A966"/>
</linearGradient>
<linearGradient id="paint1_linear_896_2" x1="9.54792" y1="23.1797" x2="28.8936" y2="-5.72467" gradientUnits="userSpaceOnUse">
<stop offset="0.17" stop-color="#2563EB"/>
<stop offset="0.8" stop-color="#60A5FA"/>
</linearGradient>
<linearGradient id="paint2_linear_896_2" x1="9.0387" y1="22.7556" x2="28.3877" y2="-6.14545" gradientUnits="userSpaceOnUse">
<stop offset="0.17" stop-color="#4840E8"/>
<stop offset="0.8" stop-color="#4092CC"/>
</linearGradient>
</defs>
</svg>
