<svg width="431" height="71" viewBox="0 0 431 71" fill="none" xmlns="http://www.w3.org/2000/svg">
<path fill-rule="evenodd" clip-rule="evenodd" d="M281.26 70.5733C292.207 70.5733 301.08 61.6996 301.08 50.7532L301.08 19.8201C301.08 8.87378 292.207 6.34686e-06 281.26 5.3899e-06L219.607 0C208.661 -9.56963e-07 199.787 8.87376 199.787 19.8201V22.5595L176 33.8824L199.787 50.2582V50.7532C199.787 61.6995 208.661 70.5733 219.607 70.5733L281.26 70.5733Z" fill="url(#paint0_linear_1108_12)"/>
<path d="M234.07 57.5394C229.154 57.5394 225.173 56.2411 222.126 53.6445C219.01 51.0479 217.452 47.3435 217.452 42.5312V19.7332H227.839V42.635C227.839 44.5738 228.375 46.0625 229.448 47.1011C230.556 48.1398 232.097 48.6591 234.07 48.6591C236.044 48.6591 237.567 48.1398 238.64 47.1011C239.748 46.0625 240.302 44.5738 240.302 42.635V19.7332H250.688V42.5312C250.688 47.4127 249.182 51.1345 246.17 53.6965C243.124 56.2584 239.09 57.5394 234.07 57.5394ZM286.935 19.7332L275.094 37.8054L287.714 56.7085H275.666L273.484 53.3329C271.823 50.771 270.299 48.3648 268.914 46.1144C268.811 46.2529 268.257 47.1185 267.253 48.711C266.283 50.3036 265.331 51.8442 264.396 53.3329L262.215 56.7085H250.427L263.046 37.9093L251.206 19.7332H263.15L265.175 22.9529C266.803 25.5495 268.153 27.7653 269.226 29.6002C270.784 26.8651 272.117 24.6494 273.225 22.9529L275.25 19.7332H286.935Z" fill="#0F0F0F"/>
<path d="M29.2955 21.8409C29.1136 20.0076 28.3333 18.5833 26.9545 17.5682C25.5758 16.553 23.7045 16.0455 21.3409 16.0455C19.7348 16.0455 18.3788 16.2727 17.2727 16.7273C16.1667 17.1667 15.3182 17.7803 14.7273 18.5682C14.1515 19.3561 13.8636 20.25 13.8636 21.25C13.8333 22.0833 14.0076 22.8106 14.3864 23.4318C14.7803 24.053 15.3182 24.5909 16 25.0455C16.6818 25.4848 17.4697 25.8712 18.3636 26.2045C19.2576 26.5227 20.2121 26.7955 21.2273 27.0227L25.4091 28.0227C27.4394 28.4773 29.303 29.0833 31 29.8409C32.697 30.5985 34.1667 31.5303 35.4091 32.6364C36.6515 33.7424 37.6136 35.0455 38.2955 36.5455C38.9924 38.0455 39.3485 39.7652 39.3636 41.7045C39.3485 44.553 38.6212 47.0227 37.1818 49.1136C35.7576 51.1894 33.697 52.803 31 53.9545C28.3182 55.0909 25.0833 55.6591 21.2955 55.6591C17.5379 55.6591 14.2652 55.0833 11.4773 53.9318C8.70455 52.7803 6.53788 51.0758 4.97727 48.8182C3.43182 46.5455 2.62121 43.7348 2.54545 40.3864H12.0682C12.1742 41.947 12.6212 43.25 13.4091 44.2955C14.2121 45.3258 15.2803 46.1061 16.6136 46.6364C17.9621 47.1515 19.4848 47.4091 21.1818 47.4091C22.8485 47.4091 24.2955 47.1667 25.5227 46.6818C26.7652 46.197 27.7273 45.5227 28.4091 44.6591C29.0909 43.7955 29.4318 42.803 29.4318 41.6818C29.4318 40.6364 29.1212 39.7576 28.5 39.0455C27.8939 38.3333 27 37.7273 25.8182 37.2273C24.6515 36.7273 23.2197 36.2727 21.5227 35.8636L16.4545 34.5909C12.5303 33.6364 9.43182 32.1439 7.15909 30.1136C4.88636 28.0833 3.75758 25.3485 3.77273 21.9091C3.75758 19.0909 4.50758 16.6288 6.02273 14.5227C7.55303 12.4167 9.65152 10.7727 12.3182 9.59091C14.9848 8.40909 18.0152 7.81818 21.4091 7.81818C24.8636 7.81818 27.8788 8.40909 30.4545 9.59091C33.0455 10.7727 35.0606 12.4167 36.5 14.5227C37.9394 16.6288 38.6818 19.0682 38.7273 21.8409H29.2955ZM52.0139 44.9545L52.0366 33.3409H53.4457L64.6275 20.0909H75.7411L60.7184 37.6364H58.423L52.0139 44.9545ZM43.2411 55V8.45454H52.923V55H43.2411ZM65.0593 55L54.7866 39.7955L61.2411 32.9545L76.4002 55H65.0593ZM77.9311 55V20.0909H87.613V55H77.9311ZM82.7948 15.5909C81.3554 15.5909 80.1205 15.1136 79.0902 14.1591C78.0751 13.1894 77.5675 12.0303 77.5675 10.6818C77.5675 9.34848 78.0751 8.20454 79.0902 7.25C80.1205 6.2803 81.3554 5.79545 82.7948 5.79545C84.2342 5.79545 85.4614 6.2803 86.4766 7.25C87.5069 8.20454 88.022 9.34848 88.022 10.6818C88.022 12.0303 87.5069 13.1894 86.4766 14.1591C85.4614 15.1136 84.2342 15.5909 82.7948 15.5909ZM92.8086 8.45454H102.49V44.5455C102.506 45.6515 102.703 46.4545 103.081 46.9545C103.475 47.4394 104.142 47.6818 105.081 47.6818C105.566 47.6667 105.945 47.6364 106.218 47.5909C106.49 47.5455 106.718 47.4848 106.9 47.4091L108.445 54.4545C107.945 54.6061 107.331 54.7652 106.604 54.9318C105.892 55.0833 104.93 55.1818 103.718 55.2273C100.006 55.3636 97.2632 54.6667 95.4905 53.1364C93.7177 51.5909 92.8238 49.1591 92.8086 45.8409V8.45454ZM110.436 8.45454H120.118V44.5455C120.133 45.6515 120.33 46.4545 120.709 46.9545C121.103 47.4394 121.769 47.6818 122.709 47.6818C123.194 47.6667 123.573 47.6364 123.845 47.5909C124.118 47.5455 124.345 47.4848 124.527 47.4091L126.073 54.4545C125.573 54.6061 124.959 54.7652 124.232 54.9318C123.519 55.0833 122.557 55.1818 121.345 55.2273C117.633 55.3636 114.891 54.6667 113.118 53.1364C111.345 51.5909 110.451 49.1591 110.436 45.8409V8.45454ZM156.172 30.0455L147.308 30.5909C147.156 29.8333 146.831 29.1515 146.331 28.5455C145.831 27.9242 145.172 27.4318 144.353 27.0682C143.55 26.6894 142.588 26.5 141.467 26.5C139.967 26.5 138.702 26.8182 137.672 27.4545C136.641 28.0758 136.126 28.9091 136.126 29.9545C136.126 30.7879 136.459 31.4924 137.126 32.0682C137.793 32.6439 138.937 33.1061 140.558 33.4545L146.876 34.7273C150.27 35.4242 152.8 36.5455 154.467 38.0909C156.134 39.6364 156.967 41.6667 156.967 44.1818C156.967 46.4697 156.293 48.4773 154.944 50.2045C153.611 51.9318 151.778 53.2803 149.444 54.25C147.126 55.2045 144.452 55.6818 141.422 55.6818C136.8 55.6818 133.119 54.7197 130.376 52.7955C127.649 50.8561 126.05 48.2197 125.581 44.8864L135.103 44.3864C135.391 45.7955 136.088 46.8712 137.194 47.6136C138.3 48.3409 139.717 48.7045 141.444 48.7045C143.141 48.7045 144.505 48.3788 145.535 47.7273C146.581 47.0606 147.111 46.2045 147.126 45.1591C147.111 44.2803 146.74 43.5606 146.012 43C145.285 42.4242 144.164 41.9848 142.649 41.6818L136.603 40.4773C133.194 39.7955 130.656 38.6136 128.99 36.9318C127.338 35.25 126.512 33.1061 126.512 30.5C126.512 28.2576 127.119 26.3258 128.331 24.7045C129.558 23.0833 131.278 21.8333 133.49 20.9545C135.717 20.0758 138.323 19.6364 141.308 19.6364C145.717 19.6364 149.187 20.5682 151.717 22.4318C154.262 24.2955 155.747 26.8333 156.172 30.0455Z" fill="#A2A2A2" fill-opacity="0.9"/>
<path d="M328.093 14H326.684C326.601 13.5947 326.455 13.2386 326.246 12.9318C326.042 12.625 325.792 12.3674 325.496 12.1591C325.205 11.947 324.881 11.7879 324.525 11.6818C324.169 11.5758 323.798 11.5227 323.411 11.5227C322.707 11.5227 322.068 11.7008 321.496 12.0568C320.928 12.4129 320.476 12.9375 320.138 13.6307C319.805 14.3239 319.638 15.1742 319.638 16.1818C319.638 17.1894 319.805 18.0398 320.138 18.733C320.476 19.4261 320.928 19.9508 321.496 20.3068C322.068 20.6629 322.707 20.8409 323.411 20.8409C323.798 20.8409 324.169 20.7879 324.525 20.6818C324.881 20.5758 325.205 20.4186 325.496 20.2102C325.792 19.9981 326.042 19.7386 326.246 19.4318C326.455 19.1212 326.601 18.7652 326.684 18.3636H328.093C327.987 18.9583 327.794 19.4905 327.513 19.9602C327.233 20.4299 326.885 20.8295 326.468 21.1591C326.051 21.4848 325.584 21.733 325.065 21.9034C324.549 22.0739 323.998 22.1591 323.411 22.1591C322.419 22.1591 321.536 21.9167 320.763 21.4318C319.991 20.947 319.383 20.2576 318.94 19.3636C318.496 18.4697 318.275 17.4091 318.275 16.1818C318.275 14.9545 318.496 13.8939 318.94 13C319.383 12.1061 319.991 11.4167 320.763 10.9318C321.536 10.447 322.419 10.2045 323.411 10.2045C323.998 10.2045 324.549 10.2898 325.065 10.4602C325.584 10.6307 326.051 10.8807 326.468 11.2102C326.885 11.536 327.233 11.9337 327.513 12.4034C327.794 12.8693 327.987 13.4015 328.093 14ZM333.734 22.1818C332.946 22.1818 332.254 21.9943 331.66 21.6193C331.069 21.2443 330.607 20.7197 330.273 20.0455C329.944 19.3712 329.779 18.5833 329.779 17.6818C329.779 16.7727 329.944 15.9792 330.273 15.3011C330.607 14.6231 331.069 14.0966 331.66 13.7216C332.254 13.3466 332.946 13.1591 333.734 13.1591C334.522 13.1591 335.211 13.3466 335.802 13.7216C336.397 14.0966 336.859 14.6231 337.188 15.3011C337.522 15.9792 337.688 16.7727 337.688 17.6818C337.688 18.5833 337.522 19.3712 337.188 20.0455C336.859 20.7197 336.397 21.2443 335.802 21.6193C335.211 21.9943 334.522 22.1818 333.734 22.1818ZM333.734 20.9773C334.332 20.9773 334.825 20.8239 335.211 20.517C335.597 20.2102 335.883 19.8068 336.069 19.3068C336.254 18.8068 336.347 18.2652 336.347 17.6818C336.347 17.0985 336.254 16.5549 336.069 16.0511C335.883 15.5473 335.597 15.1402 335.211 14.8295C334.825 14.5189 334.332 14.3636 333.734 14.3636C333.135 14.3636 332.643 14.5189 332.256 14.8295C331.87 15.1402 331.584 15.5473 331.398 16.0511C331.213 16.5549 331.12 17.0985 331.12 17.6818C331.12 18.2652 331.213 18.8068 331.398 19.3068C331.584 19.8068 331.87 20.2102 332.256 20.517C332.643 20.8239 333.135 20.9773 333.734 20.9773ZM341.076 16.75V22H339.735V13.2727H341.031V14.6364H341.144C341.349 14.1932 341.659 13.8371 342.076 13.5682C342.493 13.2955 343.031 13.1591 343.69 13.1591C344.281 13.1591 344.798 13.2803 345.241 13.5227C345.684 13.7614 346.029 14.125 346.275 14.6136C346.521 15.0985 346.644 15.7121 346.644 16.4545V22H345.303V16.5455C345.303 15.8598 345.125 15.3258 344.769 14.9432C344.413 14.5568 343.924 14.3636 343.303 14.3636C342.875 14.3636 342.493 14.4564 342.156 14.642C341.822 14.8277 341.559 15.0985 341.366 15.4545C341.173 15.8106 341.076 16.2424 341.076 16.75ZM352.64 22.1818C351.852 22.1818 351.161 21.9943 350.566 21.6193C349.975 21.2443 349.513 20.7197 349.18 20.0455C348.85 19.3712 348.685 18.5833 348.685 17.6818C348.685 16.7727 348.85 15.9792 349.18 15.3011C349.513 14.6231 349.975 14.0966 350.566 13.7216C351.161 13.3466 351.852 13.1591 352.64 13.1591C353.428 13.1591 354.117 13.3466 354.708 13.7216C355.303 14.0966 355.765 14.6231 356.094 15.3011C356.428 15.9792 356.594 16.7727 356.594 17.6818C356.594 18.5833 356.428 19.3712 356.094 20.0455C355.765 20.7197 355.303 21.2443 354.708 21.6193C354.117 21.9943 353.428 22.1818 352.64 22.1818ZM352.64 20.9773C353.238 20.9773 353.731 20.8239 354.117 20.517C354.504 20.2102 354.79 19.8068 354.975 19.3068C355.161 18.8068 355.254 18.2652 355.254 17.6818C355.254 17.0985 355.161 16.5549 354.975 16.0511C354.79 15.5473 354.504 15.1402 354.117 14.8295C353.731 14.5189 353.238 14.3636 352.64 14.3636C352.041 14.3636 351.549 14.5189 351.163 14.8295C350.776 15.1402 350.49 15.5473 350.305 16.0511C350.119 16.5549 350.026 17.0985 350.026 17.6818C350.026 18.2652 350.119 18.8068 350.305 19.3068C350.49 19.8068 350.776 20.2102 351.163 20.517C351.549 20.8239 352.041 20.9773 352.64 20.9773ZM362.187 22.1818C361.369 22.1818 360.664 21.9886 360.073 21.6023C359.482 21.2159 359.028 20.6837 358.71 20.0057C358.391 19.3277 358.232 18.553 358.232 17.6818C358.232 16.7955 358.395 16.0133 358.721 15.3352C359.05 14.6534 359.509 14.1212 360.096 13.7386C360.687 13.3523 361.376 13.1591 362.164 13.1591C362.778 13.1591 363.331 13.2727 363.823 13.5C364.316 13.7273 364.719 14.0455 365.033 14.4545C365.348 14.8636 365.543 15.3409 365.619 15.8864H364.278C364.175 15.4886 363.948 15.1364 363.596 14.8295C363.247 14.5189 362.778 14.3636 362.187 14.3636C361.664 14.3636 361.206 14.5 360.812 14.7727C360.422 15.0417 360.117 15.4223 359.897 15.9148C359.681 16.4034 359.573 16.9773 359.573 17.6364C359.573 18.3106 359.679 18.8977 359.891 19.3977C360.107 19.8977 360.41 20.286 360.8 20.5625C361.194 20.839 361.656 20.9773 362.187 20.9773C362.535 20.9773 362.852 20.9167 363.136 20.7955C363.42 20.6742 363.66 20.5 363.857 20.2727C364.054 20.0455 364.194 19.7727 364.278 19.4545H365.619C365.543 19.9697 365.355 20.4337 365.056 20.8466C364.761 21.2557 364.369 21.5814 363.88 21.8239C363.395 22.0625 362.831 22.1818 362.187 22.1818ZM367.579 22V13.2727H368.92V22H367.579ZM368.261 11.8182C367.999 11.8182 367.774 11.7292 367.585 11.5511C367.399 11.3731 367.306 11.1591 367.306 10.9091C367.306 10.6591 367.399 10.4451 367.585 10.267C367.774 10.089 367.999 10 368.261 10C368.522 10 368.746 10.089 368.931 10.267C369.121 10.4451 369.215 10.6591 369.215 10.9091C369.215 11.1591 369.121 11.3731 368.931 11.5511C368.746 11.7292 368.522 11.8182 368.261 11.8182ZM371.376 22V13.2727H372.671V14.6364H372.785C372.967 14.1705 373.26 13.8087 373.665 13.5511C374.071 13.2898 374.558 13.1591 375.126 13.1591C375.701 13.1591 376.181 13.2898 376.563 13.5511C376.95 13.8087 377.251 14.1705 377.467 14.6364H377.558C377.781 14.1856 378.116 13.8277 378.563 13.5625C379.01 13.2936 379.546 13.1591 380.171 13.1591C380.951 13.1591 381.59 13.4034 382.086 13.892C382.582 14.3769 382.83 15.1326 382.83 16.1591V22H381.489V16.1591C381.489 15.5152 381.313 15.0549 380.961 14.7784C380.609 14.5019 380.194 14.3636 379.717 14.3636C379.103 14.3636 378.628 14.5492 378.29 14.9205C377.953 15.2879 377.785 15.7538 377.785 16.3182V22H376.421V16.0227C376.421 15.5265 376.26 15.1269 375.938 14.8239C375.616 14.517 375.201 14.3636 374.694 14.3636C374.345 14.3636 374.02 14.4564 373.717 14.642C373.417 14.8277 373.175 15.0852 372.989 15.4148C372.808 15.7405 372.717 16.1174 372.717 16.5455V22H371.376ZM385.282 22V13.2727H386.623V22H385.282ZM385.964 11.8182C385.702 11.8182 385.477 11.7292 385.288 11.5511C385.102 11.3731 385.009 11.1591 385.009 10.9091C385.009 10.6591 385.102 10.4451 385.288 10.267C385.477 10.089 385.702 10 385.964 10C386.225 10 386.449 10.089 386.634 10.267C386.824 10.4451 386.918 10.6591 386.918 10.9091C386.918 11.1591 386.824 11.3731 386.634 11.5511C386.449 11.7292 386.225 11.8182 385.964 11.8182ZM392.738 22.1818C391.897 22.1818 391.172 21.9962 390.562 21.625C389.956 21.25 389.488 20.7273 389.158 20.0568C388.833 19.3826 388.67 18.5985 388.67 17.7045C388.67 16.8106 388.833 16.0227 389.158 15.3409C389.488 14.6553 389.946 14.1212 390.533 13.7386C391.124 13.3523 391.814 13.1591 392.602 13.1591C393.056 13.1591 393.505 13.2348 393.948 13.3864C394.391 13.5379 394.795 13.7841 395.158 14.125C395.522 14.4621 395.812 14.9091 396.028 15.4659C396.244 16.0227 396.352 16.7083 396.352 17.5227V18.0909H389.624V16.9318H394.988C394.988 16.4394 394.889 16 394.692 15.6136C394.499 15.2273 394.223 14.9223 393.863 14.6989C393.507 14.4754 393.086 14.3636 392.602 14.3636C392.067 14.3636 391.605 14.4962 391.215 14.7614C390.829 15.0227 390.531 15.3636 390.323 15.7841C390.115 16.2045 390.011 16.6553 390.011 17.1364V17.9091C390.011 18.5682 390.124 19.1269 390.352 19.5852C390.583 20.0398 390.903 20.3864 391.312 20.625C391.721 20.8598 392.196 20.9773 392.738 20.9773C393.09 20.9773 393.408 20.928 393.692 20.8295C393.98 20.7273 394.228 20.5758 394.437 20.375C394.645 20.1705 394.806 19.9167 394.92 19.6136L396.215 19.9773C396.079 20.4167 395.85 20.803 395.528 21.1364C395.206 21.4659 394.808 21.7235 394.335 21.9091C393.861 22.0909 393.329 22.1818 392.738 22.1818ZM399.732 16.75V22H398.391V13.2727H399.687V14.6364H399.8C400.005 14.1932 400.316 13.8371 400.732 13.5682C401.149 13.2955 401.687 13.1591 402.346 13.1591C402.937 13.1591 403.454 13.2803 403.897 13.5227C404.34 13.7614 404.685 14.125 404.931 14.6136C405.177 15.0985 405.3 15.7121 405.3 16.4545V22H403.96V16.5455C403.96 15.8598 403.781 15.3258 403.425 14.9432C403.069 14.5568 402.581 14.3636 401.96 14.3636C401.531 14.3636 401.149 14.4564 400.812 14.642C400.478 14.8277 400.215 15.0985 400.022 15.4545C399.829 15.8106 399.732 16.2424 399.732 16.75ZM411.546 13.2727V14.4091H407.023V13.2727H411.546ZM408.342 11.1818H409.683V19.5C409.683 19.8788 409.737 20.1629 409.847 20.3523C409.961 20.5379 410.105 20.6629 410.279 20.7273C410.457 20.7879 410.645 20.8182 410.842 20.8182C410.989 20.8182 411.111 20.8106 411.205 20.7955C411.3 20.7765 411.376 20.7614 411.433 20.75L411.705 21.9545C411.614 21.9886 411.487 22.0227 411.325 22.0568C411.162 22.0947 410.955 22.1136 410.705 22.1136C410.326 22.1136 409.955 22.0322 409.592 21.8693C409.232 21.7064 408.933 21.4583 408.694 21.125C408.459 20.7917 408.342 20.3712 408.342 19.8636V11.1818ZM417.015 22.1818C416.227 22.1818 415.536 21.9943 414.941 21.6193C414.35 21.2443 413.888 20.7197 413.555 20.0455C413.225 19.3712 413.06 18.5833 413.06 17.6818C413.06 16.7727 413.225 15.9792 413.555 15.3011C413.888 14.6231 414.35 14.0966 414.941 13.7216C415.536 13.3466 416.227 13.1591 417.015 13.1591C417.803 13.1591 418.492 13.3466 419.083 13.7216C419.678 14.0966 420.14 14.6231 420.469 15.3011C420.803 15.9792 420.969 16.7727 420.969 17.6818C420.969 18.5833 420.803 19.3712 420.469 20.0455C420.14 20.7197 419.678 21.2443 419.083 21.6193C418.492 21.9943 417.803 22.1818 417.015 22.1818ZM417.015 20.9773C417.613 20.9773 418.106 20.8239 418.492 20.517C418.879 20.2102 419.165 19.8068 419.35 19.3068C419.536 18.8068 419.629 18.2652 419.629 17.6818C419.629 17.0985 419.536 16.5549 419.35 16.0511C419.165 15.5473 418.879 15.1402 418.492 14.8295C418.106 14.5189 417.613 14.3636 417.015 14.3636C416.416 14.3636 415.924 14.5189 415.538 14.8295C415.151 15.1402 414.865 15.5473 414.68 16.0511C414.494 16.5549 414.401 17.0985 414.401 17.6818C414.401 18.2652 414.494 18.8068 414.68 19.3068C414.865 19.8068 415.151 20.2102 415.538 20.517C415.924 20.8239 416.416 20.9773 417.015 20.9773ZM429.198 15.2273L427.994 15.5682C427.918 15.3674 427.806 15.1723 427.658 14.983C427.514 14.7898 427.317 14.6307 427.067 14.5057C426.817 14.3807 426.497 14.3182 426.107 14.3182C425.573 14.3182 425.128 14.4413 424.772 14.6875C424.42 14.9299 424.244 15.2386 424.244 15.6136C424.244 15.947 424.365 16.2102 424.607 16.4034C424.85 16.5966 425.228 16.7576 425.744 16.8864L427.039 17.2045C427.819 17.3939 428.401 17.6837 428.783 18.0739C429.166 18.4602 429.357 18.9583 429.357 19.5682C429.357 20.0682 429.213 20.5152 428.925 20.9091C428.641 21.303 428.244 21.6136 427.732 21.8409C427.221 22.0682 426.626 22.1818 425.948 22.1818C425.058 22.1818 424.321 21.9886 423.738 21.6023C423.155 21.2159 422.785 20.6515 422.63 19.9091L423.903 19.5909C424.024 20.0606 424.253 20.4129 424.59 20.6477C424.931 20.8826 425.376 21 425.925 21C426.55 21 427.047 20.8674 427.414 20.6023C427.785 20.3333 427.971 20.0114 427.971 19.6364C427.971 19.3333 427.865 19.0795 427.653 18.875C427.441 18.6667 427.115 18.5114 426.675 18.4091L425.221 18.0682C424.422 17.8788 423.835 17.5852 423.46 17.1875C423.088 16.786 422.903 16.2841 422.903 15.6818C422.903 15.1894 423.041 14.7538 423.317 14.375C423.598 13.9962 423.978 13.6989 424.46 13.483C424.944 13.267 425.494 13.1591 426.107 13.1591C426.971 13.1591 427.649 13.3485 428.141 13.7273C428.638 14.1061 428.99 14.6061 429.198 15.2273ZM318.729 41V29.3636H320.138V34.5455H326.343V29.3636H327.752V41H326.343V35.7955H320.138V41H318.729ZM334.05 41.1818C333.21 41.1818 332.484 40.9962 331.874 40.625C331.268 40.25 330.8 39.7273 330.471 39.0568C330.145 38.3826 329.982 37.5985 329.982 36.7045C329.982 35.8106 330.145 35.0227 330.471 34.3409C330.8 33.6553 331.259 33.1212 331.846 32.7386C332.437 32.3523 333.126 32.1591 333.914 32.1591C334.369 32.1591 334.817 32.2348 335.261 32.3864C335.704 32.5379 336.107 32.7841 336.471 33.125C336.835 33.4621 337.124 33.9091 337.34 34.4659C337.556 35.0227 337.664 35.7083 337.664 36.5227V37.0909H330.937V35.9318H336.3C336.3 35.4394 336.202 35 336.005 34.6136C335.812 34.2273 335.535 33.9223 335.175 33.6989C334.819 33.4754 334.399 33.3636 333.914 33.3636C333.38 33.3636 332.918 33.4962 332.528 33.7614C332.141 34.0227 331.844 34.3636 331.636 34.7841C331.427 35.2045 331.323 35.6553 331.323 36.1364V36.9091C331.323 37.5682 331.437 38.1269 331.664 38.5852C331.895 39.0398 332.215 39.3864 332.624 39.625C333.033 39.8598 333.509 39.9773 334.05 39.9773C334.403 39.9773 334.721 39.928 335.005 39.8295C335.293 39.7273 335.541 39.5758 335.749 39.375C335.958 39.1705 336.119 38.9167 336.232 38.6136L337.528 38.9773C337.391 39.4167 337.162 39.803 336.84 40.1364C336.518 40.4659 336.121 40.7235 335.647 40.9091C335.174 41.0909 334.641 41.1818 334.05 41.1818ZM339.704 41V32.2727H340.999V33.5909H341.09C341.249 33.1591 341.537 32.8087 341.954 32.5398C342.371 32.2708 342.84 32.1364 343.363 32.1364C343.461 32.1364 343.585 32.1383 343.732 32.142C343.88 32.1458 343.992 32.1515 344.067 32.1591V33.5227C344.022 33.5114 343.918 33.4943 343.755 33.4716C343.596 33.4451 343.427 33.4318 343.249 33.4318C342.825 33.4318 342.446 33.5208 342.113 33.6989C341.783 33.8731 341.522 34.1155 341.329 34.4261C341.139 34.733 341.045 35.0833 341.045 35.4773V41H339.704ZM345.657 41V32.2727H346.952V33.5909H347.043C347.202 33.1591 347.49 32.8087 347.907 32.5398C348.324 32.2708 348.793 32.1364 349.316 32.1364C349.415 32.1364 349.538 32.1383 349.685 32.142C349.833 32.1458 349.945 32.1515 350.021 32.1591V33.5227C349.975 33.5114 349.871 33.4943 349.708 33.4716C349.549 33.4451 349.38 33.4318 349.202 33.4318C348.778 33.4318 348.399 33.5208 348.066 33.6989C347.737 33.8731 347.475 34.1155 347.282 34.4261C347.093 34.733 346.998 35.0833 346.998 35.4773V41H345.657ZM354.178 41.2045C353.625 41.2045 353.123 41.1004 352.673 40.892C352.222 40.6799 351.864 40.375 351.599 39.9773C351.334 39.5758 351.201 39.0909 351.201 38.5227C351.201 38.0227 351.299 37.6174 351.496 37.3068C351.693 36.9924 351.957 36.7462 352.286 36.5682C352.616 36.3902 352.979 36.2576 353.377 36.1705C353.779 36.0795 354.182 36.0076 354.587 35.9545C355.118 35.8864 355.548 35.8352 355.877 35.8011C356.21 35.7633 356.453 35.7008 356.604 35.6136C356.76 35.5265 356.837 35.375 356.837 35.1591V35.1136C356.837 34.553 356.684 34.1174 356.377 33.8068C356.074 33.4962 355.614 33.3409 354.996 33.3409C354.356 33.3409 353.854 33.4811 353.491 33.7614C353.127 34.0417 352.871 34.3409 352.724 34.6591L351.451 34.2045C351.678 33.6742 351.981 33.2614 352.36 32.9659C352.743 32.6667 353.159 32.4583 353.61 32.3409C354.065 32.2197 354.512 32.1591 354.951 32.1591C355.231 32.1591 355.553 32.1932 355.917 32.2614C356.284 32.3258 356.638 32.4602 356.979 32.6648C357.324 32.8693 357.61 33.178 357.837 33.5909C358.065 34.0038 358.178 34.5568 358.178 35.25V41H356.837V39.8182H356.769C356.678 40.0076 356.527 40.2102 356.315 40.4261C356.103 40.642 355.82 40.8258 355.468 40.9773C355.116 41.1288 354.686 41.2045 354.178 41.2045ZM354.383 40C354.913 40 355.36 39.8958 355.724 39.6875C356.091 39.4792 356.368 39.2102 356.553 38.8807C356.743 38.5511 356.837 38.2045 356.837 37.8409V36.6136C356.781 36.6818 356.656 36.7443 356.462 36.8011C356.273 36.8542 356.053 36.9015 355.803 36.9432C355.557 36.9811 355.317 37.0152 355.082 37.0455C354.851 37.072 354.663 37.0947 354.519 37.1136C354.171 37.1591 353.845 37.233 353.542 37.3352C353.243 37.4337 353 37.5833 352.815 37.7841C352.633 37.9811 352.542 38.25 352.542 38.5909C352.542 39.0568 352.714 39.4091 353.059 39.6477C353.407 39.8826 353.849 40 354.383 40ZM360.626 41V32.2727H361.921V33.6364H362.035C362.217 33.1705 362.51 32.8087 362.915 32.5511C363.321 32.2898 363.808 32.1591 364.376 32.1591C364.951 32.1591 365.431 32.2898 365.813 32.5511C366.2 32.8087 366.501 33.1705 366.717 33.6364H366.808C367.031 33.1856 367.366 32.8277 367.813 32.5625C368.26 32.2936 368.796 32.1591 369.421 32.1591C370.201 32.1591 370.84 32.4034 371.336 32.892C371.832 33.3769 372.08 34.1326 372.08 35.1591V41H370.739V35.1591C370.739 34.5152 370.563 34.0549 370.211 33.7784C369.859 33.5019 369.444 33.3636 368.967 33.3636C368.353 33.3636 367.878 33.5492 367.54 33.9205C367.203 34.2879 367.035 34.7538 367.035 35.3182V41H365.671V35.0227C365.671 34.5265 365.51 34.1269 365.188 33.8239C364.866 33.517 364.451 33.3636 363.944 33.3636C363.595 33.3636 363.27 33.4564 362.967 33.642C362.667 33.8277 362.425 34.0852 362.239 34.4148C362.058 34.7405 361.967 35.1174 361.967 35.5455V41H360.626ZM374.532 41V32.2727H375.873V41H374.532ZM375.214 30.8182C374.952 30.8182 374.727 30.7292 374.538 30.5511C374.352 30.3731 374.259 30.1591 374.259 29.9091C374.259 29.6591 374.352 29.4451 374.538 29.267C374.727 29.089 374.952 29 375.214 29C375.475 29 375.699 29.089 375.884 29.267C376.074 29.4451 376.168 29.6591 376.168 29.9091C376.168 30.1591 376.074 30.3731 375.884 30.5511C375.699 30.7292 375.475 30.8182 375.214 30.8182ZM381.988 41.1818C381.147 41.1818 380.422 40.9962 379.812 40.625C379.206 40.25 378.738 39.7273 378.408 39.0568C378.083 38.3826 377.92 37.5985 377.92 36.7045C377.92 35.8106 378.083 35.0227 378.408 34.3409C378.738 33.6553 379.196 33.1212 379.783 32.7386C380.374 32.3523 381.064 32.1591 381.852 32.1591C382.306 32.1591 382.755 32.2348 383.198 32.3864C383.641 32.5379 384.045 32.7841 384.408 33.125C384.772 33.4621 385.062 33.9091 385.278 34.4659C385.494 35.0227 385.602 35.7083 385.602 36.5227V37.0909H378.874V35.9318H384.238C384.238 35.4394 384.139 35 383.942 34.6136C383.749 34.2273 383.473 33.9223 383.113 33.6989C382.757 33.4754 382.336 33.3636 381.852 33.3636C381.317 33.3636 380.855 33.4962 380.465 33.7614C380.079 34.0227 379.781 34.3636 379.573 34.7841C379.365 35.2045 379.261 35.6553 379.261 36.1364V36.9091C379.261 37.5682 379.374 38.1269 379.602 38.5852C379.833 39.0398 380.153 39.3864 380.562 39.625C380.971 39.8598 381.446 39.9773 381.988 39.9773C382.34 39.9773 382.658 39.928 382.942 39.8295C383.23 39.7273 383.478 39.5758 383.687 39.375C383.895 39.1705 384.056 38.9167 384.17 38.6136L385.465 38.9773C385.329 39.4167 385.1 39.803 384.778 40.1364C384.456 40.4659 384.058 40.7235 383.585 40.9091C383.111 41.0909 382.579 41.1818 381.988 41.1818ZM388.982 35.75V41H387.641V32.2727H388.937V33.6364H389.05C389.255 33.1932 389.566 32.8371 389.982 32.5682C390.399 32.2955 390.937 32.1591 391.596 32.1591C392.187 32.1591 392.704 32.2803 393.147 32.5227C393.59 32.7614 393.935 33.125 394.181 33.6136C394.427 34.0985 394.55 34.7121 394.55 35.4545V41H393.21V35.5455C393.21 34.8598 393.031 34.3258 392.675 33.9432C392.319 33.5568 391.831 33.3636 391.21 33.3636C390.781 33.3636 390.399 33.4564 390.062 33.642C389.728 33.8277 389.465 34.0985 389.272 34.4545C389.079 34.8106 388.982 35.2424 388.982 35.75ZM400.796 32.2727V33.4091H396.273V32.2727H400.796ZM397.592 30.1818H398.933V38.5C398.933 38.8788 398.987 39.1629 399.097 39.3523C399.211 39.5379 399.355 39.6629 399.529 39.7273C399.707 39.7879 399.895 39.8182 400.092 39.8182C400.239 39.8182 400.361 39.8106 400.455 39.7955C400.55 39.7765 400.626 39.7614 400.683 39.75L400.955 40.9545C400.864 40.9886 400.737 41.0227 400.575 41.0568C400.412 41.0947 400.205 41.1136 399.955 41.1136C399.576 41.1136 399.205 41.0322 398.842 40.8693C398.482 40.7064 398.183 40.4583 397.944 40.125C397.709 39.7917 397.592 39.3712 397.592 38.8636V30.1818ZM405.381 41.2045C404.828 41.2045 404.326 41.1004 403.876 40.892C403.425 40.6799 403.067 40.375 402.802 39.9773C402.537 39.5758 402.404 39.0909 402.404 38.5227C402.404 38.0227 402.503 37.6174 402.7 37.3068C402.897 36.9924 403.16 36.7462 403.489 36.5682C403.819 36.3902 404.183 36.2576 404.58 36.1705C404.982 36.0795 405.385 36.0076 405.79 35.9545C406.321 35.8864 406.751 35.8352 407.08 35.8011C407.414 35.7633 407.656 35.7008 407.808 35.6136C407.963 35.5265 408.04 35.375 408.04 35.1591V35.1136C408.04 34.553 407.887 34.1174 407.58 33.8068C407.277 33.4962 406.817 33.3409 406.2 33.3409C405.559 33.3409 405.058 33.4811 404.694 33.7614C404.33 34.0417 404.075 34.3409 403.927 34.6591L402.654 34.2045C402.881 33.6742 403.184 33.2614 403.563 32.9659C403.946 32.6667 404.362 32.4583 404.813 32.3409C405.268 32.2197 405.715 32.1591 406.154 32.1591C406.434 32.1591 406.756 32.1932 407.12 32.2614C407.487 32.3258 407.842 32.4602 408.183 32.6648C408.527 32.8693 408.813 33.178 409.04 33.5909C409.268 34.0038 409.381 34.5568 409.381 35.25V41H408.04V39.8182H407.972C407.881 40.0076 407.73 40.2102 407.518 40.4261C407.306 40.642 407.023 40.8258 406.671 40.9773C406.319 41.1288 405.889 41.2045 405.381 41.2045ZM405.586 40C406.116 40 406.563 39.8958 406.927 39.6875C407.294 39.4792 407.571 39.2102 407.756 38.8807C407.946 38.5511 408.04 38.2045 408.04 37.8409V36.6136C407.984 36.6818 407.859 36.7443 407.665 36.8011C407.476 36.8542 407.256 36.9015 407.006 36.9432C406.76 36.9811 406.52 37.0152 406.285 37.0455C406.054 37.072 405.866 37.0947 405.722 37.1136C405.374 37.1591 405.048 37.233 404.745 37.3352C404.446 37.4337 404.203 37.5833 404.018 37.7841C403.836 37.9811 403.745 38.25 403.745 38.5909C403.745 39.0568 403.917 39.4091 404.262 39.6477C404.611 39.8826 405.052 40 405.586 40ZM418.011 34.2273L416.806 34.5682C416.73 34.3674 416.619 34.1723 416.471 33.983C416.327 33.7898 416.13 33.6307 415.88 33.5057C415.63 33.3807 415.31 33.3182 414.92 33.3182C414.386 33.3182 413.941 33.4413 413.585 33.6875C413.232 33.9299 413.056 34.2386 413.056 34.6136C413.056 34.947 413.177 35.2102 413.42 35.4034C413.662 35.5966 414.041 35.7576 414.556 35.8864L415.852 36.2045C416.632 36.3939 417.213 36.6837 417.596 37.0739C417.978 37.4602 418.17 37.9583 418.17 38.5682C418.17 39.0682 418.026 39.5152 417.738 39.9091C417.454 40.303 417.056 40.6136 416.545 40.8409C416.033 41.0682 415.439 41.1818 414.761 41.1818C413.871 41.1818 413.134 40.9886 412.55 40.6023C411.967 40.2159 411.598 39.6515 411.442 38.9091L412.715 38.5909C412.836 39.0606 413.066 39.4129 413.403 39.6477C413.744 39.8826 414.189 40 414.738 40C415.363 40 415.859 39.8674 416.227 39.6023C416.598 39.3333 416.783 39.0114 416.783 38.6364C416.783 38.3333 416.677 38.0795 416.465 37.875C416.253 37.6667 415.927 37.5114 415.488 37.4091L414.033 37.0682C413.234 36.8788 412.647 36.5852 412.272 36.1875C411.901 35.786 411.715 35.2841 411.715 34.6818C411.715 34.1894 411.853 33.7538 412.13 33.375C412.41 32.9962 412.791 32.6989 413.272 32.483C413.757 32.267 414.306 32.1591 414.92 32.1591C415.783 32.1591 416.461 32.3485 416.954 32.7273C417.45 33.1061 417.802 33.6061 418.011 34.2273ZM318.729 60V48.3636H320.138V53.5455H326.343V48.3636H327.752V60H326.343V54.7955H320.138V60H318.729ZM332.96 60.2045C332.406 60.2045 331.905 60.1004 331.454 59.892C331.003 59.6799 330.645 59.375 330.38 58.9773C330.115 58.5758 329.982 58.0909 329.982 57.5227C329.982 57.0227 330.081 56.6174 330.278 56.3068C330.475 55.9924 330.738 55.7462 331.067 55.5682C331.397 55.3902 331.761 55.2576 332.158 55.1705C332.56 55.0795 332.963 55.0076 333.369 54.9545C333.899 54.8864 334.329 54.8352 334.658 54.8011C334.992 54.7633 335.234 54.7008 335.386 54.6136C335.541 54.5265 335.619 54.375 335.619 54.1591V54.1136C335.619 53.553 335.465 53.1174 335.158 52.8068C334.855 52.4962 334.395 52.3409 333.778 52.3409C333.138 52.3409 332.636 52.4811 332.272 52.7614C331.908 53.0417 331.653 53.3409 331.505 53.6591L330.232 53.2045C330.46 52.6742 330.763 52.2614 331.141 51.9659C331.524 51.6667 331.941 51.4583 332.391 51.3409C332.846 51.2197 333.293 51.1591 333.732 51.1591C334.013 51.1591 334.335 51.1932 334.698 51.2614C335.066 51.3258 335.42 51.4602 335.761 51.6648C336.105 51.8693 336.391 52.178 336.619 52.5909C336.846 53.0038 336.96 53.5568 336.96 54.25V60H335.619V58.8182H335.55C335.46 59.0076 335.308 59.2102 335.096 59.4261C334.884 59.642 334.602 59.8258 334.249 59.9773C333.897 60.1288 333.467 60.2045 332.96 60.2045ZM333.164 59C333.694 59 334.141 58.8958 334.505 58.6875C334.872 58.4792 335.149 58.2102 335.335 57.8807C335.524 57.5511 335.619 57.2045 335.619 56.8409V55.6136C335.562 55.6818 335.437 55.7443 335.244 55.8011C335.054 55.8542 334.835 55.9015 334.585 55.9432C334.338 55.9811 334.098 56.0152 333.863 56.0455C333.632 56.072 333.444 56.0947 333.3 56.1136C332.952 56.1591 332.626 56.233 332.323 56.3352C332.024 56.4337 331.781 56.5833 331.596 56.7841C331.414 56.9811 331.323 57.25 331.323 57.5909C331.323 58.0568 331.496 58.4091 331.84 58.6477C332.189 58.8826 332.63 59 333.164 59ZM339.589 60V48.3636H340.93V52.6591H341.043C341.142 52.5076 341.278 52.3144 341.452 52.0795C341.63 51.8409 341.884 51.6288 342.214 51.4432C342.547 51.2538 342.998 51.1591 343.566 51.1591C344.301 51.1591 344.949 51.3428 345.509 51.7102C346.07 52.0777 346.507 52.5985 346.822 53.2727C347.136 53.947 347.293 54.7424 347.293 55.6591C347.293 56.5833 347.136 57.3845 346.822 58.0625C346.507 58.7367 346.072 59.2595 345.515 59.6307C344.958 59.9981 344.316 60.1818 343.589 60.1818C343.028 60.1818 342.579 60.089 342.242 59.9034C341.905 59.714 341.646 59.5 341.464 59.2614C341.282 59.0189 341.142 58.8182 341.043 58.6591H340.884V60H339.589ZM340.907 55.6364C340.907 56.2955 341.004 56.8769 341.197 57.3807C341.39 57.8807 341.672 58.2727 342.043 58.5568C342.415 58.8371 342.869 58.9773 343.407 58.9773C343.968 58.9773 344.435 58.8295 344.81 58.5341C345.189 58.2348 345.473 57.8333 345.663 57.3295C345.856 56.822 345.952 56.2576 345.952 55.6364C345.952 55.0227 345.858 54.4697 345.668 53.9773C345.483 53.4811 345.201 53.089 344.822 52.8011C344.447 52.5095 343.975 52.3636 343.407 52.3636C342.862 52.3636 342.403 52.5019 342.032 52.7784C341.661 53.0511 341.38 53.4337 341.191 53.9261C341.002 54.4148 340.907 54.9848 340.907 55.6364ZM349.344 60V51.2727H350.685V60H349.344ZM350.026 49.8182C349.765 49.8182 349.54 49.7292 349.35 49.5511C349.165 49.3731 349.072 49.1591 349.072 48.9091C349.072 48.6591 349.165 48.4451 349.35 48.267C349.54 48.089 349.765 48 350.026 48C350.288 48 350.511 48.089 350.697 48.267C350.886 48.4451 350.981 48.6591 350.981 48.9091C350.981 49.1591 350.886 49.3731 350.697 49.5511C350.511 49.7292 350.288 49.8182 350.026 49.8182ZM354.482 48.3636V60H353.141V48.3636H354.482ZM356.938 60V51.2727H358.279V60H356.938ZM357.62 49.8182C357.359 49.8182 357.133 49.7292 356.944 49.5511C356.758 49.3731 356.665 49.1591 356.665 48.9091C356.665 48.6591 356.758 48.4451 356.944 48.267C357.133 48.089 357.359 48 357.62 48C357.881 48 358.105 48.089 358.29 48.267C358.48 48.4451 358.575 48.6591 358.575 48.9091C358.575 49.1591 358.48 49.3731 358.29 49.5511C358.105 49.7292 357.881 49.8182 357.62 49.8182ZM364.031 60.1818C363.303 60.1818 362.661 59.9981 362.104 59.6307C361.548 59.2595 361.112 58.7367 360.798 58.0625C360.483 57.3845 360.326 56.5833 360.326 55.6591C360.326 54.7424 360.483 53.947 360.798 53.2727C361.112 52.5985 361.549 52.0777 362.11 51.7102C362.671 51.3428 363.318 51.1591 364.053 51.1591C364.621 51.1591 365.07 51.2538 365.4 51.4432C365.733 51.6288 365.987 51.8409 366.161 52.0795C366.339 52.3144 366.478 52.5076 366.576 52.6591H366.69V48.3636H368.031V60H366.735V58.6591H366.576C366.478 58.8182 366.337 59.0189 366.156 59.2614C365.974 59.5 365.714 59.714 365.377 59.9034C365.04 60.089 364.591 60.1818 364.031 60.1818ZM364.212 58.9773C364.75 58.9773 365.205 58.8371 365.576 58.5568C365.947 58.2727 366.229 57.8807 366.423 57.3807C366.616 56.8769 366.712 56.2955 366.712 55.6364C366.712 54.9848 366.618 54.4148 366.428 53.9261C366.239 53.4337 365.959 53.0511 365.587 52.7784C365.216 52.5019 364.758 52.3636 364.212 52.3636C363.644 52.3636 363.171 52.5095 362.792 52.8011C362.417 53.089 362.135 53.4811 361.945 53.9773C361.76 54.4697 361.667 55.0227 361.667 55.6364C361.667 56.2576 361.762 56.822 361.951 57.3295C362.144 57.8333 362.428 58.2348 362.803 58.5341C363.182 58.8295 363.652 58.9773 364.212 58.9773ZM373.241 60.2045C372.688 60.2045 372.186 60.1004 371.735 59.892C371.284 59.6799 370.926 59.375 370.661 58.9773C370.396 58.5758 370.263 58.0909 370.263 57.5227C370.263 57.0227 370.362 56.6174 370.559 56.3068C370.756 55.9924 371.019 55.7462 371.349 55.5682C371.678 55.3902 372.042 55.2576 372.44 55.1705C372.841 55.0795 373.245 55.0076 373.65 54.9545C374.18 54.8864 374.61 54.8352 374.94 54.8011C375.273 54.7633 375.515 54.7008 375.667 54.6136C375.822 54.5265 375.9 54.375 375.9 54.1591V54.1136C375.9 53.553 375.746 53.1174 375.44 52.8068C375.137 52.4962 374.676 52.3409 374.059 52.3409C373.419 52.3409 372.917 52.4811 372.553 52.7614C372.19 53.0417 371.934 53.3409 371.786 53.6591L370.513 53.2045C370.741 52.6742 371.044 52.2614 371.423 51.9659C371.805 51.6667 372.222 51.4583 372.673 51.3409C373.127 51.2197 373.574 51.1591 374.013 51.1591C374.294 51.1591 374.616 51.1932 374.979 51.2614C375.347 51.3258 375.701 51.4602 376.042 51.6648C376.387 51.8693 376.673 52.178 376.9 52.5909C377.127 53.0038 377.241 53.5568 377.241 54.25V60H375.9V58.8182H375.832C375.741 59.0076 375.589 59.2102 375.377 59.4261C375.165 59.642 374.883 59.8258 374.531 59.9773C374.178 60.1288 373.748 60.2045 373.241 60.2045ZM373.445 59C373.976 59 374.423 58.8958 374.786 58.6875C375.154 58.4792 375.43 58.2102 375.616 57.8807C375.805 57.5511 375.9 57.2045 375.9 56.8409V55.6136C375.843 55.6818 375.718 55.7443 375.525 55.8011C375.335 55.8542 375.116 55.9015 374.866 55.9432C374.62 55.9811 374.379 56.0152 374.144 56.0455C373.913 56.072 373.726 56.0947 373.582 56.1136C373.233 56.1591 372.907 56.233 372.604 56.3352C372.305 56.4337 372.063 56.5833 371.877 56.7841C371.695 56.9811 371.604 57.25 371.604 57.5909C371.604 58.0568 371.777 58.4091 372.121 58.6477C372.47 58.8826 372.911 59 373.445 59ZM382.984 60.1818C382.256 60.1818 381.614 59.9981 381.058 59.6307C380.501 59.2595 380.065 58.7367 379.751 58.0625C379.436 57.3845 379.279 56.5833 379.279 55.6591C379.279 54.7424 379.436 53.947 379.751 53.2727C380.065 52.5985 380.503 52.0777 381.063 51.7102C381.624 51.3428 382.272 51.1591 383.006 51.1591C383.575 51.1591 384.023 51.2538 384.353 51.4432C384.686 51.6288 384.94 51.8409 385.114 52.0795C385.292 52.3144 385.431 52.5076 385.529 52.6591H385.643V48.3636H386.984V60H385.688V58.6591H385.529C385.431 58.8182 385.29 59.0189 385.109 59.2614C384.927 59.5 384.667 59.714 384.33 59.9034C383.993 60.089 383.544 60.1818 382.984 60.1818ZM383.165 58.9773C383.703 58.9773 384.158 58.8371 384.529 58.5568C384.9 58.2727 385.183 57.8807 385.376 57.3807C385.569 56.8769 385.665 56.2955 385.665 55.6364C385.665 54.9848 385.571 54.4148 385.381 53.9261C385.192 53.4337 384.912 53.0511 384.54 52.7784C384.169 52.5019 383.711 52.3636 383.165 52.3636C382.597 52.3636 382.124 52.5095 381.745 52.8011C381.37 53.089 381.088 53.4811 380.898 53.9773C380.713 54.4697 380.62 55.0227 380.62 55.6364C380.62 56.2576 380.715 56.822 380.904 57.3295C381.097 57.8333 381.381 58.2348 381.756 58.5341C382.135 58.8295 382.605 58.9773 383.165 58.9773ZM393.285 60.1818C392.444 60.1818 391.719 59.9962 391.109 59.625C390.503 59.25 390.035 58.7273 389.705 58.0568C389.379 57.3826 389.217 56.5985 389.217 55.7045C389.217 54.8106 389.379 54.0227 389.705 53.3409C390.035 52.6553 390.493 52.1212 391.08 51.7386C391.671 51.3523 392.361 51.1591 393.148 51.1591C393.603 51.1591 394.052 51.2348 394.495 51.3864C394.938 51.5379 395.342 51.7841 395.705 52.125C396.069 52.4621 396.359 52.9091 396.575 53.4659C396.79 54.0227 396.898 54.7083 396.898 55.5227V56.0909H390.171V54.9318H395.535C395.535 54.4394 395.436 54 395.239 53.6136C395.046 53.2273 394.77 52.9223 394.41 52.6989C394.054 52.4754 393.633 52.3636 393.148 52.3636C392.614 52.3636 392.152 52.4962 391.762 52.7614C391.376 53.0227 391.078 53.3636 390.87 53.7841C390.662 54.2045 390.558 54.6553 390.558 55.1364V55.9091C390.558 56.5682 390.671 57.1269 390.898 57.5852C391.129 58.0398 391.45 58.3864 391.859 58.625C392.268 58.8598 392.743 58.9773 393.285 58.9773C393.637 58.9773 393.955 58.928 394.239 58.8295C394.527 58.7273 394.775 58.5758 394.984 58.375C395.192 58.1705 395.353 57.9167 395.467 57.6136L396.762 57.9773C396.626 58.4167 396.397 58.803 396.075 59.1364C395.753 59.4659 395.355 59.7235 394.881 59.9091C394.408 60.0909 393.876 60.1818 393.285 60.1818ZM405.12 53.2273L403.915 53.5682C403.84 53.3674 403.728 53.1723 403.58 52.983C403.436 52.7898 403.239 52.6307 402.989 52.5057C402.739 52.3807 402.419 52.3182 402.029 52.3182C401.495 52.3182 401.05 52.4413 400.694 52.6875C400.342 52.9299 400.165 53.2386 400.165 53.6136C400.165 53.947 400.287 54.2102 400.529 54.4034C400.772 54.5966 401.15 54.7576 401.665 54.8864L402.961 55.2045C403.741 55.3939 404.323 55.6837 404.705 56.0739C405.088 56.4602 405.279 56.9583 405.279 57.5682C405.279 58.0682 405.135 58.5152 404.847 58.9091C404.563 59.303 404.165 59.6136 403.654 59.8409C403.143 60.0682 402.548 60.1818 401.87 60.1818C400.98 60.1818 400.243 59.9886 399.66 59.6023C399.076 59.2159 398.707 58.6515 398.552 57.9091L399.825 57.5909C399.946 58.0606 400.175 58.4129 400.512 58.6477C400.853 58.8826 401.298 59 401.847 59C402.472 59 402.969 58.8674 403.336 58.6023C403.707 58.3333 403.893 58.0114 403.893 57.6364C403.893 57.3333 403.787 57.0795 403.575 56.875C403.362 56.6667 403.037 56.5114 402.597 56.4091L401.143 56.0682C400.344 55.8788 399.756 55.5852 399.381 55.1875C399.01 54.786 398.825 54.2841 398.825 53.6818C398.825 53.1894 398.963 52.7538 399.239 52.375C399.52 51.9962 399.9 51.6989 400.381 51.483C400.866 51.267 401.415 51.1591 402.029 51.1591C402.893 51.1591 403.571 51.3485 404.063 51.7273C404.559 52.1061 404.912 52.6061 405.12 53.2273Z" fill="#747474"/>
<defs>
<linearGradient id="paint0_linear_1108_12" x1="164.475" y1="2.49203" x2="286.013" y2="152.004" gradientUnits="userSpaceOnUse">
<stop stop-color="white"/>
<stop offset="0.18113" stop-color="#BB62F1"/>
<stop offset="0.523151" stop-color="#EE4B60"/>
<stop offset="0.937839" stop-color="white"/>
</linearGradient>
</defs>
</svg>
