<svg width="145" height="43" viewBox="0 0 145 43" fill="none" xmlns="http://www.w3.org/2000/svg">
<path d="M44.1904 29.8016C44.1904 33.051 46.8369 35.262 51.0103 35.262C55.1497 35.262 58.0337 33.185 58.0337 29.8351C58.0337 27.2892 56.6087 26.0163 53.7925 25.3798L50.7728 24.6763C49.3477 24.3413 48.6013 23.7383 48.6013 22.8004C48.6013 21.5609 49.5513 20.8239 51.1799 20.8239C52.7746 20.8239 53.7247 21.7284 53.7586 23.1353H57.6944C57.6605 19.9194 55.1158 17.7755 51.3496 17.7755C47.4816 17.7755 44.6994 19.7184 44.6994 22.9678C44.6994 25.6143 46.1583 27.0212 49.1781 27.6912L52.1978 28.3947C53.6907 28.7297 54.1318 29.3327 54.1318 30.1701C54.1318 31.3761 53.08 32.1466 51.146 32.1466C49.2459 32.1466 48.1602 31.2421 48.1263 29.8016H44.1904Z" fill="black"/>
<path d="M64.7651 34.8265V21.6949H68.0223V18.278H64.7651V13.1191H60.6256V18.278H57.4023V21.6949H60.6256V34.8265H64.7651Z" fill="black"/>
<path d="M73.3633 35.262C75.9759 35.262 78.2492 34.0895 78.9617 32.3811L79.2671 34.8265H82.8975V24.7768C82.8975 20.1874 80.1153 17.7755 75.6027 17.7755C71.0561 17.7755 68.0703 20.1204 68.0703 23.7048H71.599C71.599 21.9629 72.9561 20.9579 75.3991 20.9579C77.5027 20.9579 78.8599 21.8624 78.8599 24.1068V24.4753L73.8383 24.8438C69.8685 25.1453 67.6292 27.0547 67.6292 30.1031C67.6292 33.2185 69.8007 35.262 73.3633 35.262ZM74.7205 32.1801C72.8544 32.1801 71.8365 31.4431 71.8365 29.9356C71.8365 28.5957 72.8204 27.7582 75.3991 27.5237L78.8938 27.2557V28.1267C78.8938 30.6726 77.2652 32.1801 74.7205 32.1801Z" fill="black"/>
<path d="M95.3616 18.211C94.6831 18.0435 94.1063 17.9765 93.5294 17.9765C91.2901 17.9765 89.6954 19.082 88.9829 20.7234L88.7454 18.3115H84.8435V34.8265H88.9829V26.7867C88.9829 23.5708 90.849 21.9964 93.8348 21.9964H95.3616V18.211Z" fill="black"/>
<path d="M94.7536 29.8016C94.7536 33.051 97.4001 35.262 101.573 35.262C105.713 35.262 108.597 33.185 108.597 29.8351C108.597 27.2892 107.172 26.0163 104.356 25.3798L101.336 24.6763C99.9109 24.3413 99.1644 23.7383 99.1644 22.8004C99.1644 21.5609 100.114 20.8239 101.743 20.8239C103.338 20.8239 104.288 21.7284 104.322 23.1353H108.258C108.224 19.9194 105.679 17.7755 101.913 17.7755C98.0447 17.7755 95.2625 19.7184 95.2625 22.9678C95.2625 25.6143 96.7215 27.0212 99.7412 27.6912L102.761 28.3947C104.254 28.7297 104.695 29.3327 104.695 30.1701C104.695 31.3761 103.643 32.1466 101.709 32.1466C99.8091 32.1466 98.7233 31.2421 98.6894 29.8016H94.7536Z" fill="black"/>
<path d="M120.994 18.278V26.9542C120.994 30.1031 119.739 31.6106 117.126 31.6106C114.819 31.6106 113.564 30.3376 113.564 27.1887V18.278H109.424V28.6292C109.424 32.6826 111.698 35.262 115.566 35.262C117.805 35.262 119.977 34.19 120.994 32.6156L121.3 34.8265H125.134V18.278H120.994Z" fill="black"/>
<path d="M127.289 39.3572H131.428V32.6156C132.48 34.2905 134.651 35.262 137.162 35.262C142.15 35.262 145 31.5101 145 26.3512C145 21.1589 141.878 17.7755 137.162 17.7755C134.617 17.7755 132.412 18.881 131.394 20.7904L131.123 18.278H127.289V39.3572ZM131.462 26.5522C131.462 23.5708 133.328 21.4939 136.178 21.4939C139.096 21.4939 140.827 23.6043 140.827 26.5522C140.827 29.5002 139.096 31.5771 136.178 31.5771C133.328 31.5771 131.462 29.5337 131.462 26.5522Z" fill="black"/>
<g clip-path="url(#clip0_896_3)">
<path d="M31.7463 36.2108L31.6386 25.0001L31.6023 21.7018C29.2601 26.1879 24.1667 29.158 16.7417 29.7256C17.4548 31.2333 18.2724 32.6869 19.1885 34.0755C20.474 36.0176 21.9022 37.8578 23.4613 39.581C24.0975 40.3071 24.9428 40.8135 25.8828 41.0317C26.8228 41.2498 27.812 41.1692 28.7157 40.8005C29.6194 40.4317 30.3939 39.7929 30.9342 38.9707C31.4745 38.1485 31.7542 37.1828 31.7357 36.2047L31.7463 36.2108Z" fill="#FF6D03"/>
<path d="M16.7451 29.7207C13.7533 23.3704 13.7624 17.7109 16.3385 13.519L14.0264 14.8249L4.25833 20.3338C3.46866 20.7697 2.81341 21.4206 2.36833 22.211C1.92325 23.0015 1.7065 23.899 1.74353 24.7998C1.78228 25.7743 2.14064 26.7024 2.76192 27.4382C3.38319 28.1741 4.23227 28.676 5.17622 28.8654C8.39247 29.5487 11.6808 29.865 14.98 29.8086C15.5766 29.8057 16.1616 29.7745 16.7451 29.7207Z" fill="#FF6D03"/>
<path d="M31.1568 11.9961L31.6086 21.8501C29.6608 27.4321 24.0122 29.879 18.1214 32.3163C18.1214 32.3163 17.4522 31.2065 16.748 29.7147C16.0439 28.223 18.242 23.2992 18.242 23.2992L31.1568 11.9961Z" fill="#A9581E"/>
<path d="M25.5367 8.75134L16.3935 13.4853C12.5364 17.9577 13.0878 23.4923 13.9256 29.8071C13.9256 29.8071 15.0947 29.8309 16.7386 29.6948C18.3825 29.5587 22.2031 25.5788 22.2031 25.5788L25.5367 8.75134Z" fill="#A9581E"/>
<path d="M25.6294 8.28427L16.3323 13.5298C13.7403 17.7125 13.7472 23.3812 16.739 29.7315C24.1533 29.1577 29.2573 26.1938 31.5995 21.7077L31.4995 11.6733C31.4948 10.9798 31.3124 10.3027 30.9699 9.70799C30.6274 9.11324 30.1367 8.6211 29.5454 8.27973C28.9541 7.93837 28.2826 7.75944 27.5962 7.76022C26.9099 7.761 26.2323 7.94155 25.6294 8.28427Z" fill="#FFBD8D"/>
</g>
<defs>
<clipPath id="clip0_896_3">
<rect width="33.1428" height="30.3809" fill="white" transform="translate(15.1904) rotate(30)"/>
</clipPath>
</defs>
</svg>
